<?xml version="1.0" encoding="UTF-8" standalone="no"?>
<svg
   xmlns:dc="http://purl.org/dc/elements/1.1/"
   xmlns:cc="http://creativecommons.org/ns#"
   xmlns:rdf="http://www.w3.org/1999/02/22-rdf-syntax-ns#"
   xmlns:svg="http://www.w3.org/2000/svg"
   xmlns="http://www.w3.org/2000/svg"
   width="577"
   height="567"
   version="1.1"
   id="svg8">
  <title
     id="title9">長瀬麻奈 Sign</title>
  <defs
     id="defs2" />
  <metadata
     id="metadata5">
    <rdf:RDF>
      <cc:Work
         rdf:about="">
        <dc:format>image/svg+xml</dc:format>
        <dc:type
           rdf:resource="http://purl.org/dc/dcmitype/StillImage" />
        <dc:title>長瀬麻奈 Sign</dc:title>
        <dc:creator>
          <cc:Agent>
            <dc:title>765プロダクション星見支社</dc:title>
          </cc:Agent>
        </dc:creator>
        <dc:rights>
          <cc:Agent>
            <dc:title>© 2019 Project IDOLY PRIDE</dc:title>
          </cc:Agent>
        </dc:rights>
        <dc:publisher>
          <cc:Agent>
            <dc:title>765プロダクション星見支社</dc:title>
          </cc:Agent>
        </dc:publisher>
      </cc:Work>
    </rdf:RDF>
  </metadata>
  <g
     id="Nagase_Mana">
    <path
       id="Nagase_Mana_sign"
       d="m 135.5055,564.51538 c -2.16667,-2.1667 -1.95721,-5.06691 0.78963,-10.93322 5.40047,-11.53356 9.60939,-15.95303 55.13122,-57.88925 60.35119,-55.59747 81.79953,-76.43507 100.36509,-97.50715 18.85705,-21.4029 25.19282,-34.28797 18.99461,-38.62936 -5.3009,-3.71289 -22.07147,-0.48392 -34.79227,6.69883 -22.51176,12.71118 -52.06305,37.66958 -75.81795,64.03429 -6.2098,6.89207 -12.07908,12.73717 -13.04284,12.98922 -2.73178,0.71437 -6.08674,-0.94607 -7.30238,-3.61404 -1.35202,-2.9674 0.56408,-9.42504 6.1242,-20.63974 7.06141,-14.24274 10.00495,-26.45827 10.00495,-41.5198 0,-22.04776 -7.58425,-28.64082 -21.73524,-18.89465 -16.55437,11.40142 -36.07194,44.8406 -44.31311,75.92104 -6.83773,25.78752 -6.20719,46.28755 1.9157,62.28337 3.92885,7.73681 7.98226,11.35312 15.41072,13.74892 5.52199,1.78096 6.23994,2.31655 6.53208,4.87294 0.53663,4.69572 -0.68774,7.57596 -4.10666,9.66054 -13.48212,8.22038 -30.4758,-11.05456 -35.68735,-40.47815 -1.48478,-8.38285 -1.24375,-27.62791 0.46443,-37.08211 2.15278,-11.91485 2.49986,-11.16342 -5.41846,-11.72999 C 96.215265,434.89075 84.631596,427.65426 65.343345,408.52048 48.118518,391.4336 36.642188,375.17807 25.790834,352.4967 -11.100645,275.38654 -8.1379024,160.32719 32.900769,76.379331 55.658913,29.825737 86.329901,2.6588565 118.92703,0.18141861 c 9.70011,-0.73722497 14.98963,0.71806284 19.5036,5.36595689 4.68649,4.8255165 6.50823,11.3355965 6.50426,23.2432305 -0.007,21.20559 -7.33037,48.570928 -25.94178,96.938034 -4.43822,11.53399 -8.06949,21.53445 -8.06949,22.22323 0,0.6888 4.16427,-2.75673 9.25394,-7.6567 26.28753,-25.30783 64.73654,-46.344396 82.62305,-45.205469 5.72654,0.364653 6.74188,0.760023 9.2979,3.62069 2.49282,2.789959 2.86933,4.010379 2.86933,9.300659 0,12.87572 -9.83251,34.7649 -28.0113,62.3589 -5.6562,8.58567 -10.09476,15.7995 -9.86349,16.03078 0.23125,0.23128 3.72553,-1.78406 7.76501,-4.47853 18.11333,-12.08215 36.53723,-12.16575 47.31058,-0.21469 3.65376,4.05317 5.48466,9.31585 4.48275,12.88512 -0.28374,1.01075 -0.82668,2.91259 -1.20655,4.2263 -0.4555,1.57524 2.83895,-1.16712 9.67477,-8.05343 10.99965,-11.08089 19.62697,-16.62902 30.26142,-19.46075 7.76419,-2.06743 20.21046,-1.75646 28.17654,0.70402 5.31442,1.64146 7.27839,1.85604 9.15627,1.00042 5.29328,-2.41178 10.14593,-0.33005 8.83786,3.79133 -0.34483,1.08643 -2.85806,5.26668 -5.585,9.28945 -7.29029,10.75463 -6.84303,12.51942 1.35533,5.34769 5.95006,-5.20495 16.85273,-10.76988 24.5668,-12.53932 16.23012,-3.72284 30.61507,5.18117 35.05929,21.70103 2.1042,7.82157 -2.55605,12.43383 -8.8228,8.73197 -1.66768,-0.98513 -3.31046,-1.51282 -3.65062,-1.17267 -2.33605,2.33608 -3.32716,21.7551 -1.33361,26.13045 1.18598,2.60294 4.71226,4.6593 7.98983,4.6593 5.28512,0 11.89608,-6.55313 11.9046,-11.80046 0.003,-2.97572 4.26674,-7.2166 7.21138,-7.1758 7.10721,0.0984 9.45155,8.48159 5.23679,18.72615 -1.22342,2.97376 -1.1807,3.25138 0.50024,3.25138 1.01086,0 5.74744,-1.13293 10.52582,-2.51765 16.5839,-4.80583 21.15919,-8.77972 20.30798,-17.63858 -0.85816,-8.93112 -6.04966,-13.17956 -20.54892,-16.81608 -10.81129,-2.71155 -17.38585,-6.07655 -20.91655,-10.70553 -2.51359,-3.2955 -2.8132,-4.49793 -2.8132,-11.29041 0,-6.63165 0.43652,-8.48878 3.41946,-14.54796 7.00621,-14.23166 22.62983,-25.76709 39.52787,-29.18471 19.14275,-3.8716 39.73288,4.49949 43.73605,17.78127 1.07992,3.583 1.15415,3.62392 7.67638,4.23298 8.1244,0.75867 16.24678,4.55472 19.84792,9.27609 3.31969,4.35233 4.24887,11.73211 2.01993,16.04244 -5.12348,9.9077 -20.98972,18.2329 -47.69849,25.0279 -2.91828,0.74243 -3.54462,1.38545 -3.76041,3.86054 -0.31459,3.60874 3.20425,10.00249 7.08872,12.87991 4.67602,3.46376 14.40559,2.92996 23.07158,-1.2658 5.13655,-2.48695 7.66757,-3.18149 9.93859,-2.72727 6.3604,1.27207 8.70255,6.62661 4.57899,10.46829 -3.07814,2.86772 -16.92409,6.29012 -25.81051,6.37976 -9.14588,0.0922 -14.14322,-1.37467 -20.02315,-5.87761 -2.42881,-1.86001 -4.76295,-3.38182 -5.187,-3.38182 -0.42405,0 -3.16386,2.36613 -6.08846,5.25806 -5.77901,5.71444 -14.22939,10.26976 -26.45305,14.25996 -9.74832,3.18219 -13.40744,3.18011 -17.19837,-0.0104 -3.51354,-2.95647 -3.83411,-2.98341 -10.30578,-0.86663 -6.81816,2.23011 -15.45849,1.39438 -21.36384,-2.0664 -4.40305,-2.58007 -9.53024,-9.49465 -9.53024,-12.85225 0,-3.76777 -2.17443,-2.17798 -8.28061,6.05427 -8.0492,10.85178 -20.48176,22.79643 -26.49727,25.45737 -6.07164,2.68577 -14.19001,2.1193 -17.76539,-1.2396 -1.49832,-1.4076 -2.84246,-1.97787 -3.34152,-1.41769 -0.45918,0.51544 -2.08103,5.41588 -3.60408,10.88985 -8.42945,30.29615 -22.84476,52.23296 -39.77639,60.53056 -5.60706,2.74782 -8.18657,3.37549 -15.50659,3.77318 -8.21769,0.44648 -9.13125,0.29199 -14.24864,-2.40937 -10.73267,-5.66557 -13.85789,-18.07796 -8.54023,-33.91901 4.75788,-14.17346 14.28593,-27.34427 31.84016,-44.01317 9.31451,-8.84476 10.6795,-10.50123 8.1791,-9.92569 -17.25124,3.97089 -25.87086,4.47911 -34.16952,2.01468 -6.4004,-1.90072 -11.74833,-7.05034 -14.04902,-13.52809 -0.97468,-2.74428 -2.02805,-4.9896 -2.34081,-4.9896 -0.31278,0 -2.53307,2.8137 -4.93401,6.25265 -11.29971,16.18504 -23.90461,28.58945 -32.8492,32.32674 -10.32217,4.31288 -19.83997,-1.55994 -22.41364,-13.83001 -1.11104,-5.29688 -0.10352,-13.76185 2.81539,-23.65529 1.4023,-4.75293 -1.81568,-0.88627 -11.06828,13.2994 -12.37545,18.97348 -23.36859,37.60199 -34.440047,58.36056 -10.665768,19.99795 -12.121236,23.68615 -12.121236,30.71566 0,6.13209 -1.153567,7.57749 -6.047581,7.57749 -7.216253,0 -9.271459,-6.52431 -5.56777,-17.67508 3.687972,-11.10344 21.231835,-39.11612 64.742854,-103.37637 56.25776,-83.08556 71.05182,-111.10547 60.68639,-114.93989 -3.60358,-1.33305 -9.55925,0.58902 -24.27584,7.83459 -31.3963,15.45763 -59.04594,37.43035 -71.20359,56.58434 -3.71304,5.84977 -4.70868,9.47329 -10.858063,39.51628 -9.860197,48.17232 -16.929856,68.11143 -26.466604,74.64583 -7.04464,4.82686 -15.569771,2.32473 -18.08919,-5.30918 -5.623027,-17.03794 13.084469,-66.27825 40.742716,-107.23957 3.48751,-5.16494 6.340932,-10.04795 6.340932,-10.85114 0,-0.80321 6.262959,-20.43749 13.917699,-43.63175 C 131.00713,58.429564 137.00807,32.051425 134.00914,17.687003 131.83121,7.2549904 126.46584,4.5320396 113.35617,7.205487 71.805615,15.678855 35.435742,68.421117 18.866831,144.23047 c -6.548592,29.96241 -9.4402496,65.62462 -7.860726,96.94467 3.929309,77.91352 33.570232,141.0753 81.135298,172.89105 12.588147,8.42005 18.158997,9.5012 26.592287,5.16075 2.833,-1.45807 3.92732,-3.23495 7.61925,-12.37149 15.1924,-37.5971 40.57746,-64.94075 60.46304,-65.12805 8.37193,-0.0788 12.88844,2.95891 17.06703,11.47914 5.20321,10.60947 5.9041,25.79923 2.10854,45.69635 -1.24715,6.53782 -1.2839,8.11696 -0.18894,8.11696 0.46146,0 6.87668,-5.6683 14.25605,-12.5962 22.21947,-20.8601 40.26254,-34.59155 55.4349,-42.18801 14.27553,-7.14745 32.13801,-10.56327 43.81337,-8.37837 11.52375,2.1565 15.71192,5.88579 15.71192,13.99039 0,9.43087 -14.24947,30.70294 -35.4742,52.95707 -5.39649,5.65825 -9.57375,10.52574 -9.28279,10.8167 0.29096,0.29077 4.06507,-0.20684 8.38694,-1.1061 17.61944,-3.66626 32.64153,2.72446 35.89605,15.27098 1.9353,7.46079 -0.45936,17.10536 -4.31321,17.37163 -5.93999,0.41041 -7.47222,-1.74999 -6.61498,-9.327 0.62773,-5.54843 0.53484,-5.86729 -2.54844,-8.7475 -3.80545,-3.55483 -7.96905,-4.49512 -16.77445,-3.78832 -18.29941,1.46889 -38.85554,20.04799 -46.99672,42.4767 -4.82496,13.29261 -2.77968,20.86853 5.57475,20.64949 5.87961,-0.15427 13.49676,-4.9225 21.56632,-13.5005 8.73028,-9.28034 14.52843,-19.85878 18.00484,-32.84906 2.73684,-10.22664 3.79035,-12.03955 6.99634,-12.03955 3.6913,0 5.19086,2.14866 8.02934,11.50486 5.09415,16.79145 12.22453,26.91147 18.96132,26.91147 4.94901,0 6.63957,-1.74916 5.50708,-5.69794 -2.18968,-7.63495 0.12859,-45.98953 3.26415,-54.00342 1.25353,-3.20379 5.74456,-6.7269 8.57502,-6.7269 1.0678,0 2.76477,0.90977 3.77105,2.0217 1.77656,1.96305 1.75291,2.3474 -0.8156,13.25563 -4.37866,18.59574 -4.77371,32.56427 -0.63865,22.58136 2.65331,-6.4057 10.78733,-17.52137 17.18605,-23.48591 9.21836,-8.59283 16.24364,-11.87171 25.43633,-11.87171 6.22258,0 7.51584,0.32253 9.76538,2.43592 4.30411,4.0435 5.02109,8.95059 3.07527,21.04803 -0.93159,5.79179 -1.76389,13.00657 -1.84965,16.03284 l -0.15578,5.50234 4.00172,-0.349 c 2.20092,-0.19207 4.08094,-0.42126 4.17778,-0.50958 0.0968,-0.0885 -0.74126,-2.85752 -1.86252,-6.15375 -4.92549,-14.48002 1.63603,-35.07877 15.65243,-49.13809 10.44539,-10.47737 23.20233,-15.22428 37.92217,-14.11099 15.77644,1.19313 25.9829,9.76606 27.31621,22.94415 0.48088,4.75311 0.27261,5.5448 -2.02023,7.67959 -2.47498,2.30445 -3.62116,2.3853 -8.05873,0.56846 -1.78228,-0.72973 -1.86913,-0.387 -1.35069,5.33019 0.6573,7.24888 4.60466,16.42876 9.03479,21.011 7.50184,7.7595 23.37667,8.15039 37.10386,0.91372 13.95749,-7.35817 25.54118,-22.49265 32.68863,-42.70886 1.26448,-3.57655 2.72834,-7.0655 3.25302,-7.7533 1.3375,-1.75334 6.26023,-1.55888 8.14071,0.3214 2.15629,2.15634 1.99027,4.14666 -1.05302,12.62433 -9.92116,27.63715 -30.00595,48.3518 -51.29827,52.907 -7.84177,1.67765 -21.55338,0.76337 -27.32837,-1.8222 -7.16534,-3.20806 -14.04163,-10.21859 -17.40218,-17.74188 -1.58911,-3.55747 -3.19627,-6.48022 -3.57152,-6.495 -0.37508,-0.0151 -2.82133,3.56912 -5.43575,7.96432 -5.5875,9.39325 -13.57451,17.74282 -20.17989,21.09597 -6.96035,3.53332 -16.02059,3.37939 -22.70344,-0.38579 -2.74041,-1.544 -5.11096,-2.44333 -5.26783,-1.99849 -2.19144,6.21434 -6.85864,9.81261 -12.72761,9.81261 -9.99735,0 -14.07621,-11.36207 -10.05596,-28.01193 3.72275,-15.41768 0.32517,-21.37921 -9.77847,-17.15765 -5.07965,2.12243 -12.64791,11.29152 -19.58966,23.73332 -3.50809,6.2876 -8.00999,13.90806 -10.00424,16.93434 -2.52215,3.82738 -3.77818,7.01509 -4.12612,10.47181 -0.42771,4.2492 -0.9804,5.29203 -3.8133,7.19497 -4.91935,3.30449 -12.88683,4.70063 -18.60641,3.26043 -5.90784,-1.48761 -13.26918,-7.97679 -18.13443,-15.98584 -1.98519,-3.26799 -3.93325,-5.94179 -4.32903,-5.94179 -0.39576,0 -1.98485,2.58861 -3.53131,5.75243 -9.51331,19.46305 -25.5792,32.76879 -41.06758,34.01202 -8.3986,0.67418 -14.50429,-1.49475 -18.33095,-6.51172 -2.33207,-3.05742 -2.78635,-4.73646 -3.09029,-11.42185 -0.23432,-5.1537 0.23481,-10.24971 1.3699,-14.88157 0.94942,-3.87422 1.50057,-7.26968 1.22478,-7.54548 -0.59653,-0.59651 -45.81332,40.72301 -64.10828,58.58275 -14.83945,14.48643 -20.81891,21.98333 -23.16327,29.04152 -0.91731,2.76175 -3.084,6.4375 -4.81488,8.1684 -5.98989,5.98988 -15.72654,8.67505 -19.12681,5.27479 z M 444.15204,451.19856 c 9.63943,-6.11319 19.6732,-21.6068 26.93869,-41.59748 3.13797,-8.63399 3.18225,-8.96918 1.3645,-10.32726 -2.97663,-2.22384 -16.71216,-1.22875 -22.60393,1.63758 -13.6913,6.66077 -23.79374,22.68594 -23.79374,37.74309 0,13.59719 7.85126,19.0401 18.09448,12.54407 z M 243.47996,326.07122 c 15.30235,-7.23604 27.37933,-24.61212 36.3829,-52.34689 4.41652,-13.60472 8.86963,-33.37534 7.76601,-34.47895 -1.76328,-1.76328 -20.03769,12.21803 -33.60986,25.71411 -13.29485,13.22031 -22.91495,25.52897 -27.63792,35.36193 -5.71157,11.8912 -5.56554,23.03618 0.36291,27.69952 3.40969,2.68204 8.0953,2.13616 16.73594,-1.94972 z M 67.710479,273.21503 c 2.555438,-3.61705 6.58924,-14.96661 9.614468,-27.05142 4.417943,-17.64824 10.746156,-48.40883 10.093221,-49.06177 -0.918339,-0.91833 -3.69185,3.02301 -9.383437,13.33447 -11.487276,20.81153 -19.158888,42.26779 -19.892433,55.63587 -0.444085,8.09309 -0.334932,8.71244 1.798531,10.20679 2.69826,1.88994 4.876659,1.03089 7.76965,-3.06394 z M 167.2355,257.88914 c 11.91098,-7.8895 30.45393,-36.33404 40.27669,-61.78369 1.55558,-4.03033 3.86948,-8.14685 5.14199,-9.1478 1.27251,-1.00096 2.31366,-2.05701 2.31366,-2.34678 0,-1.52001 -6.64315,-1.63853 -12.20972,-0.21783 -11.76488,3.00264 -23.33495,11.80239 -33.82894,25.72897 -14.43868,19.16157 -22.13928,42.68334 -15.9877,48.83492 3.05421,3.05421 8.70862,2.63183 14.29402,-1.06779 z m 146.77443,-4.67244 c 18.95423,-11.68692 46.32993,-55.80401 38.60562,-62.21461 -4.06193,-3.37111 -18.43122,1.38631 -26.87784,8.89875 -19.42551,17.2771 -32.30535,58.61443 -17.29088,55.49431 1.68413,-0.34999 4.18752,-1.33027 5.5631,-2.17845 z m -87.43667,-15.50714 c -1.53129,-2.61293 -2.60159,-5.95979 -2.60159,-8.13523 0,-3.7776 5.37966,-19.13518 7.06855,-20.17898 0.51417,-0.31776 0.93485,-1.21523 0.93485,-1.99435 0,-1.01865 -0.78856,-1.25888 -2.80721,-0.85514 -3.65358,0.73072 -5.68952,-1.56941 -4.74232,-5.35773 2.56844,-10.27253 1.15945,-12.37692 -2.91,-4.34624 -3.96786,7.83019 -6.56638,18.70093 -6.64069,27.78083 -0.0954,11.65643 3.04492,17.37963 10.17061,18.53585 3.91533,0.6353 4.29658,-0.72444 1.5278,-5.44901 z m 32.91351,-5.19661 c 12.3891,-6.09149 24.64284,-18.00937 38.61712,-37.55866 3.24598,-4.54097 5.9018,-8.87107 5.9018,-9.62244 0,-1.74606 -6.46516,-5.05531 -12.53304,-6.41515 -17.59493,-3.9431 -43.28043,14.64581 -52.4773,37.97845 -2.41668,6.13121 -2.85819,14.33332 -0.89863,16.69445 3.60242,4.34066 11.14421,3.96105 21.39005,-1.07665 z m 177.47877,-34.97278 c 2.51324,-12.64414 9.61028,-24.10828 18.63146,-30.0962 3.01149,-1.99891 5.47543,-3.92376 5.47543,-4.27745 0,-2.2106 -5.87276,-8.40967 -10.19629,-10.76282 -16.64301,-9.05829 -45.07771,0.96233 -53.38966,18.81496 -1.33239,2.86176 -2.42696,7.01634 -2.43233,9.2324 -0.0189,7.43762 3.50073,10.07919 20.50112,15.39025 5.50115,1.71861 11.80285,4.2 14.00378,5.51418 2.20092,1.3142 4.48185,2.43189 5.06868,2.48376 0.58688,0.0518 1.63887,-2.78271 2.33781,-6.29908 z m 25.10734,-0.15442 c 17.76172,-4.74891 28.01189,-10.9967 28.01189,-17.07414 0,-5.51972 -7.34819,-11.40356 -14.21619,-11.38316 -5.07531,0.0151 -13.35755,4.40914 -18.75459,9.95008 -5.20046,5.33909 -10.04749,14.2591 -10.04749,18.49031 0,3.36212 2.48424,3.36493 15.00638,0.017 z"
       style="fill:#f251b0;fill-opacity:1" />
  </g>
</svg>