<?xml version="1.0" encoding="UTF-8" standalone="no"?>
<svg
   xmlns:dc="http://purl.org/dc/elements/1.1/"
   xmlns:cc="http://creativecommons.org/ns#"
   xmlns:rdf="http://www.w3.org/1999/02/22-rdf-syntax-ns#"
   xmlns:svg="http://www.w3.org/2000/svg"
   xmlns="http://www.w3.org/2000/svg"
   width="1500"
   height="227"
   version="1.1"
   id="svg5">
  <title
     id="title20">星見プロダクション Logo (Full Version)</title>
  <metadata
     id="metadata23">
    <rdf:RDF>
      <cc:Work
         rdf:about="">
        <dc:title>星見プロダクション Logo (Full Version)</dc:title>
        <dc:format>image/svg+xml</dc:format>
        <dc:type
           rdf:resource="http://purl.org/dc/dcmitype/StillImage" />
        <cc:license
           rdf:resource="http://creativecommons.org/licenses/by-nc/4.0/" />
        <dc:creator>
          <cc:Agent>
            <dc:title>765プロダクション星見支社</dc:title>
          </cc:Agent>
        </dc:creator>
        <dc:rights>
          <cc:Agent>
            <dc:title>© 2019 Project IDOLY PRIDE</dc:title>
          </cc:Agent>
        </dc:rights>
        <dc:publisher>
          <cc:Agent>
            <dc:title>765プロダクション星見支社</dc:title>
          </cc:Agent>
        </dc:publisher>
      </cc:Work>
      <cc:License
         rdf:about="http://creativecommons.org/licenses/by-nc/4.0/">
        <cc:permits
           rdf:resource="http://creativecommons.org/ns#Reproduction" />
        <cc:permits
           rdf:resource="http://creativecommons.org/ns#Distribution" />
        <cc:requires
           rdf:resource="http://creativecommons.org/ns#Notice" />
        <cc:requires
           rdf:resource="http://creativecommons.org/ns#Attribution" />
        <cc:prohibits
           rdf:resource="http://creativecommons.org/ns#CommercialUse" />
        <cc:permits
           rdf:resource="http://creativecommons.org/ns#DerivativeWorks" />
      </cc:License>
    </rdf:RDF>
  </metadata>
  <defs
     id="defs2" />
  <path
     id="Hoshimi_Production_logo"
     d="M 170.22,43.328727 81.499272,113.48 170.22,183.63127 258.94072,113.48 Z m 0,30.777819 c 6.1408,0 8.91876,16.650503 13.8868,20.259973 4.96802,3.609481 21.66277,1.105151 23.56039,6.945411 1.89762,5.84026 -13.08127,13.62783 -14.97887,19.4681 -1.89762,5.84026 5.643,20.94427 0.67499,24.55376 -4.96802,3.60948 -17.00251,-8.22893 -23.14331,-8.22893 -6.14082,0 -18.17528,11.83841 -23.14331,8.22893 -4.96803,-3.60949 2.57262,-18.7135 0.675,-24.55376 -1.89762,-5.84027 -16.87649,-13.62784 -14.97889,-19.4681 1.89761,-5.84026 18.59239,-3.33593 23.56039,-6.945411 4.96805,-3.60947 7.74599,-20.259973 13.88681,-20.259973 z M 170.22,0 0,113.48 170.22,226.96 340.44,113.48 Z m 0,21.148545 L 297.62709,113.48 170.22,205.81146 42.812909,113.48 Z"
     style="fill:#0091cd;fill-opacity:1;stroke-width:3.8991" />
  <g
     id="Hoshimi_Production_name">
    <path
       id="ン "
       d="m 1474.7242,85.109998 h 25.2751 c -5.4104,19.801882 -10.5609,37.053892 -19.6503,49.497672 -9.0894,12.44381 -18.5575,22.07421 -28.4044,28.89127 -9.7385,6.70884 -18.9903,11.46994 -27.7551,14.28331 -8.7648,2.81338 -15.9605,4.4365 -21.5873,4.86933 -5.5185,0.54103 -8.3319,0.75745 -8.4401,0.64924 V 156.8442 c 0.1084,0.1082 2.3264,0.054 6.6548,-0.16232 4.3282,-0.32464 9.8468,-1.46079 16.5556,-3.40851 6.817,-1.94772 13.9588,-5.68086 21.425,-11.19941 7.4663,-5.51857 14.3375,-12.4979 20.6135,-20.93806 6.3841,-8.54834 10.4438,-21.30977 15.3132,-36.025913 z m -80.5621,-0.818553 V 58.287452 h 50.6409 v 26.003993 z"
       style="fill:#0091cd;fill-opacity:1;stroke-width:3.8991" />
    <path
       id="ョ"
       d="m 1303.3934,144.21963 v -16.71529 h 50.2805 v -16.60343 h -52.2646 V 93.66932 h 70.7323 v 86.35121 h -70.7323 v -17.5378 h 52.2646 v -18.2631 z"
       style="fill:#0091cd;fill-opacity:1;stroke-width:3.8991" />
    <path
       id="シ"
       d="m 1262.6197,85.723357 24.8625,4.64e-4 c -5.4104,19.801879 -10.4765,37.987529 -19.5658,50.431309 -9.0895,12.44381 -18.5575,22.07421 -28.4044,28.89126 -9.7387,6.70884 -18.9904,11.46993 -27.755,14.28332 -8.7648,2.81338 -15.9606,4.43649 -21.5874,4.86933 -5.5185,0.54103 -8.4402,0.64923 -8.4402,0.64923 V 156.5508 c 0,0 2.3266,-0.0416 6.6548,-0.25788 4.3282,-0.32464 9.8469,-0.63137 16.5557,-2.57909 6.8169,-1.94771 13.9586,-4.57383 21.4249,-10.09239 7.4663,-5.51856 14.3375,-12.4979 20.6135,-20.93805 6.3842,-8.54836 10.7722,-22.24387 15.6414,-36.960014 z M 1181.7294,84.05349 V 58.570753 h 47.557 V 84.05349 Z m 0,36.13215 V 95.42636 h 47.557 v 24.75928 z"
       style="fill:#0091cd;fill-opacity:1;stroke-width:3.8991" />
    <path
       id="ク"
       d="m 1083.734,54.160908 h 26.4634 c -0.4328,3.029794 -0.9739,3.324102 -1.6231,6.137484 -0.6493,2.813382 -1.2985,4.676824 -1.9478,7.273788 h 54.4801 v 25.67523 c -1.1903,14.06691 -3.0846,27.33601 -8.0622,38.15672 -4.9775,10.71247 -12.4273,19.32502 -19.4607,26.25025 -6.9253,6.92526 -13.6541,12.49793 -21.0121,16.71798 -7.2499,4.22007 -14.8922,7.78083 -21.2765,10.26959 -6.276,2.48876 -11.8285,3.34066 -15.8321,4.20631 -4.0037,0.97387 -6.0597,1.40669 -6.1679,1.29848 v -26.29429 c 0.1084,0.1082 2.2183,-0.37872 6.3301,-1.4608 4.2202,-1.19027 9.36,-3.24622 15.4196,-6.1678 6.0595,-2.92158 12.3896,-7.35806 18.9903,-13.30945 6.6006,-5.95139 11.9027,-12.82251 15.9064,-20.61342 4.1118,-7.79092 6.8711,-17.69184 8.2777,-29.702811 h -37.4936 c -6.2759,9.738631 -12.3896,17.637741 -18.341,23.697311 -5.9515,6.0596 -10.929,11.39314 -14.9327,14.20652 -3.8954,2.81338 -7.3556,4.23474 -7.5721,4.12653 v -30.94908 c 0.108,0 3.9174,-2.17881 6.1898,-4.126541 2.3805,-2.05594 5.0056,-5.43986 8.0355,-9.87633 3.0298,-4.436479 5.3324,-9.684518 8.1458,-15.744113 2.9214,-6.167792 3.86,-11.006795 5.4831,-19.771558 z"
       style="fill:#0091cd;fill-opacity:1;stroke-width:3.8991" />
    <path
       id="ダ"
       d="m 1016.6776,43.328727 -10.3164,10.316362 10.3164,10.316366 10.3164,-10.316366 z m 10.3164,10.316362 10.8322,10.316366 9.8005,-10.316366 -9.8005,-10.316362 z m -67.12487,0.983278 c -1.62311,8.764763 -3.89488,16.340001 -6.81649,22.724212 -2.81339,6.275999 -5.79007,11.52245 -8.92807,15.74252 -3.02979,4.22006 -5.7335,7.359771 -8.11405,9.415711 -2.27236,1.94773 -3.46424,2.92162 -3.57244,2.92162 v 31.32587 c 0.2164,0.1082 2.32718,-1.29966 6.33086,-4.22124 4.00366,-2.92158 9.14411,-7.35713 15.42015,-13.30851 6.27598,-6.05959 12.76732,-15.31165 19.47614,-27.75544 h 38.14227 c -0.3247,5.951359 -1.3515,12.06575 -3.0828,18.34177 h -39.76631 v 24.18299 h 30.02824 c -5.19391,6.81705 -10.87633,12.38947 -17.04412,16.71776 -6.16778,4.22005 -12.11918,7.52073 -17.85416,9.90128 -5.62675,2.38056 -10.27829,4.05739 -13.95734,5.03125 v 26.44778 c 0.21757,-0.0512 0.41857,-0.0987 0.64881,-0.15316 4.11188,-0.86566 9.46834,-2.54248 16.06897,-5.03124 6.60062,-2.48876 13.68891,-6.06043 21.26337,-10.71332 7.57451,-4.76109 15.03974,-10.76548 22.39774,-18.01536 7.3581,-7.35805 13.4725,-16.50213 18.3419,-27.43102 4.9775,-10.92891 8.1151,-23.80559 9.4136,-38.629961 V 67.288078 h -55.51086 c 0.108,-0.2164 0.43416,-1.569276 0.9752,-4.058039 0.54104,-2.596968 1.08099,-5.46367 1.62202,-8.601672 z"
       style="fill:#0091cd;fill-opacity:1;stroke-width:3.8991" />
    <path
       id="ロ"
       d="M 909.52417,184.04774 H 807.4309 V 65.236494 h 102.09327 z m -26.6189,-93.328501 h -49.01774 v 67.845741 h 49.01774 z"
       style="fill:#0091cd;fill-opacity:1;stroke-width:3.8991" />
    <path
       id="プ"
       d="m 780.1206,41.059931 c -5.51856,0 -10.17208,1.892802 -13.95936,5.680046 -3.78722,3.895452 -5.68001,8.603984 -5.68001,14.122537 0,0.537737 0.0234,1.064466 0.0585,1.58574 H 679.9492 v 25.970234 h 74.49943 c -0.54104,13.850492 -2.8128,25.266332 -6.81643,34.247512 -4.00367,8.87297 -9.19716,15.95922 -15.58134,21.26137 -6.27599,5.30214 -12.60637,9.19775 -18.99057,11.6865 -6.38422,2.38056 -13.90444,4.22038 -22.56099,5.51887 v 25.97023 c 0.108,0.1082 2.21694,-0.16275 6.32882,-0.81201 4.22008,-0.54105 9.63155,-1.8939 16.23217,-4.05804 6.60064,-2.05594 13.57889,-5.13862 20.93695,-9.25047 7.35812,-4.11187 14.33839,-9.84729 20.93901,-17.20537 6.60064,-7.46626 12.33605,-16.93431 17.20537,-28.40424 4.8693,-11.46995 7.30448,-25.15755 7.30405,-41.063967 v -5.821092 c 0.2242,0.0062 0.44801,0.01404 0.67501,0.01404 5.51856,0 10.17007,-1.894806 13.9573,-5.682058 3.89546,-3.787237 5.84326,-8.438755 5.84326,-13.957312 0,-5.518553 -1.9478,-10.172088 -5.84326,-13.959329 -3.78723,-3.895452 -8.43874,-5.843254 -13.9573,-5.843254 z m 0,10.874495 c 2.48876,0 4.59754,0.865915 6.32882,2.597228 1.73132,1.6231 2.59723,3.733893 2.59723,6.33086 0,2.488763 -0.86591,4.597532 -2.59723,6.328847 -1.73128,1.623106 -3.84006,2.436036 -6.32882,2.436036 -1.15281,0 -2.22132,-0.183375 -3.21181,-0.531941 l -1.01146,-0.421115 h -0.002 c -0.7553,-0.380552 -1.45678,-0.874735 -2.10559,-1.48298 -1.62307,-1.731315 -2.43401,-3.840084 -2.43401,-6.328847 0,-2.596967 0.81094,-4.70776 2.43401,-6.33086 1.73131,-1.731313 3.84213,-2.597228 6.33089,-2.597228 z"
       style="fill:#0091cd;fill-opacity:1;stroke-width:3.8991" />
    <path
       id="见"
       d="m 644.0489,165.79632 q 2.31088,0 3.4663,-1.29986 1.15542,-1.29986 1.58873,-5.19946 0.57769,-3.89959 1.01099,-12.42089 2.88857,2.4553 8.52133,4.76617 5.77714,2.31086 10.68774,3.61071 -1.15542,12.13206 -3.61072,18.63136 -2.4553,6.4993 -7.07702,9.09904 -4.47729,2.59972 -12.56535,2.59972 h -16.75377 q -9.67673,0 -14.73176,-2.45529 -5.05503,-2.31088 -7.07702,-7.65476 -2.02203,-5.34386 -2.02203,-15.16505 v -19.64235 h -13.86519 q -1.44427,12.70976 -5.77714,21.37551 -4.33288,8.52132 -14.44292,15.02061 -10.11005,6.49932 -28.16366,10.54334 -1.4443,-4.18845 -4.91059,-9.82119 -3.4663,-5.48829 -6.78818,-8.95459 14.44292,-2.59973 22.2421,-6.35489 7.79916,-3.75516 10.97658,-8.81018 3.17745,-5.05501 4.33287,-12.99861 H 552.48085 V 53.719347 h 96.91193 v 86.946313 h -22.38652 v 19.49792 q 0,3.75517 0.86657,4.76617 1.011,0.86657 4.62176,0.86657 z M 572.70095,71.917416 v 5.632734 h 55.31631 v -5.632734 z m 0,22.386503 v 5.632741 h 55.31631 v -5.632741 z m 0,22.530931 v 5.63275 h 55.31631 v -5.63275 z"
       style="fill:#0091cd;fill-opacity:1;stroke-width:3.8991" />
    <path
       id="星"
       d="m 522.21293,168.10913 v 18.29929 H 393.38218 v -18.29929 h 54.0165 v -6.64087 H 411.7247 v -13.57688 q -1.58872,1.7709 -4.76618,4.72239 -3.03299,-2.95149 -8.52132,-6.93602 -5.34387,-4.13209 -8.95459,-6.34572 6.78818,-5.16515 12.70978,-12.54387 6.06601,-7.37875 9.96558,-15.34778 H 406.8141 V 54.771616 h 100.66707 v 56.668764 h -86.22414 l 12.56531,3.68935 q -1.011,2.50879 -3.033,6.05059 h 16.60934 v -7.37876 h 21.80879 v 7.37876 h 43.61757 v 17.5614 h -43.61757 v 6.34573 h 36.82939 v 16.38081 h -36.82939 v 6.64087 z M 427.46747,70.857282 v 4.7224 h 58.20491 v -4.7224 z m 0,19.627463 v 4.869954 h 58.20491 v -4.869954 z m 19.93121,54.602705 v -6.34573 h -27.8748 l -5.19945,6.34573 z"
       style="fill:#0091cd;fill-opacity:1;stroke-width:3.8991" />
  </g>
</svg>
