<?xml version="1.0" encoding="UTF-8" standalone="no"?>
<svg
   xmlns:dc="http://purl.org/dc/elements/1.1/"
   xmlns:cc="http://creativecommons.org/ns#"
   xmlns:rdf="http://www.w3.org/1999/02/22-rdf-syntax-ns#"
   xmlns:svg="http://www.w3.org/2000/svg"
   xmlns="http://www.w3.org/2000/svg"
   width="1500"
   height="300"
   viewBox="0 0 396.87501 79.375002"
   version="1.1"
   id="svg5">
  <title
     id="title20">星見プロダクション Logo (Full Version)</title>
  <metadata
     id="metadata23">
    <rdf:RDF>
      <cc:Work
         rdf:about="">
        <dc:title>星見プロダクション Logo (Full Version)</dc:title>
        <dc:format>image/svg+xml</dc:format>
        <dc:type
           rdf:resource="http://purl.org/dc/dcmitype/StillImage" />
        <cc:license
           rdf:resource="http://creativecommons.org/licenses/by-nc/4.0/" />
        <dc:creator>
          <cc:Agent>
            <dc:title>765プロダクション星見支社</dc:title>
          </cc:Agent>
        </dc:creator>
        <dc:rights>
          <cc:Agent>
            <dc:title>© 2019 Project IDOLY PRIDE</dc:title>
          </cc:Agent>
        </dc:rights>
        <dc:publisher>
          <cc:Agent>
            <dc:title>765プロダクション星見支社</dc:title>
          </cc:Agent>
        </dc:publisher>
      </cc:Work>
      <cc:License
         rdf:about="http://creativecommons.org/licenses/by-nc/4.0/">
        <cc:permits
           rdf:resource="http://creativecommons.org/ns#Reproduction" />
        <cc:permits
           rdf:resource="http://creativecommons.org/ns#Distribution" />
        <cc:requires
           rdf:resource="http://creativecommons.org/ns#Notice" />
        <cc:requires
           rdf:resource="http://creativecommons.org/ns#Attribution" />
        <cc:prohibits
           rdf:resource="http://creativecommons.org/ns#CommercialUse" />
        <cc:permits
           rdf:resource="http://creativecommons.org/ns#DerivativeWorks" />
      </cc:License>
    </rdf:RDF>
  </metadata>
  <defs
     id="defs2" />
  <path
     id="Hoshimi_Production_logo"
     d="M 47.49271,20.505209 24.738542,38.496876 47.49271,56.488543 70.246877,38.496876 Z m 0,7.893574 c 1.574932,0 2.287394,4.270346 3.56154,5.196067 1.274146,0.925722 5.555843,0.283438 6.042525,1.781287 0.48668,1.497848 -3.354946,3.495127 -3.841626,4.992976 -0.486682,1.497848 1.447263,5.371568 0.173115,6.29729 -1.274146,0.925721 -4.360622,-2.110465 -5.935554,-2.110465 -1.574933,0 -4.661409,3.036186 -5.935555,2.110465 -1.274148,-0.925722 0.659797,-4.799442 0.173115,-6.29729 -0.48668,-1.497849 -4.328306,-3.495128 -3.841626,-4.992976 0.48668,-1.497849 4.768379,-0.855565 6.042525,-1.781287 1.274149,-0.925721 1.986608,-5.196067 3.561541,-5.196067 z m 0,-19.0060744 L 3.8364584,38.496876 47.49271,67.601043 91.148961,38.496876 Z m 0,5.4239584 L 80.168752,38.496876 47.49271,62.177085 14.816667,38.496876 Z"
     style="fill:#0091cd;fill-opacity:1" />
  <g
     id="Hoshimi_Production_name">
    <path
       id="ン "
       d="m 382.05834,31.220834 h 6.48229 c -1.38758,5.078579 -2.70853,9.503196 -5.0397,12.694651 -2.33114,3.191454 -4.75943,5.661363 -7.28485,7.409727 -2.49764,1.720612 -4.87043,2.941691 -7.11833,3.663239 -2.2479,0.721545 -4.09339,1.137822 -5.53648,1.248831 -1.41534,0.138758 -2.13688,0.194262 -2.16464,0.16651 v -6.785314 c 0.0278,0.02775 0.59666,0.01386 1.70675,-0.04163 1.11006,-0.08326 2.5254,-0.37465 4.24601,-0.874183 1.74836,-0.499531 3.58,-1.456968 5.49486,-2.872309 1.91487,-1.415341 3.67713,-3.205332 5.28672,-5.369973 1.63735,-2.19239 2.67854,-5.465308 3.92737,-9.239552 z M 361.39663,31.0109 v -6.669233 h 12.98784 V 31.0109 Z"
       style="fill:#0091cd;fill-opacity:1" />
    <path
       id="ョ"
       d="m 338.11721,46.380655 v -4.286964 h 12.89545 V 37.835418 H 337.60834 V 33.41604 h 18.14074 v 22.146461 h -18.14074 v -4.497916 h 13.40432 v -4.68393 z"
       style="fill:#0091cd;fill-opacity:1" />
    <path
       id="シ"
       d="m 327.66001,31.378142 6.37646,1.19e-4 c -1.38761,5.07858 -2.6869,9.742644 -5.01804,12.934099 -2.33116,3.191454 -4.75943,5.661363 -7.28485,7.409727 -2.49767,1.720612 -4.87045,2.941691 -7.11832,3.663239 -2.2479,0.721545 -4.0934,1.137822 -5.53649,1.248831 -1.41534,0.138758 -2.16466,0.16651 -2.16466,0.16651 V 49.54323 c 0,0 0.59669,-0.01066 1.70675,-0.06614 1.11006,-0.08326 2.52542,-0.161925 4.24603,-0.661459 1.74834,-0.49953 3.57997,-1.173051 5.49484,-2.588392 1.91487,-1.415341 3.67713,-3.205332 5.28672,-5.369973 1.63737,-2.19239 2.76275,-5.704875 4.01156,-9.479119 z m -20.7459,-0.42827 v -6.535547 h 12.19692 v 6.535547 z m 0,9.266796 v -6.35 h 12.19692 v 6.35 z"
       style="fill:#0091cd;fill-opacity:1" />
    <path
       id="ク"
       d="m 281.78126,23.283334 h 6.78704 c -0.111,0.77705 -0.24977,0.852531 -0.41627,1.574078 -0.16651,0.721547 -0.33303,1.199463 -0.49954,1.865505 h 13.97252 v 6.584916 c -0.30528,3.607734 -0.79111,7.010855 -2.06769,9.786036 -1.27659,2.747425 -3.18723,4.956281 -4.9911,6.732394 -1.77613,1.776116 -3.5019,3.205335 -5.38901,4.287653 -1.85936,1.08232 -3.81939,1.995543 -5.45677,2.633834 -1.60959,0.638292 -3.03363,0.856777 -4.06045,1.078791 -1.02682,0.249767 -1.55411,0.360773 -1.58187,0.333021 v -6.743685 c 0.0278,0.02775 0.56894,-0.09713 1.62349,-0.37465 1.08233,-0.305268 2.40053,-0.832554 3.95464,-1.581851 1.55409,-0.749297 3.17757,-1.887122 4.87043,-3.413472 1.69285,-1.526347 3.05271,-3.288585 4.07953,-5.286716 1.05455,-1.998128 1.76223,-4.537417 2.12299,-7.617865 h -9.61599 c -1.60959,2.497661 -3.17757,4.523542 -4.70392,6.077641 -1.52636,1.554101 -2.80295,2.921989 -3.82977,3.643537 -0.99904,0.721548 -1.8865,1.086086 -1.94201,1.058333 v -7.9375 c 0.0277,0 1.0047,-0.5588 1.5875,-1.058333 0.61052,-0.527286 1.28378,-1.395156 2.06084,-2.532978 0.77705,-1.137822 1.3676,-2.483784 2.08915,-4.037886 0.74927,-1.581851 0.98999,-2.822908 1.40626,-5.070803 z"
       style="fill:#0091cd;fill-opacity:1" />
    <path
       id="ダ"
       d="m 264.58334,20.505209 -2.64583,2.645833 2.64583,2.645834 2.64583,-2.645834 z m 2.64583,2.645833 2.77813,2.645834 2.51354,-2.645834 -2.51354,-2.645833 z m -17.21548,0.252181 c -0.41628,2.247895 -0.99892,4.190713 -1.74822,5.828069 -0.72155,1.609603 -1.48498,2.955158 -2.28978,4.037478 -0.77705,1.082318 -1.47047,1.887556 -2.08101,2.414842 -0.58279,0.499533 -0.88847,0.749308 -0.91622,0.749308 v 8.034134 c 0.0555,0.02775 0.59685,-0.333323 1.62367,-1.08262 1.02682,-0.7493 2.34519,-1.886881 3.9548,-3.413228 1.6096,-1.554102 3.27443,-3.926975 4.99504,-7.11843 h 9.78235 c -0.0833,1.526347 -0.34662,3.094501 -0.79065,4.704107 h -10.19886 v 6.202204 h 7.70134 c -1.33209,1.748364 -2.78946,3.177521 -4.37131,4.287594 -1.58185,1.08232 -3.1082,1.928842 -4.57905,2.539381 -1.44309,0.610539 -2.63607,1.040593 -3.57963,1.29036 v 6.783049 c 0.0558,-0.01312 0.10735,-0.0253 0.1664,-0.03928 1.05457,-0.222015 2.42834,-0.652068 4.1212,-1.29036 1.69286,-0.638291 3.51079,-1.554311 5.45341,-2.747637 1.94263,-1.221079 3.85723,-2.76102 5.74435,-4.62039 1.88712,-1.887122 3.45528,-4.232299 4.70412,-7.035228 1.27658,-2.80293 2.08129,-6.105409 2.41432,-9.907406 V 26.650054 H 255.8831 c 0.0277,-0.0555 0.11135,-0.402472 0.25011,-1.040764 0.13876,-0.666043 0.27724,-1.401265 0.416,-2.206067 z"
       style="fill:#0091cd;fill-opacity:1" />
    <path
       id="ロ"
       d="M 237.10174,56.595353 H 210.91792 V 26.123885 h 26.18382 z M 230.2748,32.659432 h -12.57156 v 17.400374 h 12.57156 z"
       style="fill:#0091cd;fill-opacity:1" />
    <path
       id="プ"
       d="m 203.91366,19.923332 c -1.41534,0 -2.60883,0.485446 -3.58015,1.456759 -0.97131,0.999065 -1.45675,2.20666 -1.45675,3.622001 0,0.137913 0.006,0.273003 0.015,0.406694 h -20.66902 v 6.660575 h 19.10684 c -0.13876,3.55223 -0.7214,6.480048 -1.74821,8.783444 -1.02682,2.275647 -2.35879,4.093057 -3.99614,5.452896 -1.6096,1.359837 -3.23315,2.358943 -4.8705,2.997235 -1.63736,0.610539 -3.56607,1.082397 -5.78621,1.415418 v 6.660573 c 0.0277,0.02775 0.56858,-0.04174 1.62315,-0.208256 1.08232,-0.138761 2.4702,-0.485728 4.16306,-1.040763 1.69286,-0.527283 3.48257,-1.317897 5.36969,-2.372466 1.88713,-1.054568 3.67736,-2.525527 5.37022,-4.412649 1.69286,-1.914872 3.16382,-4.343136 4.41265,-7.284826 1.24883,-2.941691 1.87338,-6.452145 1.87327,-10.531658 v -1.492933 c 0.0575,0.0016 0.1149,0.0036 0.17312,0.0036 1.41534,0 2.60831,-0.48596 3.57962,-1.457275 0.99907,-0.971311 1.49862,-2.164284 1.49862,-3.579626 0,-1.415341 -0.49955,-2.608831 -1.49862,-3.580143 -0.97131,-0.999065 -2.16428,-1.498617 -3.57962,-1.498617 z m 0,2.788977 c 0.63829,0 1.17913,0.222081 1.62315,0.66611 0.44403,0.416276 0.66611,0.95763 0.66611,1.623673 0,0.638292 -0.22208,1.179127 -0.66611,1.623157 -0.44402,0.416277 -0.98486,0.624769 -1.62315,0.624769 -0.29566,0 -0.5697,-0.04703 -0.82373,-0.136427 l -0.25941,-0.108003 h -5.3e-4 c -0.19371,-0.0976 -0.37362,-0.224343 -0.54002,-0.380339 -0.41627,-0.44403 -0.62425,-0.984865 -0.62425,-1.623157 0,-0.666043 0.20798,-1.207397 0.62425,-1.623673 0.44403,-0.444029 0.98539,-0.66611 1.62368,-0.66611 z"
       style="fill:#0091cd;fill-opacity:1" />
    <path
       id="见"
       d="m 169.01541,51.914421 q 0.59267,0 0.889,-0.333375 0.29633,-0.333375 0.40746,-1.3335 0.14816,-1.000125 0.25929,-3.185583 0.74083,0.629708 2.18546,1.222375 1.48166,0.592667 2.74108,0.926042 -0.29633,3.1115 -0.92604,4.778375 -0.62971,1.666875 -1.81504,2.333625 -1.14829,0.66675 -3.22263,0.66675 h -4.29683 q -2.48179,0 -3.77825,-0.629708 -1.29646,-0.592667 -1.81504,-1.963209 -0.51859,-1.370542 -0.51859,-3.889375 v -5.037667 h -3.556 q -0.37041,3.259667 -1.48166,5.482167 -1.11125,2.185458 -3.70417,3.852334 -2.59292,1.666875 -7.22312,2.704041 -0.37042,-1.074208 -1.25942,-2.518833 -0.889,-1.407584 -1.74096,-2.296584 3.70417,-0.66675 5.70442,-1.629833 2.00025,-0.963083 2.81516,-2.259542 0.81492,-1.296458 1.11125,-3.33375 h -4.25979 V 23.170087 h 24.85496 v 22.299084 h -5.74146 v 5.000625 q 0,0.963084 0.22225,1.222375 0.25929,0.22225 1.18534,0.22225 z M 150.71683,27.837338 v 1.444625 h 14.18695 v -1.444625 z m 0,5.741458 v 1.444625 h 14.18695 v -1.444625 z m 0,5.7785 v 1.444625 h 14.18695 v -1.444625 z"
       style="fill:#0091cd;fill-opacity:1" />
    <path
       id="星"
       d="m 137.76819,52.507586 v 4.693211 h -33.04117 v -4.693211 h 13.85359 v -1.703182 h -9.14929 v -3.482057 q -0.40746,0.454182 -1.22238,1.211149 -0.77787,-0.756967 -2.18546,-1.778876 -1.37054,-1.059756 -2.29658,-1.627484 1.74096,-1.3247 3.25967,-3.217121 1.55575,-1.892425 2.55587,-3.936241 H 108.1719 V 23.439962 h 25.81804 v 14.533812 h -22.11387 l 3.22262,0.946211 q -0.25929,0.643427 -0.77787,1.551789 h 4.25979 V 38.57935 h 5.59329 v 1.892424 h 11.18658 v 4.503968 H 124.1739 v 1.627484 h 9.44562 v 4.201178 h -9.44562 v 1.703182 z m -24.29933,-24.94214 v 1.211152 h 14.92779 v -1.211152 z m 0,5.033847 v 1.248997 h 14.92779 v -1.248997 z m 5.11175,14.003933 v -1.627484 h -7.14904 l -1.3335,1.627484 z"
       style="fill:#0091cd;fill-opacity:1" />
  </g>
</svg>
