<?xml version="1.0" encoding="UTF-8" standalone="no"?>
<!-- Created with Inkscape (http://www.inkscape.org/) -->

<svg
   width="1500"
   height="300"
   viewBox="0 0 396.87501 79.375002"
   version="1.1"
   id="svg5"
   xmlns="http://www.w3.org/2000/svg"
   xmlns:svg="http://www.w3.org/2000/svg">
  <defs
     id="defs2">
    <rect
       x="669"
       y="72"
       width="824"
       height="156"
       id="rect8483" />
    <rect
       x="396.66667"
       y="78"
       width="281.66667"
       height="142"
       id="rect24819" />
  </defs>
  <g
     id="layer1"
     style="display:inline">
    <path
       id="path55"
       style="display:inline;fill:#0091cd;fill-opacity:1;stroke-width:3.77953"
       d="m 179.5,35.5 -165,110 165,110 165,-110 z M 179.5,56 303,145.5 179.5,235 56,145.5 Z"
       transform="scale(0.26458334)" />
    <path
       id="path9111"
       style="display:inline;fill:#0091cd;fill-opacity:1;stroke-width:3.77953"
       d="m 179.5,77.5 -86,68 86,68 86,-68 z m 0,29.83398 c 5.9525,0 8.64527,16.13989 13.46094,19.63868 4.81567,3.49879 20.99846,1.07126 22.83789,6.73242 1.83942,5.66116 -12.68011,13.20993 -14.51953,18.87109 -1.83943,5.66116 5.46997,20.30199 0.65429,23.80078 -4.81567,3.49879 -16.48109,-7.97656 -22.43359,-7.97656 -5.9525,0 -17.61792,11.47535 -22.43359,7.97656 -4.81568,-3.49879 2.49372,-18.13962 0.65429,-23.80078 -1.83942,-5.66116 -16.35895,-13.20993 -14.51953,-18.87109 1.83942,-5.66116 18.02222,-3.23363 22.83789,-6.73242 4.81568,-3.49879 7.50844,-19.63868 13.46094,-19.63868 z"
       transform="scale(0.26458334)" />
  </g>
  <g
     id="layer2"
     style="display:inline">
    <g
       aria-label="プロダクション"
       transform="scale(0.26458334)"
       id="text8481"
       style="font-weight:bold;font-size:157.333px;line-height:1;font-family:'Corporate Logo ver2';-inkscape-font-specification:'Corporate Logo ver2 Bold';white-space:pre;shape-inside:url(#rect8483)">
      <path
         id="path29870"
         style="display:inline;fill:#0091cd;fill-opacity:1"
         d="m 770.69727,75.300781 c -5.34932,0 -9.86015,1.834757 -13.53125,5.50586 -3.6711,3.775992 -5.50586,8.340131 -5.50586,13.689453 0,0.521244 0.0218,1.031822 0.0566,1.537109 h -78.11914 v 25.173827 h 72.21484 c -0.52445,13.42575 -2.72654,24.49152 -6.60742,33.19727 -3.88088,8.60087 -8.91509,15.46982 -15.10352,20.60937 -6.08354,5.13954 -12.21977,8.91569 -18.4082,11.32813 -6.18843,2.30755 -13.47805,4.09095 -21.86914,5.34961 v 25.17382 c 0.10489,0.10489 2.14899,-0.15777 6.13476,-0.78711 4.09066,-0.52445 9.33617,-1.83582 15.73438,-3.93359 6.39821,-1.99288 13.16249,-4.98103 20.29492,-8.9668 7.13243,-3.98577 13.89867,-9.5453 20.29688,-16.67773 6.39821,-7.23731 11.95774,-16.415 16.67773,-27.5332 4.71999,-11.1182 7.08051,-24.38606 7.08008,-39.80469 v -5.64258 c 0.2172,0.006 0.43426,0.0137 0.6543,0.0137 5.34932,0 9.85819,-1.8367 13.52929,-5.50781 3.77599,-3.6711 5.66407,-8.179973 5.66406,-13.529296 0,-5.349322 -1.88807,-9.860147 -5.66406,-13.53125 -3.6711,-3.775991 -8.17997,-5.664063 -13.52929,-5.664063 z m 0,10.541016 c 2.41244,0 4.45655,0.83936 6.13476,2.517578 1.67822,1.57333 2.51758,3.619392 2.51758,6.136719 0,2.41244 -0.83936,4.456544 -2.51758,6.134766 -1.67821,1.57333 -3.72232,2.36133 -6.13476,2.36133 -1.11745,0 -2.1532,-0.17775 -3.11329,-0.51563 l -0.98046,-0.4082 h -0.002 c -0.73213,-0.36888 -1.41211,-0.84791 -2.04101,-1.4375 -1.57333,-1.678222 -2.35938,-3.722326 -2.35938,-6.134766 0,-2.517328 0.78605,-4.563389 2.35938,-6.136719 1.67822,-1.678218 3.72428,-2.517578 6.13672,-2.517578 z" />
      <path
         d="M 896.13254,213.90369 H 797.17009 V 98.73594 h 98.96245 z m -25.80261,-90.46647 h -47.51456 v 65.76519 h 47.51456 z"
         id="path18907"
         style="fill:#0091cd;fill-opacity:1" />
      <path
         id="path18909"
         d="m 1000,77.5 -10,10 10,10 10,-10 z m 10,10 10.5,10 9.5,-10 -9.5,-10 z m -65.06641,0.953125 c -1.57333,8.495981 -3.77543,15.838915 -6.60742,22.027345 -2.72711,6.08354 -5.61252,11.1691 -8.65429,15.25976 -2.93689,4.09065 -5.55769,7.13407 -7.86524,9.12696 -2.20267,1.888 -3.358,2.83203 -3.46289,2.83203 v 30.36523 c 0.20978,0.10489 2.25584,-1.2598 6.13672,-4.09179 3.88088,-2.832 8.86372,-7.13152 14.94726,-12.90039 6.08355,-5.87377 12.37582,-14.84211 18.87891,-26.9043 h 36.97266 c -0.31467,5.76887 -1.31007,11.69575 -2.98828,17.7793 h -38.54688 v 23.4414 h 29.10742 c -5.03466,6.60799 -10.54283,12.00953 -16.52148,16.20508 -5.97865,4.09066 -11.74754,7.29011 -17.30664,9.59766 -5.45421,2.30755 -9.96309,3.93295 -13.5293,4.87695 v 25.63672 c 0.21101,-0.0496 0.40573,-0.0956 0.62891,-0.14844 3.98577,-0.83911 9.17796,-2.46451 15.57617,-4.87695 6.39821,-2.41244 13.26912,-5.87456 20.61133,-10.38477 7.34221,-4.6151 14.5785,-10.43535 21.71093,-17.46289 7.13242,-7.13243 13.05932,-15.99609 17.77932,-26.58984 4.8249,-10.59375 7.8663,-23.07556 9.125,-37.44531 v -24.07227 h -53.80861 c 0.10489,-0.20977 0.42086,-1.521154 0.94531,-3.933594 0.52444,-2.517329 1.04782,-5.29612 1.57227,-8.337891 z"
         style="display:inline;fill:#0091cd;fill-opacity:1" />
      <path
         d="m 1065,88 h 25.6518 c -0.4195,2.936883 -0.944,3.222165 -1.5733,5.94927 -0.6293,2.727107 -1.2587,4.533403 -1.888,7.05073 H 1140 v 24.88787 c -1.1538,13.63553 -2.99,26.49772 -7.8149,36.98659 -4.8249,10.38397 -12.0462,18.7324 -18.864,25.44527 -6.7129,6.71288 -13.2355,12.11465 -20.3679,16.2053 -7.0275,4.09066 -14.4355,7.54221 -20.624,9.95465 -6.0835,2.41244 -11.4657,3.23821 -15.3466,4.07732 -3.8809,0.944 -5.8738,1.36355 -5.9787,1.25866 v -25.48794 c 0.1049,0.10489 2.1503,-0.36711 6.136,-1.416 4.0907,-1.15377 9.0729,-3.14666 14.9467,-5.97865 5.8737,-2.83199 12.0097,-7.13243 18.4079,-12.90131 6.3982,-5.76887 11.5378,-12.4293 15.4187,-19.98129 3.9857,-7.55198 6.6604,-17.14929 8.0239,-28.79193 h -36.3439 c -6.0835,9.43998 -12.0097,17.09685 -17.7786,22.97061 -5.7689,5.87377 -10.5938,11.04374 -14.4747,13.77085 -3.7759,2.72711 -7.1301,4.10489 -7.3399,4 v -30 c 0.1049,0 3.7973,-2.112 6,-4 2.3075,-1.99289 4.8521,-5.27303 7.789,-9.57346 2.9369,-4.30043 5.1689,-9.38753 7.896,-15.2613 2.8319,-5.97865 3.7417,-10.669259 5.315,-19.16524 z"
         id="path18911"
         style="fill:#0091cd;fill-opacity:1" />
      <path
         d="m 1238.4,118.59455 24.1,4.5e-4 c -5.2445,19.19463 -10.1552,36.82259 -18.9658,48.88478 -8.8107,12.06219 -17.9884,21.39728 -27.5333,28.00527 -9.44,6.5031 -18.408,11.1182 -26.9039,13.84531 -8.496,2.7271 -15.4711,4.30043 -20.9253,4.71999 -5.3493,0.52444 -8.1814,0.62933 -8.1814,0.62933 V 187.25 c 0,0 2.2552,-0.0403 6.4507,-0.25 4.1955,-0.31467 9.5449,-0.612 16.048,-2.5 6.6079,-1.88799 13.5306,-4.43358 20.7679,-9.7829 7.2373,-5.34932 13.8978,-12.11464 19.9813,-20.29596 6.1885,-8.2862 10.4419,-21.56173 15.1618,-35.82659 z m -78.4097,-1.61866 V 92.27461 h 46.0986 v 24.70128 z m 0,35.02411 v -24 h 46.0986 v 24 z"
         id="path18913"
         style="fill:#0091cd;fill-opacity:1" />
      <path
         d="m 1277.9233,175.29696 v -16.2027 h 48.7387 V 143 H 1276 v -16.70316 h 68.5634 V 210 H 1276 v -17 h 50.662 v -17.70304 z"
         style="font-size:130.667px;fill:#0091cd;fill-opacity:1"
         id="path18915" />
      <path
         d="m 1444,118 h 24.5 c -5.2444,19.19463 -10.237,35.91759 -19.0477,47.97978 -8.8106,12.06219 -17.9884,21.39728 -27.5333,28.00527 -9.4399,6.5031 -18.4079,11.1182 -26.9039,13.84531 -8.496,2.7271 -15.4711,4.30043 -20.9253,4.71999 -5.3493,0.52444 -8.0764,0.73422 -8.1813,0.62933 V 187.5344 c 0.1049,0.10489 2.2551,0.0524 6.4507,-0.15733 4.1955,-0.31467 9.5448,-1.416 16.0479,-3.304 6.608,-1.88799 13.5307,-5.50665 20.768,-10.85597 7.2373,-5.34932 13.8978,-12.11464 19.9813,-20.29596 C 1435.3448,144.63494 1439.28,132.26486 1444,118 Z m -78.0915,-0.79345 V 92 h 49.0879 v 25.20655 z"
         id="path18917"
         style="fill:#0091cd;fill-opacity:1" />
    </g>
    <g
       aria-label="星見"
       transform="matrix(0.26458334,0,0,0.26458334,-2.2985304,1.0615035)"
       id="text24817"
       style="font-size:140px;line-height:1;white-space:pre;shape-inside:url(#rect24819)">
      <path
         d="M 529.38602,194.44188 V 212.18 h -124.88 v -17.73812 h 52.36 v -6.43722 h -34.58 v -13.16053 q -1.54,1.71659 -4.62,4.57757 -2.94,-2.86098 -8.26,-6.72331 -5.18,-4.00538 -8.68,-6.15112 6.58,-5.00674 12.32,-12.1592 5.88,-7.15247 9.66,-14.87713 h -5.18 V 84.58 h 97.58 v 54.93094 h -83.58 l 12.18,3.57623 q -0.98,2.43185 -2.94,5.86503 h 16.1 v -7.15247 h 21.14 v 7.15247 h 42.28 v 17.02287 h -42.28 v 6.15112 h 35.7 v 15.87847 h -35.7 v 6.43722 z m -91.84,-94.2695 v 4.57758 h 56.42 v -4.57758 z m 0,19.02556 v 4.72062 h 56.42 v -4.72062 z m 19.32,52.92825 v -6.15112 h -27.02 l -5.04,6.15112 z"
         style="font-weight:bold;font-family:'Corporate Logo ver2';-inkscape-font-specification:'Corporate Logo ver2 Bold';fill:#0091cd;fill-opacity:1;stroke-width:1.01084"
         id="path30125" />
      <path
         d="m 647.48574,192.2 q 2.24,0 3.36,-1.26 1.12,-1.26 1.54,-5.04 0.56,-3.78 0.98,-12.04 2.8,2.38 8.26,4.62 5.6,2.24 10.36,3.5 -1.12,11.76 -3.5,18.06 -2.38,6.3 -6.86,8.82 -4.34,2.52 -12.18,2.52 h -16.24 q -9.38,0 -14.28,-2.38 -4.9,-2.24 -6.86,-7.42 -1.96,-5.18 -1.96,-14.7 v -19.04 h -13.44 q -1.4,12.32 -5.6,20.72 -4.2,8.26 -14,14.56 -9.8,6.3 -27.3,10.22 -1.4,-4.06 -4.76,-9.52 -3.36,-5.32 -6.58,-8.68 14,-2.52 21.56,-6.16 7.56,-3.64 10.64,-8.54 3.08,-4.9 4.2,-12.6 h -16.1 V 83.56 h 93.94 v 84.28 h -21.7 v 18.9 q 0,3.64 0.84,4.62 0.98,0.84 4.48,0.84 z m -69.16,-91 v 5.46 h 53.62 v -5.46 z m 0,21.7 v 5.46 h 53.62 v -5.46 z m 0,21.84 v 5.46 h 53.62 v -5.46 z"
         style="font-weight:bold;font-family:'Corporate Logo ver2';-inkscape-font-specification:'Corporate Logo ver2 Bold';fill:#0091cd;fill-opacity:1"
         id="path30127" />
    </g>
  </g>
</svg>
