<?xml version="1.0" encoding="UTF-8" standalone="no"?>
<svg
   xmlns:dc="http://purl.org/dc/elements/1.1/"
   xmlns:cc="http://creativecommons.org/ns#"
   xmlns:rdf="http://www.w3.org/1999/02/22-rdf-syntax-ns#"
   xmlns:svg="http://www.w3.org/2000/svg"
   xmlns="http://www.w3.org/2000/svg"
   width="300"
   height="200"
   version="1.1"
   id="svg5">
  <title
     id="title8">星見プロダクション Logo</title>
  <metadata
     id="metadata23">
    <rdf:RDF>
      <cc:Work
         rdf:about="">
        <dc:title>星見プロダクション Logo</dc:title>
        <dc:format>image/svg+xml</dc:format>
        <dc:type
           rdf:resource="http://purl.org/dc/dcmitype/StillImage" />
        <cc:license
           rdf:resource="http://creativecommons.org/licenses/by-nc/4.0/" />
        <dc:creator>
          <cc:Agent>
            <dc:title>765プロダクション星見支社</dc:title>
          </cc:Agent>
        </dc:creator>
        <dc:rights>
          <cc:Agent>
            <dc:title>© 2019 Project IDOLY PRIDE</dc:title>
          </cc:Agent>
        </dc:rights>
        <dc:publisher>
          <cc:Agent>
            <dc:title>765プロダクション星見支社</dc:title>
          </cc:Agent>
        </dc:publisher>
      </cc:Work>
      <cc:License
         rdf:about="http://creativecommons.org/licenses/by-nc/4.0/">
        <cc:permits
           rdf:resource="http://creativecommons.org/ns#Reproduction" />
        <cc:permits
           rdf:resource="http://creativecommons.org/ns#Distribution" />
        <cc:requires
           rdf:resource="http://creativecommons.org/ns#Notice" />
        <cc:requires
           rdf:resource="http://creativecommons.org/ns#Attribution" />
        <cc:prohibits
           rdf:resource="http://creativecommons.org/ns#CommercialUse" />
        <cc:permits
           rdf:resource="http://creativecommons.org/ns#DerivativeWorks" />
      </cc:License>
    </rdf:RDF>
  </metadata>
  <defs
     id="defs2" />
  <path
     id="Hoshimi_Production_logo"
     d="M 150,38.181817 71.818182,100 150,161.81818 228.18182,100 Z m 0,27.121799 c 5.41136,0 7.85934,14.672628 12.23722,17.853344 4.37788,3.180719 19.08951,0.973874 20.76172,6.120385 1.6722,5.14651 -11.52738,12.009025 -13.19958,17.155535 -1.67221,5.14651 4.9727,18.45636 0.59481,21.63707 -4.37788,3.18072 -14.98281,-7.25141 -20.39417,-7.25141 -5.41136,0 -16.01629,10.43213 -20.39417,7.25141 -4.37789,-3.18071 2.26702,-16.49056 0.59481,-21.63707 -1.6722,-5.14651 -14.87178,-12.009025 -13.19958,-17.155535 1.6722,-5.146511 16.38384,-2.939666 20.76172,-6.120385 C 142.14067,79.976244 144.58864,65.303616 150,65.303616 Z M 150,0 0,100 150,199.99999 300,100 Z M 150,18.636364 262.27273,100 150,181.36364 37.727274,100 Z"
     style="fill:#0091cd;fill-opacity:1;stroke-width:3.43594" />
</svg>
