<?xml version="1.0" encoding="UTF-8" standalone="no"?>
<svg
   width="1100"
   height="140"
   version="1.1"
   id="svg147306"
   xmlns="http://www.w3.org/2000/svg"
   xmlns:svg="http://www.w3.org/2000/svg">
  <defs
     id="logo" />
  <g
     id="logo"
     transform="scale(10)">
    <title
       id="logo">Layer 1</title>
    <path
       id="svg_1"
       d="m 92.4,0.2 h -1.2 v 2.5 h 1.2 c 2.4,0 4.2,1.8 4.2,4.2 0,2.4 -1.8,4.3 -4.2,4.3 h -1.2 v 2.5 h 1.2 c 3.7,0 6.6,-3 6.6,-6.8 C 99,3.2 96.1,0.2 92.4,0.2 Z M 23.4,0 c -3.8,0 -6.8,3.1 -6.8,7 0,3.9 3,7 6.8,7 3.8,0 6.8,-3.1 6.8,-7 0,-3.9 -3.1,-7 -6.8,-7 z m 0,11.5 C 21,11.5 19,9.5 19,7 c 0,-2.5 1.9,-4.5 4.3,-4.5 2.4,0 4.3,2 4.3,4.5 0.1,2.5 -1.8,4.5 -4.2,4.5 z m 61.5,2.3 h 2.5 V 0.2 H 84.9 Z M 0,13.8 H 2.5 V 0.2 H 0 Z m 102.5,0 h 7.5 v -2.5 h -7.5 z m 0,-5.5 H 110 V 5.7 h -7.5 z m 0,-8.1 V 2.7 H 110 V 0.2 Z M 81.3,4 c 0,-2.1 -1.7,-3.8 -3.7,-3.8 h -6.8 v 2.5 h 6.8 c 0.7,0 1.2,0.6 1.2,1.3 0,0.7 -0.6,1.3 -1.2,1.3 H 73 l 5.5,8.5 h 3 L 77.6,7.9 C 79.7,7.8 81.3,6.1 81.3,4 Z M 64,0.2 H 59.3 V 2.7 H 64 c 0.7,0 1.3,0.6 1.3,1.3 0,0.7 -0.6,1.3 -1.3,1.3 h -4.7 v 8.5 h 2.5 v -6 H 64 C 66.1,7.8 67.8,6.1 67.8,4 67.8,1.9 66.1,0.2 64,0.2 Z M 7.5,0.2 H 6.3 v 2.5 h 1.2 c 2.4,0 4.2,1.8 4.2,4.2 0,2.4 -1.8,4.3 -4.2,4.3 H 6.3 v 2.5 h 1.2 c 3.7,0 6.6,-3 6.6,-6.8 C 14.2,3.2 11.3,0.2 7.5,0.2 Z m 63.3,13.6 h 2.5 v -6 H 70.8 Z M 46.5,5 43.4,0.2 h -3 l 4.9,7.5 v 6.1 h 2.5 V 7.7 l 4.9,-7.5 h -3 z M 36.1,0.2 h -2.5 v 13.6 h 7.2 v -2.5 h -4.7 z"
       fill="#1428ff"
       fill-rule="evenodd" />
  </g>
</svg>
