<?xml version="1.0" encoding="UTF-8" standalone="no"?>
<svg
   xmlns:dc="http://purl.org/dc/elements/1.1/"
   xmlns:cc="http://creativecommons.org/ns#"
   xmlns:rdf="http://www.w3.org/1999/02/22-rdf-syntax-ns#"
   xmlns:svg="http://www.w3.org/2000/svg"
   xmlns="http://www.w3.org/2000/svg"
   width="298"
   height="247"
   version="1.1"
   id="svg147306">
  <title
     id="title18">IDOLY PRIDE Logo (Full black Version)</title>
  <metadata
     id="metadata11">
    <rdf:RDF>
      <cc:Work
         rdf:about="">
        <dc:title>IDOLY PRIDE Logo (Full black Version)</dc:title>
        <dc:format>image/svg+xml</dc:format>
        <dc:type
           rdf:resource="http://purl.org/dc/dcmitype/StillImage" />
        <cc:license
           rdf:resource="http://creativecommons.org/licenses/by-nc/4.0/" />
        <dc:creator>
          <cc:Agent>
            <dc:title>765プロダクション星見支社</dc:title>
          </cc:Agent>
        </dc:creator>
        <dc:rights>
          <cc:Agent>
            <dc:title>© 2019 Project IDOLY PRIDE</dc:title>
          </cc:Agent>
        </dc:rights>
        <dc:publisher>
          <cc:Agent>
            <dc:title>765プロダクション星見支社</dc:title>
          </cc:Agent>
        </dc:publisher>
      </cc:Work>
      <cc:License
         rdf:about="http://creativecommons.org/licenses/by-nc/4.0/">
        <cc:permits
           rdf:resource="http://creativecommons.org/ns#Reproduction" />
        <cc:permits
           rdf:resource="http://creativecommons.org/ns#Distribution" />
        <cc:requires
           rdf:resource="http://creativecommons.org/ns#Notice" />
        <cc:requires
           rdf:resource="http://creativecommons.org/ns#Attribution" />
        <cc:prohibits
           rdf:resource="http://creativecommons.org/ns#CommercialUse" />
        <cc:permits
           rdf:resource="http://creativecommons.org/ns#DerivativeWorks" />
      </cc:License>
    </rdf:RDF>
  </metadata>
  <defs
     id="defs2" />
  <g
     id="idoly-pride-logo">
    <path
       id="I_1"
       d="M 0,76.903224 H 14.136623 V 0 H 0 Z"
       style="fill:#000000;fill-opacity:1" />
    <path
       id="D_1"
       d="M 42.78558,0 H 36 v 14.136622 h 6.78558 c 13.571157,0 23.749525,10.178368 23.749525,23.749526 0,13.571157 -10.178368,24.314989 -23.749525,24.314989 H 36 V 76.33776 h 6.78558 c 20.9222,0 37.320682,-16.963948 37.320682,-38.451612 C 80.671726,16.963946 64.273246,0 42.78558,0 Z"
       style="fill:#000000;fill-opacity:1" />
    <path
       id="O"
       d="M 132.45161,0 C 110.96395,0 94,17.529412 94,39.582542 c 0,22.05313 16.96395,39.582542 38.45161,39.582542 21.48767,0 38.45161,-17.529412 38.45161,-39.582542 C 170.90322,17.529412 153.37381,0 132.45161,0 Z m -0.56546,14.136623 c 13.57116,0 24.31498,11.309297 24.31498,25.445919 0.56547,14.136622 -10.17836,25.44592 -23.74952,25.44592 -13.57116,0 -24.88046,-11.309298 -24.88046,-25.44592 0,-14.136622 10.74384,-25.445919 24.315,-25.445919 z"
       style="fill:#000000;fill-opacity:1" />
    <path
       id="L"
       d="M 204.63662,0 H 190.5 v 76.903224 h 40.71347 V 62.766603 h -26.57685 z"
       style="fill:#000000;fill-opacity:1" />
    <path
       id="Y"
       d="M 262.89335,27.142314 245.36394,0 H 228.4 l 27.70777,42.409866 v 34.493358 h 14.13662 V 42.409866 L 297.95218,0 h -16.96395 z"
       style="fill:#000000;fill-opacity:1" />
    <path
       id="P"
       d="M 26.264523,106.5 H 0 v 13.9706 h 26.264523 c 3.911702,0 7.264666,3.35328 7.264666,7.26434 0,3.91152 -3.352964,7.26481 -7.264666,7.26481 H 0 V 182.5 h 13.970479 v -33.52965 h 12.294044 c 11.735201,0 21.235144,-9.50027 21.235144,-21.23541 0,-11.73469 -9.499943,-21.23494 -21.235144,-21.23494 z"
       style="fill:#000000;fill-opacity:1" />
    <path
       id="R"
       d="m 64.5,106.5 v 13.9706 h 38.00015 c 3.91077,0 6.7055,3.35328 6.7055,7.26434 0,3.91152 -3.35327,7.26481 -6.7055,7.26481 H 76.793941 L 107.52902,182.5 h 16.76428 l -21.79315,-32.97112 c 11.73437,-0.55853 20.67609,-10.0588 20.67609,-21.79394 0,-11.73469 -9.50025,-21.23494 -20.67609,-21.23494 z m 0,42.47035 V 182.5 h 13.970469 v -33.52965 z"
       style="fill:#000000;fill-opacity:1" />
    <path
       id="I_2"
       d="m 145.3,182 h 13.97061 V 106 H 145.3 Z"
       style="fill:#000000;fill-opacity:1" />
    <path
       id="D_2"
       d="M 188.25524,106.5 H 181.5 v 14.07423 h 6.75524 c 13.51154,0 23.64492,10.1334 23.64492,23.6444 0,13.51106 -10.13338,24.20714 -23.64492,24.20714 H 181.5 V 182.5 h 6.75524 c 20.83048,0 37.15645,-16.88865 37.15645,-38.28137 0,-20.82998 -16.32597,-37.71863 -37.15645,-37.71863 z"
       style="fill:#000000;fill-opacity:1" />
    <path
       id="E"
       d="m 245.5,106 v 13.97061 h 41.91174 V 106 Z m 0,30.73492 v 14.52912 h 41.91174 v -14.52912 z m 0,31.29447 V 182 h 41.91174 v -13.97061 z"
       style="fill:#000000;fill-opacity:1" />
  </g>
  <g
     id="idoly-pride-logo-kana">
    <path
       id="ア"
       d="m 0,211.50233 v 5.80464 h 12.008242 c 2.32576,0 3.115459,2.15684 3.115459,4.70236 l 5.890761,0.0301 c 0,-5.45984 -1.144727,-9.01996 -6.004122,-10.53633 z m 5.7031467,8.00519 v 11.30878 c -0.011304,4.41457 -2.0601113,5.86338 -5.20280254,9.00621 l 4.50309744,3.50208 c 1.9384977,-1.96952 6.2993434,-6.3855 6.3051114,-10.50699 v -13.31008 z"
       style="fill:#000000;fill-opacity:1" />
    <path
       id="イ-1"
       d="m 53.37073,209.80153 -19.847663,15.22941 3.045081,3.96928 7.262819,-5.57205 v 19.39592 h 5.003469 v -23.23662 l 7.581381,-5.81592 z"
       style="fill:#000000;fill-opacity:1" />
    <path
       id="ド-1"
       d="m 80.855692,209.60148 v 7.50623 h 2.401634 v -7.50623 z m 3.102527,0 v 7.50623 h 2.401236 v -7.50623 z m -12.108748,2.00129 8.13e-4,31.52177 h 5.403048 l -2e-4,-15.40982 c 2.849205,2.96211 8.305837,6.60366 8.305837,6.60366 l 3.101729,-4.20266 c 0,0 -11.77546,-8.55558 -11.407344,-11.30797 v -7.20498 z"
       style="fill:#000000;fill-opacity:1" />
    <path
       id="リ"
       d="m 104.57179,209.80153 v 17.01217 h 5.50414 v -17.01217 z m 10.70701,1.7008 v 14.31034 c -0.02,4.4878 -5.84631,11.59447 -9.70598,15.31138 l 4.50311,3.20157 c 4.20031,-4.2713 10.80271,-12.57564 10.80826,-17.51192 v -15.31137 z"
       style="fill:#000000;fill-opacity:1" />
    <path
       id="ー"
       d="m 135.89351,224.56177 h 16.41123 v 5.50412 h -16.41123 z"
       style="fill:#000000;fill-opacity:1" />
    <path
       id="プ"
       d="m 183.12597,208.5 c -2.56905,1.7e-4 -4.72074,1.94653 -4.97757,4.50311 h -12.43436 v 5.90464 h 12.4083 v 8.90622 c 0.0233,3.58738 -7.30311,13.70627 -9.80724,16.21039 l 4.30386,2.80307 c 2.93316,-2.93316 10.72561,-13.34963 10.70627,-18.01244 v -10.31176 c 2.68394,-0.10752 4.80439,-2.31423 4.80436,-4.99961 0,-2.76342 -2.2402,-5.00362 -5.00362,-5.00362 z m -0.0501,3.00233 c 0.0167,-2e-4 0.0334,-2e-4 0.0501,0 1.10535,0 2.00129,0.89592 2.00129,2.00129 0,1.10538 -0.89594,2.0013 -2.00129,2.0013 -1.10537,0 -2.00131,-0.89592 -2.00131,-2.0013 -2.7e-4,-1.08683 0.86618,-1.97484 1.95267,-2.00129 z"
       style="fill:#000000;fill-opacity:1" />
    <path
       id="ラ"
       d="m 202.94043,209.80153 v 5.50414 h 15.21012 v -5.50414 z m -1.30153,8.00594 v 5.9039 h 11.2068 v 3.10233 c 0.0224,3.47409 -4.66212,11.32873 -8.70498,16.51089 l 4.00258,3.20239 c 4.60092,-5.03978 10.02571,-14.01161 10.00725,-18.71301 v -10.0065 z"
       style="fill:#000000;fill-opacity:1" />
    <path
       id="イ-2"
       d="m 253.70832,209.80153 -19.84709,15.22941 3.04496,3.96928 7.26281,-5.57205 v 19.39592 h 5.00362 v -23.23662 l 7.58137,-5.81592 z"
       style="fill:#000000;fill-opacity:1" />
    <path
       id="ド-2"
       d="m 282.69489,209.60159 v 7.50532 h 2.301 v -7.50554 z m 3.10157,-1.9e-4 v 7.50554 h 2.4018 v -7.50554 z m -12.107,2.0014 v 31.52176 h 5.40334 v -15.40982 c 2.84928,2.96211 8.30605,6.60367 8.30605,6.60367 L 290.5,230.11452 c 0,0 -11.77657,-8.55438 -11.40801,-11.30677 v -7.20498 z"
       style="fill:#000000;fill-opacity:1" />
  </g>
</svg>
