<?xml version="1.0" encoding="UTF-8" standalone="no"?>
<svg
   xmlns:dc="http://purl.org/dc/elements/1.1/"
   xmlns:cc="http://creativecommons.org/ns#"
   xmlns:rdf="http://www.w3.org/1999/02/22-rdf-syntax-ns#"
   xmlns:svg="http://www.w3.org/2000/svg"
   xmlns="http://www.w3.org/2000/svg"
   width="494"
   height="613"
   version="1.1"
   id="svg5">
  <title
     id="title38">LizNoir Logo (Full Version)</title>
  <metadata
     id="metadata92">
    <rdf:RDF>
      <cc:Work
         rdf:about="">
        <dc:title>LizNoir Logo (Full Version)</dc:title>
        <dc:format>image/svg+xml</dc:format>
        <dc:type
           rdf:resource="http://purl.org/dc/dcmitype/StillImage" />
        <cc:license
           rdf:resource="http://creativecommons.org/licenses/by-nc/4.0/" />
        <dc:creator>
          <cc:Agent>
            <dc:title>765プロダクション星見支社</dc:title>
          </cc:Agent>
        </dc:creator>
        <dc:rights>
          <cc:Agent>
            <dc:title>© 2019 Project IDOLY PRIDE</dc:title>
          </cc:Agent>
        </dc:rights>
        <dc:publisher>
          <cc:Agent>
            <dc:title>765プロダクション星見支社</dc:title>
          </cc:Agent>
        </dc:publisher>
      </cc:Work>
      <cc:License
         rdf:about="http://creativecommons.org/licenses/by-nc/4.0/">
        <cc:permits
           rdf:resource="http://creativecommons.org/ns#Reproduction" />
        <cc:permits
           rdf:resource="http://creativecommons.org/ns#Distribution" />
        <cc:requires
           rdf:resource="http://creativecommons.org/ns#Notice" />
        <cc:requires
           rdf:resource="http://creativecommons.org/ns#Attribution" />
        <cc:prohibits
           rdf:resource="http://creativecommons.org/ns#CommercialUse" />
        <cc:permits
           rdf:resource="http://creativecommons.org/ns#DerivativeWorks" />
      </cc:License>
    </rdf:RDF>
  </metadata>
  <defs
     id="defs2" />
  <g
     id="LizNoir_name">
    <g
       id="LizNoir_name_L">
      <path
         id="LizNoir_name_L_1"
         d="m 74.434629,517 h 44.000001 c 0,0 -17.1564,18.05276 -18.476875,40.08536 -1.765808,29.46321 4.396135,39.0894 10.804265,55.90034 C 102.12372,603.13239 92.956218,580.042 92.5,565 91.680471,537.97925 97.608995,527.49109 97.608995,527.49109 90.543441,522.41957 82.780111,519.56558 74.434629,517 Z"
         style="fill:#2c2839;fill-opacity:1" />
      <path
         id="LizNoir_name_L_2"
         d="m 87.5,541.5 c -5.015358,12.28361 -5.007265,21.77749 -3.5,30.5 2.446559,14.15817 -2.684809,12.90158 -19.5,19 h 50.08644 C 122.15841,591 126,597 126,597 l 14.5,-52.5 c 0,0 -21.35213,45.43682 -39.5,41 -14.404698,-3.52168 -15.185371,-27.5867 -13.5,-44 z"
         style="fill:#2c2839;fill-opacity:1" />
    </g>
    <g
       id="LizNoir_name_i_1">
      <circle
         id="i_1_1"
         cx="160.8"
         cy="530.5"
         style="fill:#2c2839;fill-opacity:1"
         r="7" />
      <path
         id="LizNoir_name_i_1_2"
         d="M 151,544.5 139,591 h 20 c -10.75451,-9.18281 -11.52196,-12.21352 -8.5,-23 3.00854,-10.73859 9.04159,-16.18255 21.5,-23.5 z"
         style="fill:#2c2839;fill-opacity:1" />
    </g>
    <g
       id="LizNoir_name_z">
      <path
         id="LizNoir_name_z_1"
         d="m 179,544.5 -5.90018,20.08635 C 181.87409,554.61756 189.18757,549.96387 200,550 c 13.28276,0.0444 2.5,18 2.5,18 0,0 6.26384,-6.49419 10,-13 3.73616,-6.50581 7.25769,-16.73672 7.25769,-16.73672 0,0 -6.39113,6.23672 -15.75769,6.23672 z"
         style="fill:#2c2839;fill-opacity:1" />
      <path
         id="LizNoir_name_z_2"
         d="m 207,533.5 c -6.18325,22.03984 -24.53338,49.31717 -43.91426,57.5 H 207 l 6.08574,-19.53613 c 0,0 -7.65687,8.72015 -14.02519,11.81824 C 192.69219,586.3802 185.5,586 185.5,586 c 0,0 9.1728,-11.49883 13.70262,-20.90693 4.13963,-9.88673 6.8631,-19.34733 7.79738,-31.59307 z"
         style="fill:#2c2839;fill-opacity:1" />
    </g>
    <g
       id="LizNoir_name_N">
      <path
         id="LizNoir_name_N_1"
         d="m 243.5,564 c -3.81345,14.63835 -8.07805,19.39024 -23,27 H 256 c -7.43486,-7.85319 -9.9211,-12.59383 -12.5,-27 z"
         style="fill:#2c2839;fill-opacity:1" />
      <path
         id="LizNoir_name_N_2"
         d="m 254.5,527.5 c -16.70005,50.9122 13,85.5 13,85.5 -7.50713,-17.11888 -22.03648,-55.67756 -0.54145,-76.42264 z"
         style="fill:#2c2839;fill-opacity:1" />
      <path
         id="LizNoir_name_N_3"
         d="m 231,517 c 29.1418,5.98655 32,16.5 32,16.5 l 30,50.43543 C 294.49793,587.76966 290.5,591 290.5,591 H 325 c 0,0 -24.13649,-4.4093 -32.5,-21.5 L 266,524 c -1.81661,-3.11908 3.10174,-7 3.10174,-7 z"
         style="fill:#2c2839;fill-opacity:1" />
      <path
         id="LizNoir_name_N_4"
         d="m 304.3,580.8 c 16.70005,-50.9122 -13,-85.5 -13,-85.5 7.50713,17.11888 22.03648,55.67756 0.54145,76.42264 z"
         style="fill:#2c2839;fill-opacity:1" />
      <path
         id="LizNoir_name_N_5"
         d="m 315,543.4 c 3.81345,-14.63835 8.07805,-19.39024 23,-27 h -35.5 c 7.43486,7.85319 9.9211,12.59383 12.5,27 z"
         style="fill:#2c2839;fill-opacity:1" />
    </g>
    <path
       id="LizNoir_name_o"
       d="m 335.5,544.5 -12,46.5 H 355 l 9.76543,-37.51458 C 365.90711,549.09957 368.70602,546.38121 372,544.5 Z m 25,2.7 c -2.67055,16.81449 -11.93294,41.88619 -30.5,41.3 2.31431,-16.75759 10.65271,-38.73998 30.5,-41.3 z"
       style="fill:#2c2839;fill-opacity:1" />
    <g
       id="LizNoir_name_i_2">
      <circle
         id="LizNoir_name_i_2_1"
         cx="388.2"
         cy="530.5"
         style="fill:#2c2839;fill-opacity:1"
         r="7" />
      <path
         id="LizNoir_name_i_2_2"
         d="m 378.5,544.5 -12,46.5 h 20 c -10.75451,-9.18281 -11.52196,-12.21352 -8.5,-23 3.00854,-10.73859 9.04159,-16.18255 21.5,-23.5 z"
         style="fill:#2c2839;fill-opacity:1" />
    </g>
    <path
       id="LizNoir_name_r"
       d="m 404.5,544.5 c 8.34129,13.06539 2.25195,36.32646 -12.5,46.5 h 26.69679 c -11.52012,-9.95694 -7.63324,-17.42166 -0.19679,-43 16.68996,2.0727 16,23 16,23 l 6.82189,-26.5 z"
       style="fill:#2c2839;fill-opacity:1" />
  </g>
  <g
     id="LizNoir_logo">
    <path
       id="LizNoir_logo_1"
       d="m 128.41535,456.43588 54.06049,-0.44494 c 0,0 32.04887,14.38872 70.63455,14.2382 27.68371,-0.10785 84.4822,-6.699 73.0818,-20.02243 -5.67879,-6.63667 -19.02131,-21.52407 -19.02131,-21.52407 l 54.36084,30.52666 c 0,0 -51.21158,27.63383 -108.42133,25.53604 -57.2206,-2.09817 -88.09855,-20.02238 -88.09855,-20.02238 z"
       style="fill:#2c2839;fill-opacity:1" />
    <path
       id="LizNoir_logo_2"
       d="m 439.45633,297.54923 24.71495,47.38119 c 22.20702,-57.81443 25.63562,-125.83566 -17.12715,-197.28667 -9.02748,8.88045 -17.73657,17.99112 -24.81377,28.28178 0,0 10.35301,-7.34915 15.89253,-6.9887 5.53954,0.36046 6.43938,3.12204 6.43938,3.12204 21.68876,47.97174 26.94493,89.09601 15.3025,140.11563 -2.51411,6.19989 -15.78674,-10.54782 -20.40844,-14.62527 z"
       style="fill:#2c2839;fill-opacity:1" />
    <path
       id="LizNoir_logo_3"
       d="m 349.89155,95.910476 h 52.59379 C 357.00456,55.386458 307.96338,45.749838 276.31935,42.590524 l -26.07672,31.621554 c 22.33852,-16.380274 39.24852,-14.331386 39.24852,-14.331386 37.83758,2.871869 74.063,25.550129 74.063,25.550129 7.30101,4.8343 -13.6626,10.479655 -13.6626,10.479655 z"
       style="fill:#2c2839;fill-opacity:1" />
    <path
       id="LizNoir_logo_4"
       d="m 232.26822,43.354867 c -45.55017,5.215394 -78.32763,21.599981 -102.54993,39.044508 -6.7393,4.525199 -23.44864,-17.444753 -23.44864,-17.444753 L 135.76932,119.954 c -1.88139,-14.38054 -3.90625,-21.912135 2.61152,-25.729515 24.41969,-17.747494 55.65351,-28.043975 55.65351,-28.043975 11.36797,-2.841148 2.7747,14.58601 2.7747,14.58601 z"
       style="fill:#2c2839;fill-opacity:1" />
    <path
       id="LizNoir_logo_5"
       d="M 65.316277,151.92515 C 25.06438,223.36347 26.259105,299.9458 63.111258,372.14036 62.305404,401.20194 58.495142,406.85458 58.495142,406.85458 69.006022,392.20599 76.973075,365.40407 76.973075,365.40407 21.988643,268.84831 65.904764,183.11506 65.904764,183.11506 c 4.323412,-14.07636 18.729875,2.23788 18.729875,2.23788 -5.111995,-18.98319 -19.318362,-33.42779 -19.318362,-33.42779 z"
       style="fill:#2c2839;fill-opacity:1" />
    <path
       id="LizNoir_logo_6"
       d="m 0,106 c 58.61059,16.53393 97.927783,46.45293 93.026585,103.02943 -4.019798,39.42449 -10.079123,87.29493 -8.502421,126.03602 C 98.590433,231.4912 137.6777,145.71849 172.04918,106 Z"
       style="fill:#2c2839;fill-opacity:1" />
    <path
       id="LizNoir_logo_7"
       d="m 350.5,106 c 18.10124,7.68222 23.94293,20.77031 25.23664,37.23516 V 336.45552 C 385.84187,236.6205 382.83209,160.5808 494,106 Z"
       style="fill:#2c2839;fill-opacity:1" />
    <path
       id="LizNoir_logo_8"
       d="M 300.78388,0.82977366 C 180.14159,91.593906 127.79195,190.88852 90.415079,354.98307 74.053324,430.80174 31.012141,435.68079 6,446.15426 H 273.59195 L 273,175 C 258.9063,300.87991 250.07969,364.73147 220.01157,413.73752 195.63511,453.46711 134.08721,441.53572 135,357.95437 141.34126,269.41267 174.21584,125.23819 300.78388,0.82977366 Z"
       style="fill:#2c2839;fill-opacity:1" />
    <path
       id="LizNoir_logo_9"
       d="m 61,0 c 105.32116,291.60706 202.5607,381.70768 255.15705,421.43373 137.59019,89.09906 187.09907,30.66979 138.81346,-72.90207 -24.8477,-49.76014 -94.5585,-166.51538 -171.6843,-233.57971 53.86213,71.3382 107.82287,147.38482 133.96535,229.64243 20.06118,75.64376 -36.51401,77.74988 -112.07975,12.9252 C 186.57928,261.07188 137.29349,139.81614 61,0 Z"
       style="fill:#2c2839;fill-opacity:1" />
  </g>
</svg>
