<?xml version="1.0" encoding="UTF-8" standalone="no"?>
<svg
   xmlns:dc="http://purl.org/dc/elements/1.1/"
   xmlns:cc="http://creativecommons.org/ns#"
   xmlns:rdf="http://www.w3.org/1999/02/22-rdf-syntax-ns#"
   xmlns:svg="http://www.w3.org/2000/svg"
   xmlns="http://www.w3.org/2000/svg"
   width="494"
   height="485"
   viewBox="0 0 130.70416 128.32335"
   version="1.1"
   id="svg5">
  <metadata
     id="metadata30">
    <rdf:RDF>
      <cc:Work
         rdf:about="">
        <dc:format>image/svg+xml</dc:format>
        <dc:type
           rdf:resource="http://purl.org/dc/dcmitype/StillImage" />
        <dc:title></dc:title>
      </cc:Work>
    </rdf:RDF>
  </metadata>
  <defs
     id="defs2" />
  <g
     id="LizNoir Logo">
    <path
       style="display:inline;fill:#2c2839;fill-opacity:1"
       d="m 33.984258,120.70879 14.287499,-0.11759 c 0,0 8.470111,3.80275 18.667826,3.76297 7.316447,-0.0285 22.327566,-1.77046 19.314583,-5.29167 -1.500828,-1.75399 -5.027083,-5.68854 -5.027083,-5.68854 l 14.366875,8.06781 c 0,0 -13.53457,7.30327 -28.654375,6.74885 C 51.816899,127.6361 43.65625,122.89896 43.65625,122.89896 Z"
       id="Logo 1" />
    <path
       style="fill:#2c2839;fill-opacity:1"
       d="m 116.17054,78.644611 6.52122,12.501878 c 5.85949,-15.254765 6.76415,-33.202673 -4.51912,-52.055547 -2.38197,2.343173 -4.67993,4.747088 -6.5473,7.462355 0,0 2.73172,-1.939125 4.19336,-1.844018 1.46165,0.09511 1.69908,0.823774 1.69908,0.823774 5.72274,12.657697 7.10962,23.508641 4.03768,36.970545 -0.66337,1.635885 -4.16545,-2.78312 -5.38492,-3.858987 z"
       id="Logo 2" />
    <path
       style="fill:#2c2839;fill-opacity:1"
       d="M 92.552659,25.4 H 106.49499 C 94.438283,14.657302 81.43773,12.102686 73.049076,11.265169 l -6.9128,8.382703 C 72.058087,15.30555 76.540837,15.848699 76.540837,15.848699 86.57138,16.610016 96.17454,22.6219 96.17454,22.6219 98.110005,23.903447 92.552659,25.4 92.552659,25.4 Z"
       id="Logo 3" />
    <path
       style="fill:#2c2839;fill-opacity:1"
       d="M 61.383333,11.482917 C 49.331374,12.862839 40.658905,17.197977 34.250014,21.81356 32.466892,23.010866 28.045833,17.197917 28.045833,17.197917 L 35.851041,31.75 c -0.497788,-3.804894 -1.033539,-5.79765 0.69097,-6.807677 6.461117,-4.695745 14.725156,-7.420053 14.725156,-7.420053 3.00781,-0.751729 0.734154,3.859259 0.734154,3.859259 z"
       id="Logo 4" />
    <path
       style="fill:#2c2839;fill-opacity:1"
       d="M 17.285039,40.154794 C 6.6223396,59.078757 6.9388214,79.365358 16.700931,98.489644 c -0.21347,7.698396 -1.222806,9.195776 -1.222806,9.195776 2.784325,-3.8804 4.894792,-10.980212 4.894792,-10.980212 C 5.8075787,71.127659 17.440929,48.416974 17.440929,48.416974 c 1.145269,-3.728819 4.961531,0.592815 4.961531,0.592815 -1.354164,-5.028632 -5.117421,-8.854995 -5.117421,-8.854995 z"
       id="Logo 5" />
    <path
       style="fill:#2c2839;fill-opacity:1"
       d="M 0,28.045833 C 15.502953,32.419185 25.902653,40.332992 24.60625,55.297916 23.54298,65.72599 21.940244,78.388098 22.357292,88.635416 26.077931,61.239224 36.416813,38.551687 45.508333,28.045833 Z"
       id="Logo 6" />
    <path
       style="fill:#2c2839;fill-opacity:1"
       d="m 92.980604,28.045833 c 4.759036,2.01975 6.294893,5.460768 6.635021,9.789583 v 50.8 C 102.27241,62.387559 101.47676,42.39579 130.70417,28.045833 Z"
       id="Logo 7" />
    <path
       style="fill:#2c2839;fill-opacity:1"
       d="M 79.375,0.66145833 C 46.892626,23.935915 33.646881,50.661432 23.921741,94.025299 19.193644,114.01665 8.2982169,115.24955 1.7197917,118.00417 H 72.098958 V 46.812649 C 68.774124,80.211753 65.50496,93.438503 61.251041,103.71667 54.234071,122.22063 35.691661,117.47299 35.71875,94.588541 37.446977,75.565224 42.17923,37.978378 79.375,0.66145833 Z"
       id="Logo 8" />
    <path
       style="fill:#2c2839;fill-opacity:1"
       d="m 16.007292,0 c 27.90367,77.258045 53.666233,101.1292 67.601041,111.65417 36.453007,23.60581 49.569827,8.12561 36.777087,-19.314587 C 113.8023,79.156189 95.333188,48.223186 74.899559,30.455235 89.169752,49.355505 103.46604,69.503196 110.39221,91.296441 115.7072,111.33741 100.71823,111.8954 80.697916,94.720833 49.278135,69.168089 36.220414,37.042735 16.007292,0 Z"
       id="Logo 9" />
  </g>
</svg>
