<?xml version="1.0" encoding="UTF-8" standalone="no"?>
<svg
   xmlns:dc="http://purl.org/dc/elements/1.1/"
   xmlns:cc="http://creativecommons.org/ns#"
   xmlns:rdf="http://www.w3.org/1999/02/22-rdf-syntax-ns#"
   xmlns:svg="http://www.w3.org/2000/svg"
   xmlns="http://www.w3.org/2000/svg"
   width="494"
   height="613"
   viewBox="0 0 130.70416 162.18959"
   version="1.1"
   id="svg5">
  <metadata
     id="metadata30">
    <rdf:RDF>
      <cc:Work
         rdf:about="">
        <dc:format>image/svg+xml</dc:format>
        <dc:type
           rdf:resource="http://purl.org/dc/dcmitype/StillImage" />
        <dc:title></dc:title>
      </cc:Work>
    </rdf:RDF>
  </metadata>
  <defs
     id="defs2" />
  <g
     id="LizNoir Name">
    <g
       id="L">
      <path
         style="fill:#2c2839;fill-opacity:1"
         d="m 19.729526,136.77754 h 11.671573 c 0,0 -4.461128,3.91415 -4.901229,10.63317 -0.658629,10.05529 2.865972,14.8283 2.865972,14.8283 0,0 -4.920511,-6.36607 -4.818158,-12.91765 0.123925,-7.93237 1.329147,-9.76092 1.329147,-9.76092 0,0 -1.604033,-1.08655 -2.616758,-1.53683 -1.26892,-0.56419 -3.530547,-1.24607 -3.530547,-1.24607 z"
         id="L 1" />
      <path
         style="fill:#2c2839;fill-opacity:1"
         d="m 23.20672,143.20461 c -2.405303,4.63244 -0.935396,9.35396 -0.935396,10.46753 0,1.11356 -5.020491,2.69661 -5.020491,2.69661 h 12.993624 c 2.00442,0 3.093043,1.45521 3.093043,1.45521 l 3.766526,-13.63937 c 0,0 -6.943407,12.29132 -10.467523,10.82387 C 21.69523,152.9509 23.20672,143.20465 23.20672,143.20465 Z"
         id="L 2" />
    </g>
    <g
       id="i 1">
      <circle
         style="fill:#2c2839;fill-opacity:1"
         id="i 1-1"
         cx="42.531773"
         cy="140.36147"
         r="1.8520833" />
      <path
         style="fill:#2c2839;fill-opacity:1"
         d="m 40.005,144.06562 -3.234571,12.30313 h 5.347962 c 0,0 -3.177277,-1.83629 -2.70464,-4.98904 0.917952,-3.9508 2.316432,-5.13388 6.094582,-7.31409 z"
         id="i 1-2" />
    </g>
    <g
       id="z">
      <path
         style="fill:#2c2839;fill-opacity:1"
         d="m 47.452732,144.06562 -1.519203,5.10196 c 0,0 1.590603,-2.19193 3.239399,-2.90964 1.648796,-0.71771 3.523766,-1.01235 5.092492,-0.50145 1.239383,0.40364 -0.819851,4.55542 -0.819851,4.55542 0,0 1.119893,-0.42662 2.710497,-3.64662 1.590603,-3.22 1.959157,-4.30627 1.959157,-4.30627 0,0 -1.357831,1.7066 -4.267472,1.7066 -2.909642,0 -6.395019,0 -6.395019,0 z"
         id="z 1" />
      <path
         style="fill:#2c2839;fill-opacity:1"
         d="m 54.76875,141.45973 c -1.134881,3.89421 -3.209492,7.25435 -4.277617,8.61176 -2.094915,2.40499 -4.081384,5.09352 -7.120829,6.29726 h 11.304317 l 1.624439,-5.22919 c 0,0 -1.913724,2.42554 -3.560414,3.22663 -1.646692,0.80109 -3.649427,0.51181 -3.649427,0.51181 0,0 2.448715,-2.95307 3.620014,-5.38577 1.157135,-2.40328 2.059517,-8.03249 2.059517,-8.03249 z"
         id="z 2" />
    </g>
    <g
       id="N">
      <path
         style="fill:#2c2839;fill-opacity:1"
         d="m 64.505416,149.225 c 0,0 -0.635,2.96333 -2.116667,4.445 -1.481666,1.48166 -4.1275,2.69875 -4.1275,2.69875 l 9.974793,-2e-5 c 0,0 -2.246431,-1.69863 -2.936876,-3.41313 -0.643819,-1.59872 -0.79375,-3.7306 -0.79375,-3.7306 z"
         id="N 1" />
      <path
         style="fill:#2c2839;fill-opacity:1"
         d="m 67.32827,139.66344 c -4.28988,12.77372 3.274297,22.41501 3.274297,22.41501 0,0 -3.384842,-7.47501 -2.933527,-12.60871 0.451316,-5.13371 1.297974,-5.73932 1.608254,-6.27526 0.310279,-0.53593 1.325273,-1.19955 1.325273,-1.19955 z"
         id="N 2" />
      <path
         style="fill:#2c2839;fill-opacity:1"
         d="m 61.121879,136.78958 c 7.668452,1.57532 8.463538,4.43742 8.463538,4.43742 0,0 7.381214,12.20352 7.9375,13.24655 0.556284,1.04304 -0.685971,1.8952 -0.685971,1.8952 h 9.020346 c 0,0 -4.119932,-1.08235 -6.042241,-2.4249 -1.814133,-1.267 -9.014729,-14.52759 -9.465468,-15.22103 -0.450737,-0.69344 0.693441,-1.93324 0.693441,-1.93324 z"
         id="N 3" />
      <path
         style="fill:#2c2839;fill-opacity:1"
         d="m 80.445252,153.47827 c 4.28988,-12.77372 -3.274297,-22.41501 -3.274297,-22.41501 0,0 3.384842,7.47501 2.933527,12.60871 -0.451316,5.13371 -1.297974,5.73932 -1.608254,6.27526 -0.310279,0.53593 -1.325273,1.19955 -1.325273,1.19955 z"
         id="N 4" />
      <path
         style="fill:#2c2839;fill-opacity:1"
         d="m 83.336655,143.93333 c 0,0 0.635,-2.96333 2.116667,-4.445 1.481666,-1.48166 4.1275,-2.69875 4.1275,-2.69875 l -9.974793,2e-5 c 0,0 2.246431,1.69863 2.936876,3.41313 0.643819,1.59872 0.79375,3.7306 0.79375,3.7306 z"
         id="N 5" />
    </g>
    <path
       style="display:inline;fill:#2d283c;fill-opacity:1;stroke-width:0.264583"
       d="m 89.032291,144.06562 -3.175,12.30313 h 8.01553 c 0,0 2.378893,-9.14095 2.622064,-10.04849 0.239066,-0.8922 1.684652,-2.25464 1.684652,-2.25464 z m 6.561873,0.47647 c -0.708356,4.46 -3.784534,11.8222 -8.546248,11.29749 1.461029,-5.27089 3.281809,-10.61845 8.546248,-11.29749 z"
       id="o" />
    <g
       id="i 2">
      <ellipse
         style="fill:#2c2839;fill-opacity:1"
         id="i 2-1"
         cx="102.73107"
         cy="140.36145"
         rx="1.8520817"
         ry="1.8520833" />
      <path
         style="fill:#2c2839;fill-opacity:1"
         d="m 100.20431,144.06561 -3.234514,12.30313 h 5.347904 c 0,0 -3.17722,-1.83629 -2.704618,-4.98904 0.917928,-3.9508 2.316408,-5.13388 6.094578,-7.31409 z"
         id="i 2-2" />
    </g>
    <path
       style="fill:#2c2839;fill-opacity:1"
       d="m 107.20187,144.20932 c 1.99577,4.07709 0.28511,9.19427 -3.22176,12.15943 h 6.78565 c 0,0 -2.65142,-1.539 -1.91025,-4.91761 0.7368,-3.35865 1.92453,-6.61457 1.92453,-6.61457 4.17913,0.74169 4.14834,6.12988 4.14834,6.12988 l 1.82472,-6.81416 z"
       id="r" />
  </g>
  <g
     id="LizNoir Logo">
    <path
       style="display:inline;fill:#2c2839;fill-opacity:1"
       d="m 33.984258,120.70879 14.287499,-0.11759 c 0,0 8.470111,3.80275 18.667826,3.76297 7.316447,-0.0285 22.327566,-1.77046 19.314583,-5.29167 -1.500828,-1.75399 -5.027083,-5.68854 -5.027083,-5.68854 l 14.366875,8.06781 c 0,0 -13.53457,7.30327 -28.654375,6.74885 C 51.816899,127.6361 43.65625,122.89896 43.65625,122.89896 Z"
       id="Logo 1" />
    <path
       style="fill:#2c2839;fill-opacity:1"
       d="m 116.17054,78.644611 6.52122,12.501878 c 5.85949,-15.254765 6.76415,-33.202673 -4.51912,-52.055547 -2.38197,2.343173 -4.67993,4.747088 -6.5473,7.462355 0,0 2.73172,-1.939125 4.19336,-1.844018 1.46165,0.09511 1.69908,0.823774 1.69908,0.823774 5.72274,12.657697 7.10962,23.508641 4.03768,36.970545 -0.66337,1.635885 -4.16545,-2.78312 -5.38492,-3.858987 z"
       id="Logo 2" />
    <path
       style="fill:#2c2839;fill-opacity:1"
       d="M 92.552659,25.4 H 106.49499 C 94.438283,14.657302 81.43773,12.102686 73.049076,11.265169 l -6.9128,8.382703 C 72.058087,15.30555 76.540837,15.848699 76.540837,15.848699 86.57138,16.610016 96.17454,22.6219 96.17454,22.6219 98.110005,23.903447 92.552659,25.4 92.552659,25.4 Z"
       id="Logo 3" />
    <path
       style="fill:#2c2839;fill-opacity:1"
       d="M 61.383333,11.482917 C 49.331374,12.862839 40.658905,17.197977 34.250014,21.81356 32.466892,23.010866 28.045833,17.197917 28.045833,17.197917 L 35.851041,31.75 c -0.497788,-3.804894 -1.033539,-5.79765 0.69097,-6.807677 6.461117,-4.695745 14.725156,-7.420053 14.725156,-7.420053 3.00781,-0.751729 0.734154,3.859259 0.734154,3.859259 z"
       id="Logo 4" />
    <path
       style="fill:#2c2839;fill-opacity:1"
       d="M 17.285039,40.154794 C 6.6223396,59.078757 6.9388214,79.365358 16.700931,98.489644 c -0.21347,7.698396 -1.222806,9.195776 -1.222806,9.195776 2.784325,-3.8804 4.894792,-10.980212 4.894792,-10.980212 C 5.8075787,71.127659 17.440929,48.416974 17.440929,48.416974 c 1.145269,-3.728819 4.961531,0.592815 4.961531,0.592815 -1.354164,-5.028632 -5.117421,-8.854995 -5.117421,-8.854995 z"
       id="Logo 5" />
    <path
       style="fill:#2c2839;fill-opacity:1"
       d="M 0,28.045833 C 15.502953,32.419185 25.902653,40.332992 24.60625,55.297916 23.54298,65.72599 21.940244,78.388098 22.357292,88.635416 26.077931,61.239224 36.416813,38.551687 45.508333,28.045833 Z"
       id="Logo 6" />
    <path
       style="fill:#2c2839;fill-opacity:1"
       d="m 92.980604,28.045833 c 4.759036,2.01975 6.294893,5.460768 6.635021,9.789583 v 50.8 C 102.27241,62.387559 101.47676,42.39579 130.70417,28.045833 Z"
       id="Logo 7" />
    <path
       style="fill:#2c2839;fill-opacity:1"
       d="M 79.375,0.66145833 C 46.892626,23.935915 33.646881,50.661432 23.921741,94.025299 19.193644,114.01665 8.2982169,115.24955 1.7197917,118.00417 H 72.098958 V 46.812649 C 68.774124,80.211753 65.50496,93.438503 61.251041,103.71667 54.234071,122.22063 35.691661,117.47299 35.71875,94.588541 37.446977,75.565224 42.17923,37.978378 79.375,0.66145833 Z"
       id="Logo 8" />
    <path
       style="fill:#2c2839;fill-opacity:1"
       d="m 16.007292,0 c 27.90367,77.258045 53.666233,101.1292 67.601041,111.65417 36.453007,23.60581 49.569827,8.12561 36.777087,-19.314587 C 113.8023,79.156189 95.333188,48.223186 74.899559,30.455235 89.169752,49.355505 103.46604,69.503196 110.39221,91.296441 115.7072,111.33741 100.71823,111.8954 80.697916,94.720833 49.278135,69.168089 36.220414,37.042735 16.007292,0 Z"
       id="Logo 9" />
  </g>
</svg>
