<?xml version="1.0" encoding="UTF-8" standalone="no"?>
<svg
   xmlns:dc="http://purl.org/dc/elements/1.1/"
   xmlns:cc="http://creativecommons.org/ns#"
   xmlns:rdf="http://www.w3.org/1999/02/22-rdf-syntax-ns#"
   xmlns:svg="http://www.w3.org/2000/svg"
   xmlns="http://www.w3.org/2000/svg"
   width="420"
   height="338"
   viewBox="0 0 111.12499 89.429171"
   version="1.1"
   id="svg8">
  <title
     id="title1055">月のテンペスト Logo</title>
  <defs
     id="defs2" />
  <metadata
     id="metadata5">
    <rdf:RDF>
      <cc:Work
         rdf:about="">
        <dc:format>image/svg+xml</dc:format>
        <dc:type
           rdf:resource="http://purl.org/dc/dcmitype/StillImage" />
        <dc:title>月のテンペスト Logo</dc:title>
        <dc:creator>
          <cc:Agent>
            <dc:title>765プロダクション星見支社</dc:title>
          </cc:Agent>
        </dc:creator>
        <dc:rights>
          <cc:Agent>
            <dc:title>© 2019 Project IDOLY PRIDE</dc:title>
          </cc:Agent>
        </dc:rights>
        <dc:publisher>
          <cc:Agent>
            <dc:title>765プロダクション星見支社</dc:title>
          </cc:Agent>
        </dc:publisher>
        <cc:license
           rdf:resource="http://creativecommons.org/licenses/by-nc/4.0/" />
      </cc:Work>
      <cc:License
         rdf:about="http://creativecommons.org/licenses/by-nc/4.0/">
        <cc:permits
           rdf:resource="http://creativecommons.org/ns#Reproduction" />
        <cc:permits
           rdf:resource="http://creativecommons.org/ns#Distribution" />
        <cc:requires
           rdf:resource="http://creativecommons.org/ns#Notice" />
        <cc:requires
           rdf:resource="http://creativecommons.org/ns#Attribution" />
        <cc:prohibits
           rdf:resource="http://creativecommons.org/ns#CommercialUse" />
        <cc:permits
           rdf:resource="http://creativecommons.org/ns#DerivativeWorks" />
      </cc:License>
    </rdf:RDF>
  </metadata>
  <g
     id="Tsuki_no_Tempest">
    <path
       id="Tsuki_no_Tempest_logo"
       d="m 110.84593,0 c -0.20616,1.899144e-4 -1.56459,0.2882301 -3.01869,0.64030141 C 98.883283,2.8057854 93.620513,3.4555026 83.636393,3.6264555 l -6.30383,0.1079213 -2.02417,-0.053176 0.24786,0.083662 -0.24786,0.004 2.51162,0.8416806 c 4.93423,1.6538046 8.3937,3.9578762 10.60466,7.0628956 0.4873,0.684331 0.3124,0.5993 -1.09262,-0.53289 C 83.521123,8.0696728 77.899663,6.0037739 71.453703,5.3050588 69.668823,5.111586 68.419913,4.8035848 67.223613,4.2625186 62.774097,2.2500958 57.768874,1.3212744 51.374705,1.3212744 c -6.223145,0 -11.122226,0.729951 -17.177526,2.5596464 C 19.463467,8.3329143 7.0511138,17.755228 2.1544308,28.204468 -0.71459719,34.3268 -0.71824619,40.550953 2.1441248,45.435183 c 0.856355,1.46125 2.318595,3.067016 4.005474,4.496022 0.38222,0.33067 0.778649,0.647469 1.187656,0.950122 0.102944,0.07618 0.206297,0.151873 0.31085,0.226167 1.212572,0.883132 2.4780422,1.64406 3.6796412,2.175461 0.881104,0.389665 1.277844,0.644239 1.351341,0.884022 l -0.008,0.206036 c -0.352242,0.941626 -0.455005,4.030934 -0.180729,5.498813 0.396811,2.123693 1.639132,4.696783 3.085299,6.38955 2.157108,2.524911 5.963493,4.663988 10.263354,5.76835 5.675793,1.457752 14.238584,1.138806 20.825155,-0.776101 l 1.832593,-0.532889 c 0.003,0.003 0.006,0.005 0.009,0.008 0.009,0.01 0.01809,0.01729 0.0263,0.0305 7.9e-4,0.001 7.9e-4,0.003 0.002,0.004 0.08226,0.13482 0.135179,0.454126 0.173501,1.068889 0.02468,0.605067 0.03048,1.494597 0.03048,2.836931 v 0.328923 c 0,1.702292 0.04018,2.883099 0.117218,3.550038 l 0.01489,0.897966 0.109981,-0.319624 c 0.108171,0.196729 0.251146,-0.107113 0.428078,-0.939279 0.288709,-1.357957 1.81611,-4.453831 2.802847,-5.681089 2.08167,-2.589103 5.352466,-4.108867 6.931215,-3.554688 0.158657,0.07027 0.30735,0.159347 0.444081,0.270058 0.08836,0.07157 0.161545,0.148832 0.225136,0.230826 0.06617,0.09996 0.120627,0.211785 0.160588,0.337698 0.409715,1.290908 -3.084899,6.985061 -6.626043,10.796754 -2.404785,2.588534 -6.306867,5.585053 -9.289993,7.133645 -1.193682,0.619661 -2.24107,1.240771 -2.327272,1.380247 -0.08617,0.139457 -0.002,0.204689 0.187437,0.145105 12.69149,-3.99458 20.902228,-8.11899 30.21945,-15.181248 1.07608,-0.815642 2.41989,-1.982496 3.85883,-3.319212 0.0826,-0.07277 0.17376,-0.148964 0.25456,-0.221012 2.61476,-2.331078 5.05912,-4.851544 7.32831,-7.530726 1.07256,-1.210614 2.01595,-2.341805 2.72023,-3.287199 6.78659,-9.110012 11.22748,-18.41259 13.988957,-29.302902 1.38466,-5.460648 2.48847,-12.989277 2.34793,-15.919645 -8e-4,-0.04448 -10e-4,-0.08916 -0.003,-0.126513 0.006,-0.08876 0.005,-0.179349 -0.009,-0.263351 l 0.0434,-0.743055 -0.0568,0.258183 c -0.001,-0.003 -0.001,-0.01369 -0.003,-0.01499 -0.0157,-0.01569 -0.0401,0.02448 -0.0708,0.109471 -0.0862,-0.07207 -0.24086,0.611694 -0.60209,2.423317 -2.766477,13.874557 -9.071207,25.790387 -18.468437,34.90447 -3.16378,3.068446 -5.44503,4.854041 -8.59238,6.726216 -2.07215,1.232606 -5.21035,2.647238 -5.4162,2.4414 -0.0595,-0.05947 0.53594,-1.197879 1.32294,-2.529689 0.78699,-1.33182 1.81083,-3.285669 2.27512,-4.342153 0.76487,-1.740427 0.99734,-2.0196 2.47445,-2.970152 7.03067,-4.524399 12.92303,-10.600081 15.76169,-16.252194 2.02492,-4.031833 2.65673,-6.92111 2.65673,-12.149125 0,-2.796279 0.11857,-4.020957 0.53599,-5.527209 1.01062,-3.646945 2.83803,-6.5699982 5.973337,-9.5554027 2.49061,-2.3715011 4.32924,-3.6305537 8.00992,-5.4853877 1.51488,-0.76340589 2.58561,-1.38767452117 2.37943,-1.387484606773 z M 57.257174,3.7947897 c 0.994492,9.995e-4 1.971882,0.024089 2.896834,0.064071 1.915428,0.1267129 3.68549,0.3663149 5.071255,0.7198255 1.265177,0.3227447 1.230686,0.330571 -2.737787,0.6475183 -10.168596,0.8121338 -20.65477,4.3289289 -29.21563,9.7975835 -2.911309,1.859731 -5.665347,4.049426 -8.082728,6.379734 -1.214483,1.159459 -2.342154,2.362847 -3.370851,3.605298 -1.457293,1.743042 -2.694216,3.510266 -3.635243,5.23288 -0.547181,1.001678 -1.26227,2.478473 -1.588863,3.28204 l -0.593821,1.461322 -0.121866,-0.811215 c -0.06727,-0.662201 -0.101085,-1.278484 -0.100175,-1.868738 0.08006,-1.556497 0.475926,-3.560585 1.064759,-5.182794 0.902146,-2.485389 2.33271,-4.898231 4.184136,-7.175466 0.724543,-0.858962 1.534708,-1.736716 2.445518,-2.647415 1.061121,-1.061013 2.200188,-2.073826 3.407524,-3.034193 0.006,-0.005 0.01249,-0.01 0.01859,-0.01449 6.050252,-4.7291985 14.045548,-8.3373624 22.682535,-9.9122225 1.012493,-0.1846169 2.128279,-0.3222048 3.290817,-0.419291 1.384136,-0.084562 2.896325,-0.126563 4.385003,-0.1244439 z m -0.504493,9.7139323 c 0.649048,0.003 1.279743,0.01669 1.883711,0.03978 0.748973,0.03439 1.441022,0.08966 2.040182,0.169883 8.590239,1.14991 14.621839,5.012779 16.600739,10.632036 l 0.37385,1.062172 c 0.016,0.265339 -0.021,0.517078 -0.10482,0.789013 l -0.51482,1.018271 c -3.00115,5.936905 -10.40612,12.380821 -18.427655,16.036352 -1.877494,0.855606 -7.50009,2.896206 -8.098731,2.951571 -0.02359,-0.01559 -0.04718,-0.03408 -0.06967,-0.05787 -0.121394,-0.3388 -0.873894,-4.340266 -1.068887,-5.700203 -0.188445,-1.314326 -0.341656,-1.766804 -0.448717,-1.39522 -0.02328,-0.08205 -0.04288,-0.142576 -0.05368,-0.153361 -0.06937,-0.06937 -0.125993,1.669948 -0.125993,3.865017 v 2.071667 c -0.03339,1.284711 -0.104322,1.766924 -0.279874,1.95394 l -2.033465,0.372821 c -1.272325,0.233674 -3.503039,0.540398 -4.957134,0.681604 -0.135659,0.01319 -0.264081,0.02009 -0.398122,0.03198 -1.133257,0.05408 -2.352548,0.08926 -3.532477,0.101214 -0.894206,-10e-4 -1.640229,-0.006 -2.295264,-0.01499 -1.703549,-0.120644 -3.394866,-0.37542 -5.20448,-0.774548 -2.898625,-0.639304 -2.871887,-0.608397 -1.826398,-2.078894 4.432303,-6.23413 12.878755,-11.357601 22.144989,-13.432306 2.381707,-0.533259 3.425847,-0.611954 7.89993,-0.596411 4.773778,0.01659 5.321831,0.06857 7.401633,0.705882 1.235335,0.37854 2.289415,0.64464 2.342775,0.591243 0.22868,-0.228706 -1.798059,-1.1989 -4.096883,-1.961175 -6.92115,-2.295007 -16.114537,-2.045039 -24.71651,0.672317 -6.692364,2.114117 -13.68674,6.01064 -17.843129,9.940619 l -0.64288,0.608276 -0.519975,0.453376 -0.143036,0.122375 c -0.03908,0.01299 -0.07767,0.01969 -0.116187,0.01809 l -0.860782,-0.952689 c -0.514398,-0.569374 -0.98011,-1.199751 -1.381809,-1.846538 -0.315427,-0.553101 -0.61843,-1.137178 -0.875764,-1.695246 -0.138398,-0.338008 -0.256853,-0.671957 -0.342346,-0.992972 -0.287339,-1.078893 -0.259833,-1.305032 0.28658,-2.379428 2.26523,-4.454033 7.417848,-9.687265 12.962409,-13.164827 4.750259,-2.979367 11.320548,-5.569581 17.267377,-6.807282 2.59891,-0.540915 6.226095,-0.859003 9.379843,-0.88403 0.13153,-2.3e-4 0.265151,-0.002 0.395531,-0.002 z m 21.008482,13.299596 c 0.019,0.005 0.0386,0.01329 0.0589,0.02579 0.0669,0.04128 0.12696,0.239542 0.17298,0.524115 0.0137,0.277245 0.024,0.614742 0.0413,1.062171 0.0192,0.493667 0.009,0.990983 -0.0243,1.490248 -0.007,0.107321 -0.0177,0.212245 -0.0264,0.319116 -0.006,0.07307 -0.0146,0.146284 -0.0222,0.219452 -0.99835,8.137261 -8.43074,16.586513 -19.582254,22.050502 -1.895167,0.92858 -3.812552,1.761474 -4.261081,1.851174 -0.422758,0.08456 -0.639241,0.09166 -0.796239,-0.04748 -0.09196,-0.163566 -0.193604,-0.353321 -0.306723,-0.5773 -0.153771,-0.419991 -0.450647,-1.161376 -0.672828,-1.678203 l -0.262329,-0.610345 c 0.02539,-0.237804 0.168823,-0.433015 0.450784,-0.640814 l 1.849118,-0.893325 c 7.52357,-3.637322 14.586352,-9.228282 18.867092,-14.93442 0.47287,-0.630326 1.04901,-1.529701 1.62449,-2.490958 0.48596,-0.766974 0.91356,-1.517715 1.27027,-2.236911 0.71416,-1.33114 1.27401,-2.512708 1.388,-3.01921 0.0907,-0.180578 0.1743,-0.339237 0.23134,-0.413612 z M 48.543972,52.445003 c 0.002,9.99e-4 0.004,0.003 0.007,0.004 0.0115,0.01 0.02239,0.02079 0.03258,0.03508 0.01111,0.01549 0.02139,0.03348 0.03099,0.05477 v 5.3e-4 c 0.006,0.01299 0.01,0.03528 0.01499,0.05058 0.06337,0.328811 0.10884,0.969433 0.108949,1.72674 v 0.003 1.692646 c -0.09875,0.125195 -0.235783,0.230207 -0.422909,0.323255 l -2.585455,0.488999 c -1.654723,0.31286 -4.361314,0.680644 -6.014668,0.817412 -0.313239,0.0259 -0.620011,0.04868 -0.924294,0.07127 -0.692228,0.02988 -1.378678,0.05458 -2.041729,0.07177 -0.986326,-0.008 -1.971792,-0.04208 -2.925221,-0.103792 -1.796641,-0.185687 -3.719315,-0.472817 -4.911707,-0.753381 l -1.86667,-0.438912 -0.04958,-0.01599 -0.03668,-0.01339 3.404416,-0.172982 c 5.205314,-0.263681 11.251648,-1.457064 16.457703,-3.248476 z m 23.502001,0.100684 c 0.11825,0.002 -0.0245,0.17855 -0.30052,0.497786 -2.5104,2.903811 -5.431031,5.389471 -8.60374,7.32262 -0.593793,0.361807 -1.179069,0.66263 -1.571822,0.823099 -0.138977,0.05408 -0.262453,0.09586 -0.359398,0.119275 -0.01699,0.002 -0.03908,0.008 -0.05168,0.007 -1.014932,-0.05218 -3.30399,-1.237241 -4.159864,-2.153778 l -0.595372,-0.637714 2.578228,-0.723953 c 3.10609,-0.872207 7.794538,-2.710669 11.038928,-4.328199 1.28927,-0.642771 1.87318,-0.928843 2.0252,-0.926363 z M 25.592405,56.956 c 0.254047,0.01269 1.125464,0.293827 2.104203,0.685731 4.850033,1.942054 10.355222,2.775959 16.745322,2.536407 l 4.296194,-0.161109 v 2.721264 0.01599 0.07337 0.007 c -9e-5,1.707561 -0.02868,2.456263 -0.167305,2.814213 -0.03068,0.06217 -0.06697,0.11039 -0.10999,0.148203 l -0.978518,0.121344 c -1.75632,0.218113 -4.186465,0.323486 -6.105538,0.293808 -0.361028,-0.008 -0.714219,-0.01819 -1.052368,-0.03247 -0.359116,-0.01819 -0.694587,-0.04058 -0.971802,-0.07227 -6.314963,-0.721966 -11.503654,-3.688878 -13.330062,-7.622117 -0.351831,-0.757677 -0.57676,-1.440689 -0.499842,-1.517605 0.01,-0.01 0.03337,-0.01319 0.06967,-0.01141 z"
       style="fill:#0f1932" />
  </g>
</svg>
