<?xml version="1.0" encoding="UTF-8" standalone="no"?>
<svg
   width="550"
   height="70"
   version="1.1"
   id="svg147306"
   sodipodi:docname="idoly-pride-logo-black.svg"
   inkscape:version="1.1 (c68e22c387, 2021-05-23)"
   xmlns:inkscape="http://www.inkscape.org/namespaces/inkscape"
   xmlns:sodipodi="http://sodipodi.sourceforge.net/DTD/sodipodi-0.dtd"
   xmlns="http://www.w3.org/2000/svg"
   xmlns:svg="http://www.w3.org/2000/svg">
  <defs
     id="defs147310" />
  <sodipodi:namedview
     id="namedview147308"
     pagecolor="#ffffff"
     bordercolor="#666666"
     borderopacity="1.0"
     inkscape:pageshadow="2"
     inkscape:pageopacity="0.0"
     inkscape:pagecheckerboard="true"
     showgrid="false"
     inkscape:zoom="1"
     inkscape:cx="324.5"
     inkscape:cy="-73"
     inkscape:window-width="1920"
     inkscape:window-height="1017"
     inkscape:window-x="-8"
     inkscape:window-y="-8"
     inkscape:window-maximized="1"
     inkscape:current-layer="g147304" />
  <g
     id="g147299">
    <title
       id="title147296">background</title>
    <rect
       fill="none"
       id="canvas_background"
       height="402"
       width="582"
       y="-1"
       x="-1" />
  </g>
  <g
     id="g147304"
     transform="scale(10)">
    <title
       id="title147301">Layer 1</title>
    <path
       id="svg_1"
       d="m 46.2,0.1 h -0.6 v 1.25 h 0.6 c 1.2,0 2.1,0.9 2.1,2.1 0,1.2 -0.9,2.15 -2.1,2.15 h -0.6 v 1.25 h 0.6 c 1.85,0 3.3,-1.5 3.3,-3.4 C 49.5,1.6 48.05,0.1 46.2,0.1 Z M 11.7,0 C 9.8,0 8.3,1.55 8.3,3.5 8.3,5.45 9.8,7 11.7,7 13.6,7 15.1,5.45 15.1,3.5 15.1,1.55 13.55,0 11.7,0 Z m 0,5.75 c -1.2,0 -2.2,-1 -2.2,-2.25 0,-1.25 0.95,-2.25 2.15,-2.25 1.2,0 2.15,1 2.15,2.25 0.05,1.25 -0.9,2.25 -2.1,2.25 z M 42.45,6.9 H 43.7 V 0.1 H 42.45 Z M 0,6.9 H 1.25 V 0.1 H 0 Z m 51.25,0 H 55 V 5.65 h -3.75 z m 0,-2.75 H 55 v -1.3 h -3.75 z m 0,-4.05 V 1.35 H 55 V 0.1 Z M 40.65,2 C 40.65,0.95 39.8,0.1 38.8,0.1 h -3.4 v 1.25 h 3.4 c 0.35,0 0.6,0.3 0.6,0.65 0,0.35 -0.3,0.65 -0.6,0.65 h -2.3 l 2.75,4.25 h 1.5 L 38.8,3.95 C 39.85,3.9 40.65,3.05 40.65,2 Z M 32,0.1 H 29.65 V 1.35 H 32 c 0.35,0 0.65,0.3 0.65,0.65 0,0.35 -0.3,0.65 -0.65,0.65 H 29.65 V 6.9 h 1.25 v -3 H 32 C 33.05,3.9 33.9,3.05 33.9,2 33.9,0.95 33.05,0.1 32,0.1 Z m -28.25,0 h -0.6 v 1.25 h 0.6 c 1.2,0 2.1,0.9 2.1,2.1 0,1.2 -0.9,2.15 -2.1,2.15 h -0.6 v 1.25 h 0.6 c 1.85,0 3.3,-1.5 3.3,-3.4 C 7.1,1.6 5.65,0.1 3.75,0.1 Z M 35.4,6.9 h 1.25 v -3 H 35.4 Z M 23.25,2.5 21.7,0.1 h -1.5 l 2.45,3.75 V 6.9 H 23.9 V 3.85 L 26.35,0.1 h -1.5 z M 18.05,0.1 H 16.8 v 6.8 h 3.6 V 5.65 h -2.35 z"
       fill="#ffffff"
       fill-rule="evenodd"
       style="fill:#000000;fill-opacity:1;stroke-width:0.5" />
  </g>
</svg>
