<?xml version="1.0" encoding="UTF-8" standalone="no"?>
<svg
   xmlns:dc="http://purl.org/dc/elements/1.1/"
   xmlns:cc="http://creativecommons.org/ns#"
   xmlns:rdf="http://www.w3.org/1999/02/22-rdf-syntax-ns#"
   xmlns:svg="http://www.w3.org/2000/svg"
   xmlns="http://www.w3.org/2000/svg"
   width="377"
   height="118"
   viewBox="0 0 99.747911 31.220835"
   version="1.1"
   id="svg5">
  <metadata
     id="metadata30">
    <rdf:RDF>
      <cc:Work
         rdf:about="">
        <dc:format>image/svg+xml</dc:format>
        <dc:type
           rdf:resource="http://purl.org/dc/dcmitype/StillImage" />
        <dc:title></dc:title>
      </cc:Work>
    </rdf:RDF>
  </metadata>
  <defs
     id="defs2" />
  <g
     id="LizNoir Name"
     transform="translate(-17.250833,-131.06326)">
    <g
       id="L">
      <path
         style="fill:#2c2839;fill-opacity:1"
         d="m 19.729526,136.77754 h 11.671573 c 0,0 -4.461128,3.91415 -4.901229,10.63317 -0.658629,10.05529 2.865972,14.8283 2.865972,14.8283 0,0 -4.920511,-6.36607 -4.818158,-12.91765 0.123925,-7.93237 1.329147,-9.76092 1.329147,-9.76092 0,0 -1.604033,-1.08655 -2.616758,-1.53683 -1.26892,-0.56419 -3.530547,-1.24607 -3.530547,-1.24607 z"
         id="L 1" />
      <path
         style="fill:#2c2839;fill-opacity:1"
         d="m 23.20672,143.20461 c -2.405303,4.63244 -0.935396,9.35396 -0.935396,10.46753 0,1.11356 -5.020491,2.69661 -5.020491,2.69661 h 12.993624 c 2.00442,0 3.093043,1.45521 3.093043,1.45521 l 3.766526,-13.63937 c 0,0 -6.943407,12.29132 -10.467523,10.82387 C 21.69523,152.9509 23.20672,143.20465 23.20672,143.20465 Z"
         id="L 2" />
    </g>
    <g
       id="i 1">
      <circle
         style="fill:#2c2839;fill-opacity:1"
         id="i 1-1"
         cx="42.531773"
         cy="140.36147"
         r="1.8520833" />
      <path
         style="fill:#2c2839;fill-opacity:1"
         d="m 40.005,144.06562 -3.234571,12.30313 h 5.347962 c 0,0 -3.177277,-1.83629 -2.70464,-4.98904 0.917952,-3.9508 2.316432,-5.13388 6.094582,-7.31409 z"
         id="i 1-2" />
    </g>
    <g
       id="z">
      <path
         style="fill:#2c2839;fill-opacity:1"
         d="m 47.452732,144.06562 -1.519203,5.10196 c 0,0 1.590603,-2.19193 3.239399,-2.90964 1.648796,-0.71771 3.523766,-1.01235 5.092492,-0.50145 1.239383,0.40364 -0.819851,4.55542 -0.819851,4.55542 0,0 1.119893,-0.42662 2.710497,-3.64662 1.590603,-3.22 1.959157,-4.30627 1.959157,-4.30627 0,0 -1.357831,1.7066 -4.267472,1.7066 -2.909642,0 -6.395019,0 -6.395019,0 z"
         id="z 1" />
      <path
         style="fill:#2c2839;fill-opacity:1"
         d="m 54.76875,141.45973 c -1.134881,3.89421 -3.209492,7.25435 -4.277617,8.61176 -2.094915,2.40499 -4.081384,5.09352 -7.120829,6.29726 h 11.304317 l 1.624439,-5.22919 c 0,0 -1.913724,2.42554 -3.560414,3.22663 -1.646692,0.80109 -3.649427,0.51181 -3.649427,0.51181 0,0 2.448715,-2.95307 3.620014,-5.38577 1.157135,-2.40328 2.059517,-8.03249 2.059517,-8.03249 z"
         id="z 2" />
    </g>
    <g
       id="N">
      <path
         style="fill:#2c2839;fill-opacity:1"
         d="m 64.505416,149.225 c 0,0 -0.635,2.96333 -2.116667,4.445 -1.481666,1.48166 -4.1275,2.69875 -4.1275,2.69875 l 9.974793,-2e-5 c 0,0 -2.246431,-1.69863 -2.936876,-3.41313 -0.643819,-1.59872 -0.79375,-3.7306 -0.79375,-3.7306 z"
         id="N 1" />
      <path
         style="fill:#2c2839;fill-opacity:1"
         d="m 67.32827,139.66344 c -4.28988,12.77372 3.274297,22.41501 3.274297,22.41501 0,0 -3.384842,-7.47501 -2.933527,-12.60871 0.451316,-5.13371 1.297974,-5.73932 1.608254,-6.27526 0.310279,-0.53593 1.325273,-1.19955 1.325273,-1.19955 z"
         id="N 2" />
      <path
         style="fill:#2c2839;fill-opacity:1"
         d="m 61.121879,136.78958 c 7.668452,1.57532 8.463538,4.43742 8.463538,4.43742 0,0 7.381214,12.20352 7.9375,13.24655 0.556284,1.04304 -0.685971,1.8952 -0.685971,1.8952 h 9.020346 c 0,0 -4.119932,-1.08235 -6.042241,-2.4249 -1.814133,-1.267 -9.014729,-14.52759 -9.465468,-15.22103 -0.450737,-0.69344 0.693441,-1.93324 0.693441,-1.93324 z"
         id="N 3" />
      <path
         style="fill:#2c2839;fill-opacity:1"
         d="m 80.445252,153.47827 c 4.28988,-12.77372 -3.274297,-22.41501 -3.274297,-22.41501 0,0 3.384842,7.47501 2.933527,12.60871 -0.451316,5.13371 -1.297974,5.73932 -1.608254,6.27526 -0.310279,0.53593 -1.325273,1.19955 -1.325273,1.19955 z"
         id="N 4" />
      <path
         style="fill:#2c2839;fill-opacity:1"
         d="m 83.336655,143.93333 c 0,0 0.635,-2.96333 2.116667,-4.445 1.481666,-1.48166 4.1275,-2.69875 4.1275,-2.69875 l -9.974793,2e-5 c 0,0 2.246431,1.69863 2.936876,3.41313 0.643819,1.59872 0.79375,3.7306 0.79375,3.7306 z"
         id="N 5" />
    </g>
    <path
       style="display:inline;fill:#2d283c;fill-opacity:1;stroke-width:0.264583"
       d="m 89.032291,144.06562 -3.175,12.30313 h 8.01553 c 0,0 2.378893,-9.14095 2.622064,-10.04849 0.239066,-0.8922 1.684652,-2.25464 1.684652,-2.25464 z m 6.561873,0.47647 c -0.708356,4.46 -3.784534,11.8222 -8.546248,11.29749 1.461029,-5.27089 3.281809,-10.61845 8.546248,-11.29749 z"
       id="o" />
    <g
       id="i 2">
      <ellipse
         style="fill:#2c2839;fill-opacity:1"
         id="i 2-1"
         cx="102.73107"
         cy="140.36145"
         rx="1.8520817"
         ry="1.8520833" />
      <path
         style="fill:#2c2839;fill-opacity:1"
         d="m 100.20431,144.06561 -3.234514,12.30313 h 5.347904 c 0,0 -3.17722,-1.83629 -2.704618,-4.98904 0.917928,-3.9508 2.316408,-5.13388 6.094578,-7.31409 z"
         id="i 2-2" />
    </g>
    <path
       style="fill:#2c2839;fill-opacity:1"
       d="m 107.20187,144.20932 c 1.99577,4.07709 0.28511,9.19427 -3.22176,12.15943 h 6.78565 c 0,0 -2.65142,-1.539 -1.91025,-4.91761 0.7368,-3.35865 1.92453,-6.61457 1.92453,-6.61457 4.17913,0.74169 4.14834,6.12988 4.14834,6.12988 l 1.82472,-6.81416 z"
       id="r" />
  </g>
</svg>
