<?xml version="1.0" encoding="UTF-8" standalone="no"?>
<svg
   xmlns:dc="http://purl.org/dc/elements/1.1/"
   xmlns:cc="http://creativecommons.org/ns#"
   xmlns:rdf="http://www.w3.org/1999/02/22-rdf-syntax-ns#"
   xmlns:svg="http://www.w3.org/2000/svg"
   xmlns="http://www.w3.org/2000/svg"
   width="377"
   height="118"
   version="1.1"
   id="svg5">
  <metadata
     id="metadata92">
    <rdf:RDF>
      <cc:Work
         rdf:about="">
        <dc:title></dc:title>
        <dc:format>image/svg+xml</dc:format>
        <dc:type
           rdf:resource="http://purl.org/dc/dcmitype/StillImage" />
      </cc:Work>
    </rdf:RDF>
  </metadata>
  <defs
     id="defs2" />
  <g
     id="LizNoir_name">
    <g
       id="L">
      <path
         id="L_1"
         d="m 9.935,21.7 h 44.000001 c 0,0 -17.1564,18.05276 -18.476875,40.08536 -1.765808,29.46321 4.396135,39.0894 10.804265,55.90034 C 37.624091,107.83239 28.456589,84.742 28.000371,69.7 27.180842,42.67925 33.109366,32.19109 33.109366,32.19109 26.043812,27.11957 18.280482,24.26558 9.935,21.7 Z"
         style="fill:#2c2839;fill-opacity:1" />
      <path
         id="L_2"
         d="M 23,46.2 C 17.984642,58.48361 17.992735,67.97749 19.5,76.7 21.946559,90.85817 16.815191,89.60158 0,95.7 h 50.08644 c 7.57197,0 11.41356,6 11.41356,6 L 76,49.2 c 0,0 -21.35213,45.43682 -39.5,41 C 22.095302,86.67832 21.314629,62.6133 23,46.2 Z"
         style="fill:#2c2839;fill-opacity:1" />
    </g>
    <g
       id="i_1">
      <circle
         id="i_1_1"
         cx="96.300003"
         cy="35.200001"
         r="7"
         style="fill:#2c2839;fill-opacity:1" />
      <path
         id="i_1_2"
         d="m 86.5,49.2 -12,46.5 h 20 C 83.74549,86.51719 82.97804,83.48648 86,72.7 89.00854,61.96141 95.04159,56.51745 107.5,49.2 Z"
         style="fill:#2c2839;fill-opacity:1" />
    </g>
    <g
       id="z">
      <path
         id="z_1"
         d="M 114.50018,49.19972 108.6,69.28607 c 8.77427,-9.96879 16.08775,-14.62248 26.90018,-14.58635 13.28276,0.0444 2.5,18 2.5,18 0,0 6.26384,-6.49419 10,-13 3.73616,-6.50581 7.25769,-16.73672 7.25769,-16.73672 0,0 -6.39113,6.23672 -15.75769,6.23672 z"
         style="fill:#2c2839;fill-opacity:1" />
      <path
         id="z_2"
         d="M 142.50026,38.2 C 136.31701,60.23984 117.96688,87.51717 98.586,95.7 h 43.91426 L 148.586,76.16387 c 0,0 -7.65687,8.72015 -14.02519,11.81824 C 128.19245,91.0802 121.00026,90.7 121.00026,90.7 c 0,0 9.1728,-11.49883 13.70262,-20.90693 4.13963,-9.88673 6.8631,-19.34733 7.79738,-31.59307 z"
         style="fill:#2c2839;fill-opacity:1" />
    </g>
    <g
       id="N">
      <path
         id="N_1"
         d="m 179,68.7 c -3.81345,14.63835 -8.07805,19.39024 -23,27 h 35.5 c -7.43486,-7.85319 -9.9211,-12.59383 -12.5,-27 z"
         style="fill:#2c2839;fill-opacity:1" />
      <path
         id="N_2"
         d="m 190.00008,32.2 c -16.70005,50.9122 13,85.5 13,85.5 -7.50713,-17.11888 -22.03648,-55.67756 -0.54145,-76.42264 z"
         style="fill:#2c2839;fill-opacity:1" />
      <path
         id="N_3"
         d="m 166.5,21.7 c 29.1418,5.98655 32,16.5 32,16.5 l 30,50.43543 C 229.99793,92.46966 226,95.7 226,95.7 h 34.5 c 0,0 -24.13649,-4.4093 -32.5,-21.5 L 201.5,28.7 c -1.81661,-3.11908 3.10174,-7 3.10174,-7 z"
         style="fill:#2c2839;fill-opacity:1" />
      <path
         id="N_4"
         d="M 239.8,85.5 C 256.50005,34.5878 226.8,0 226.8,0 c 7.50713,17.11888 22.03648,55.67756 0.54145,76.42264 z"
         style="fill:#2c2839;fill-opacity:1" />
      <path
         id="N_5"
         d="m 250.5,48.1 c 3.81345,-14.63835 8.07805,-19.39024 23,-27 H 238 c 7.43486,7.85319 9.9211,12.59383 12.5,27 z"
         style="fill:#2c2839;fill-opacity:1" />
    </g>
    <path
       id="o"
       d="m 271,49.2 -12,46.5 h 31.5 l 9.76543,-37.51458 C 301.40711,53.79957 304.20602,51.08121 307.5,49.2 Z m 25,2.7 c -2.67055,16.81449 -11.93294,41.88619 -30.5,41.3 2.31431,-16.75759 10.65271,-38.73998 30.5,-41.3 z"
       style="fill:#2d283c;fill-opacity:1" />
    <g
       id="i_2">
      <circle
         id="i_2_1"
         cx="323.70001"
         cy="35.200001"
         r="7"
         style="fill:#2c2839;fill-opacity:1" />
      <path
         id="i_2_2"
         d="m 314,49.2 -12,46.5 h 20 c -10.75451,-9.18281 -11.52196,-12.21352 -8.5,-23 3.00854,-10.73859 9.04159,-16.18255 21.5,-23.5 z"
         style="fill:#2c2839;fill-opacity:1" />
    </g>
    <path
       id="r"
       d="m 340,49.2 c 8.34129,13.06539 2.25195,36.32646 -12.5,46.5 h 26.69679 C 342.67667,85.74306 346.56355,78.27834 354,52.7 c 16.68996,2.0727 16,23 16,23 l 6.82189,-26.5 z"
       style="fill:#2c2839;fill-opacity:1" />
  </g>
</svg>
