<?xml version="1.0" encoding="UTF-8" standalone="no"?>
<svg
   xmlns:dc="http://purl.org/dc/elements/1.1/"
   xmlns:cc="http://creativecommons.org/ns#"
   xmlns:rdf="http://www.w3.org/1999/02/22-rdf-syntax-ns#"
   xmlns:svg="http://www.w3.org/2000/svg"
   xmlns="http://www.w3.org/2000/svg"
   width="650"
   height="251"
   viewBox="0 0 171.97916 66.41042"
   version="1.1"
   id="svg8">
  <title
     id="title1055">月のテンペスト Name</title>
  <defs
     id="defs2" />
  <metadata
     id="metadata5">
    <rdf:RDF>
      <cc:Work
         rdf:about="">
        <dc:format>image/svg+xml</dc:format>
        <dc:type
           rdf:resource="http://purl.org/dc/dcmitype/StillImage" />
        <dc:title>月のテンペスト Name</dc:title>
        <dc:creator>
          <cc:Agent>
            <dc:title>765プロダクション星見支社</dc:title>
          </cc:Agent>
        </dc:creator>
        <dc:rights>
          <cc:Agent>
            <dc:title>© 2019 Project IDOLY PRIDE</dc:title>
          </cc:Agent>
        </dc:rights>
        <dc:publisher>
          <cc:Agent>
            <dc:title>765プロダクション星見支社</dc:title>
          </cc:Agent>
        </dc:publisher>
        <cc:license
           rdf:resource="http://creativecommons.org/licenses/by-nc/4.0/" />
      </cc:Work>
      <cc:License
         rdf:about="http://creativecommons.org/licenses/by-nc/4.0/">
        <cc:permits
           rdf:resource="http://creativecommons.org/ns#Reproduction" />
        <cc:permits
           rdf:resource="http://creativecommons.org/ns#Distribution" />
        <cc:requires
           rdf:resource="http://creativecommons.org/ns#Notice" />
        <cc:requires
           rdf:resource="http://creativecommons.org/ns#Attribution" />
        <cc:prohibits
           rdf:resource="http://creativecommons.org/ns#CommercialUse" />
        <cc:permits
           rdf:resource="http://creativecommons.org/ns#DerivativeWorks" />
      </cc:License>
    </rdf:RDF>
  </metadata>
  <g
     id="Tsuki_no_Tempest">
    <path
       style="fill:#0f1932;fill-opacity:1"
       d="m 154.78812,6.54e-4 c -0.0743,0 -0.20654,0.02339 -0.36558,0.05837 -0.0304,0.004 -0.0561,0.007 -0.0889,0.01189 -0.47258,0.07037 -1.27564,0.282963 -1.78457,0.472477 -0.28969,0.107882 -0.69143,0.26611 -1.03687,0.398641 -0.008,0.003 -0.0162,0.006 -0.0243,0.009 -0.16642,0.05716 -0.34984,0.128492 -0.53754,0.206037 -2.6563,1.030674 -6.15226,2.453352 -6.72931,2.753799 -0.0127,0.007 -0.0273,0.01259 -0.0403,0.01909 -0.30687,0.11139 -0.6,0.212245 -0.84116,0.280904 -0.2245,0.04758 -0.44004,0.07626 -0.60055,0.06507 -0.55177,-0.03838 -0.87399,0.216852 -1.6219,1.285241 -0.51342,0.733419 -2.06254,2.54858 -3.44212,4.033362 -1.3796,1.484781 -2.84854,3.115974 -3.26449,3.624906 -0.41596,0.508931 -0.81775,0.984817 -0.89279,1.057524 -0.39599,0.383637 -3.23385,3.790976 -4.37469,5.252506 -0.72261,0.92571 -1.61107,2.01001 -1.97459,2.40988 -0.36352,0.3999 -0.888,1.01094 -1.16543,1.35754 -0.75267,0.94028 -2.19402,2.57188 -3.65487,4.13767 -1.22535,1.31338 -1.44579,1.43199 -3.85573,2.07321 -2.36153,0.62835 -2.5761,0.64647 -2.82247,0.23599 -0.14665,-0.24434 -0.71259,-1.04997 -1.25788,-1.79026 -0.49885,-0.67725 -0.90897,-1.34287 -0.97439,-1.57131 0.0319,-0.11248 0.0954,-0.24858 0.19467,-0.41412 0.339,-0.48739 1.06697,-1.39649 1.91677,-2.37942 1.16654,-1.34931 2.88594,-3.60977 3.82114,-5.02324 0.23303,-0.35225 0.43087,-0.64949 0.62067,-0.93361 0.27894,-0.398613 0.53203,-0.767133 0.73117,-1.071456 0.99348,-1.403447 1.30696,-1.520005 2.34328,-1.780957 0.65715,-0.165466 1.19489,-0.328452 1.19489,-0.362487 0,-0.08926 -1.16496,-1.337638 -2.19251,-2.396979 l -1.31984,-1.49076 -0.01,0.0119 -0.009,-0.01 -0.03,0.05678 -0.0341,0.04178 c -0.0405,-0.03319 -0.0704,-0.05428 -0.0806,-0.05428 -0.0908,0 -0.28245,0.261993 -0.42601,0.581946 -0.22695,0.505932 -0.88089,0.711251 -5.01961,1.578029 -3.54231,0.741866 -8.67114,1.411425 -12.34638,1.665291 -0.13151,0.008 -0.27778,0.01909 -0.40535,0.02689 -0.31466,0.01919 -0.57299,0.03129 -0.85717,0.04648 -0.74394,0.03357 -1.40176,0.04528 -1.921417,0.02738 -0.835051,-0.0288 -1.58874,0.01799 -1.674583,0.103794 -0.156298,0.156301 2.11059,1.257873 2.58856,1.257873 0.13964,0 1.02797,0.432905 1.97408,0.961997 l 1.17267,0.655799 c 0.18207,0.14209 0.29484,0.2572 0.28916,0.3186 -0.0114,0.12313 -0.61098,0.80714 -1.38644,1.63792 l -1.08128,1.08489 c -1.44699,1.45193 -2.707073,2.56418 -2.876686,2.54415 -0.008,-0.005 -0.01589,-0.009 -0.02379,-0.0145 -0.102144,-0.14106 -0.55619,-1.45479 -1.021889,-2.95878 -0.472767,-1.5268 -1.143206,-3.662122 -1.49024,-4.744944 -0.347043,-1.082811 -0.70721,-2.540214 -0.799858,-3.238661 l -0.100241,-0.755424 v -0.514309 l -0.06817,0.002 v -0.002 h -0.006 -2.075284 c -2.186555,0 -2.530939,0.198801 -1.39626,0.806056 1.088238,0.582409 1.779519,2.20072 1.562535,3.659502 -0.278014,1.869037 -2.773709,11.42737 -3.180837,12.18269 -0.138616,0.25719 -0.222368,0.40734 -0.266439,0.43273 -0.01158,-0.0265 -0.02519,-0.0682 -0.03768,-0.10896 9.99e-4,-0.1246 0.02588,-0.35309 0.06817,-0.71259 0.11113,-0.94429 -0.05348,-0.83985 -0.352162,0.0646 -0.01869,0.0411 -0.03848,0.1015 -0.06097,0.19312 -0.07507,0.23977 -0.1547,0.50856 -0.242172,0.83497 l -0.255605,0.95322 c -0.04338,0.043 -0.194321,0.04 -0.407935,0.003 l -1.082303,-0.39863 c -0.79902,-0.29435 -1.452545,-0.69679 -1.452545,-0.89435 0,-0.0895 -0.02998,-0.16932 -0.07487,-0.23237 0.09906,-0.0864 0.05757,-0.12066 -0.123416,-0.1229 -0.07626,-0.001 -0.136246,-0.0828 -0.185365,-0.2401 -0.04608,-0.20119 -0.08236,-0.54873 -0.111019,-0.95839 0.006,-0.18221 0.0118,-0.3639 0.02738,-0.59021 0.107371,-1.55996 -0.110929,-4.15912 -0.392952,-5.24217 -0.0325,-0.1429 -0.06557,-0.24646 -0.09965,-0.30777 -0.02948,-0.0701 -0.05937,-0.12823 -0.08936,-0.15904 -0.119287,-0.12281 -0.199679,1.32412 -0.17867,3.21544 0.01799,1.61939 -0.01829,3.03008 -0.08266,3.45864 -0.02299,0.0607 -0.04958,0.11262 -0.07846,0.15646 -0.156859,0.0447 -0.636582,-0.0444 -1.145824,-0.21946 -0.803178,-0.27623 -1.32981,-0.76954 -2.356188,-2.20645 -0.840512,-1.17668 -1.379248,-1.85149 -1.970462,-2.27098 -0.011,-0.01 -0.02259,-0.0199 -0.03359,-0.0294 -0.005,-0.004 -0.0101,-0.007 -0.01499,-0.0114 -5.28e-4,-5.3e-4 -9.97e-4,-10e-4 -0.002,-0.002 -2.6e-4,-2.6e-4 -5.3e-4,-7.9e-4 -9.99e-4,-0.001 -0.0121,-0.0108 -0.02539,-0.0186 -0.03768,-0.0289 -0.04478,-0.0361 -0.08937,-0.0731 -0.13632,-0.1038 -0.115748,-0.077 -0.247038,-0.13683 -0.397091,-0.18692 -0.07117,-0.0244 -0.149482,-0.0467 -0.231336,-0.0666 -0.434104,-0.14576 -0.945823,-0.2361 -1.61985,-0.32478 -1.045768,-0.13761 -2.737875,-0.36018 -3.760704,-0.49469 -1.720626,-0.22628 -5.351849,-1.04143 -12.284934,-2.75793 -2.612612,-0.64682 -2.354528,-0.68177 1.057524,-0.14201 0.799749,0.12653 2.703292,0.35281 4.230094,0.50244 1.526791,0.14962 3.846737,0.39093 5.155426,0.5365 1.30868,0.14558 4.067198,0.26655 6.129807,0.26956 3.299843,0.004 4.889946,-0.19346 5.084688,-0.6367 l 0.153881,-0.0682 -0.169374,-0.0858 c -0.345554,-0.34579 -3.090196,-1.697827 -5.130637,-2.51267 -0.574721,-0.229506 -1.283073,-0.527622 -1.573892,-0.662502 -0.290819,-0.134878 -1.183105,-0.495596 -1.982855,-0.801918 -0.79976,-0.306321 -1.641599,-0.725752 -1.870808,-0.932049 -0.06357,-0.05717 -0.169633,-0.119866 -0.295875,-0.182788 -0.131861,-0.07177 -0.262152,-0.130291 -0.377989,-0.162148 -0.280056,-0.104833 -0.603368,-0.200659 -0.912421,-0.261792 -0.64325,-0.127241 -1.764434,-0.494627 -2.491476,-0.816382 C 66.822129,11.850187 64.98072,11.117107 63.456957,10.542797 61.933184,9.968496 60.426153,9.328465 60.108305,9.120208 59.375805,8.640255 52.803438,6.064646 52.66485,6.203232 c -0.116317,0.11631 1.749122,1.332381 2.727971,1.77838 0.07127,0.03248 0.13266,0.06907 0.192093,0.105851 0.17983,0.139837 0.305922,0.254686 0.298975,0.298986 -0.003,0.01699 0.007,0.04018 0.02269,0.06607 -9.99e-4,0.01539 -0.004,0.03018 -0.01239,0.04338 -0.07517,0.121626 0.262061,0.410435 0.749761,0.64546 0.05158,0.02909 0.09566,0.05917 0.150782,0.08726 0.04388,0.02239 0.08426,0.04808 0.126503,0.07177 0.520455,0.340877 1.027016,0.951091 1.578029,1.899713 0.636412,1.095676 0.993682,1.719015 1.346172,2.087171 l 0.263423,0.460152 h 0.537537 c 0.333069,0.07995 0.75381,0.103732 1.363214,0.142005 1.018253,0.06397 3.454725,0.543205 5.414131,1.064752 4.798768,1.277303 4.871225,1.295915 9.225443,2.358779 1.789123,0.4367 3.333787,0.84583 3.796338,1.00225 4e-5,2e-5 -4e-5,5.3e-4 0,5.3e-4 0.02589,0.0442 -0.006,0.0857 -0.08576,0.12393 -0.002,8e-4 -0.003,0.002 -0.005,0.003 l -0.239592,0.0542 c -1.808414,0.15549 -8.391847,-0.0124 -11.641023,-0.35164 -0.79975,-0.0836 -2.703292,-0.28203 -4.230093,-0.4415 -1.526792,-0.15946 -4.341543,-0.519556 -6.255292,-0.800358 C 54.968485,16.460299 53.236015,16.131237 46.795109,14.779657 46.140774,14.642348 45.307968,14.476962 44.944442,14.412003 43.951449,14.234542 41.759208,13.75282 40.714349,13.482532 39.03676,13.048616 37.709307,12.752919 34.800518,12.164336 31.005639,11.396452 23.693624,8.558641 15.839964,4.806082 14.300717,4.070603 12.694601,3.386511 12.270822,3.285378 11.847052,3.184233 10.775246,2.701109 9.8888155,2.211842 8.2485752,1.306508 7.5508398,1.132057 7.2852894,1.561735 c -0.081563,0.131919 1.4840811,1.470346 3.4787716,2.974288 1.100475,0.829717 2.190883,1.685261 3.058451,2.388713 0.836794,0.729282 1.670458,1.503623 2.495616,2.313858 1.785726,1.901602 4.467227,4.945851 5.871624,6.691624 0.71059,0.883312 1.404957,1.663023 1.748432,1.975613 0.138097,0.18802 0.225828,0.32291 0.283482,0.42498 -0.504042,0.002 -3.046067,-0.59507 -10.407929,-2.427961 -1.635853,-0.407286 -2.971821,-0.671737 -2.969122,-0.588145 0.004,0.122545 9.779092,3.310286 14.097907,4.597746 0.005,10e-4 0.01168,0.004 0.01649,0.005 l 0.006,0.002 c 0.821738,0.24698 1.599399,0.95135 3.827844,3.46534 1.540305,1.7377 3.072915,3.44276 3.405445,3.78913 1.28617,1.33967 3.444478,4.8157 3.992571,6.42982 1.711338,5.03992 0.565305,7.25722 -4.108228,7.7445 -0.523326,0.0151 -1.149123,0.0202 -1.934319,0.0181 -0.951691,-0.003 -1.656904,-0.0131 -2.248788,-0.0408 -0.475724,-0.0753 -0.980146,-0.17942 -1.590932,-0.32584 -5.509441,-1.32072 -12.846943,-5.64156 -17.9402078,-10.56437 -0.361477,-0.34939 -0.703113,-0.69553 -1.0368725,-1.04565 -0.683762,-0.74252 -1.378089,-1.54913 -2.0696073,-2.39079 -0.5494583,-0.69619 -1.1131443,-1.4557 -1.7293066,-2.32884 C 3.0760966,24.023111 2.4622931,23.234261 2.1688854,22.916971 1.8754777,22.599711 1.3739037,21.833751 1.0545577,21.215031 0.52310423,20.185401 0,19.561801 0,19.957961 c 0,0.12274 0.18055863,0.49116 0.47764472,1.01054 0.068769,0.15418 0.146494,0.31258 0.2354639,0.46318 0.170743,0.28907 0.30062458,0.47276 0.39140358,0.57215 1.4408605,2.32301 3.9125864,5.90439 5.0666064,7.21986 0.4171121,0.59467 0.7027834,1.02431 0.7027834,1.07405 0,0.0113 0.015993,0.0371 0.033585,0.0646 0.3153879,0.64898 3.158516,3.52763 4.460909,4.48673 4.649854,3.42421 6.087615,4.34401 9.111844,5.82981 4.211402,2.06908 7.956483,3.3166 11.542906,3.84539 1.640851,0.24194 3.036432,0.30366 4.199119,0.18229 0.04548,-0.005 0.09056,-0.01 0.135289,-0.015 0.442479,-0.0415 0.824538,-0.11343 1.137036,-0.21686 2.181408,-0.59808 3.22008,-2.12081 3.22008,-4.62927 0,-2.86682 -1.73243,-6.6981 -5.087267,-11.24961 -1.471407,-1.99624 -1.702743,-2.43288 -1.208306,-2.28338 0.336298,0.10169 2.789152,1.18245 5.450794,2.40215 1.835992,0.84134 3.411502,1.55257 4.265208,1.92812 0.644778,0.3268 1.23945,0.63708 1.767012,0.92379 0.353571,0.21694 0.717608,0.44013 1.159768,0.72085 1.080962,0.68628 1.81732,1.07088 2.159966,1.14427 0.07896,0.0329 0.135099,0.0508 0.146134,0.0398 9.99e-4,-10e-4 -2.4e-4,-0.004 5.31e-4,-0.006 5.29e-4,-2.7e-4 0.004,10e-4 0.005,5.3e-4 2.7e-4,-2.7e-4 -2.59e-4,-0.002 0,-0.002 0.08906,0.003 0.109001,-0.0497 0.05787,-0.15697 -0.02689,-0.099 -0.121056,-0.24846 -0.294848,-0.45646 -0.469788,-0.56231 -0.844348,-1.4303 -0.960956,-2.03295 -0.01158,-0.0633 -0.02259,-0.12533 -0.03098,-0.18485 -0.0322,-0.29565 0.01839,-0.49366 0.184345,-0.49366 0.116178,0 1.395113,1.33459 2.84209,2.96602 4.142963,4.67112 6.447174,7.29513 7.529695,8.58 0.524174,0.67051 0.805927,1.09429 0.644431,1.02654 -0.154082,-0.0647 -0.448239,-0.18296 -0.707431,-0.28865 -5.052833,-2.59088 -13.102814,-5.67435 -14.831165,-5.67435 -0.745506,0 -0.290521,0.44111 0.648556,0.62894 1.389005,0.2778 8.636138,3.9737 11.963238,6.1009 2.182647,1.3955 5.407774,3.74904 6.83466,4.93751 0.13389,0.12028 0.247809,0.2277 0.347514,0.32636 0.177989,0.27778 0.229016,0.54856 0.163686,0.88145 -0.815432,1.68983 -3.811593,7.29732 -4.519253,8.41318 -0.785336,1.23835 -1.100874,2.10756 -0.569044,1.56718 0.398471,-0.40488 4.117134,-6.29276 5.075913,-8.03677 0.125303,-0.22793 0.249147,-0.44306 0.366614,-0.63977 0.33173,-0.48429 0.617042,-0.84826 0.75442,-0.93568 0.810665,0.40924 6.644216,6.38171 13.208199,13.53456 2.407943,2.62396 3.153148,3.32783 2.649485,2.50232 -0.1109,-0.18177 -1.099326,-1.38639 -2.19663,-2.67684 -1.097317,-1.29047 -2.284711,-2.71813 -2.638642,-3.17258 -0.35394,-0.45446 -1.546103,-1.83745 -2.648976,-3.07344 -1.102883,-1.23598 -2.655133,-3.02053 -3.449344,-3.9657 -0.794213,-0.94517 -2.065449,-2.41712 -2.825057,-3.27068 l -0.896926,-1.00797 c -0.205807,-0.27748 -0.35535,-0.49543 -0.434784,-0.63717 l 1.145304,-2.18838 c 0.657143,-1.25488 1.302802,-2.45978 1.434473,-2.6779 0.13167,-0.21811 0.670957,-1.34835 1.198489,-2.51161 0.527543,-1.16327 1.175091,-2.59094 1.439123,-3.17258 1.615261,-3.55819 2.760125,-6.59656 3.212842,-8.52627 0.08906,-0.37977 0.183776,-0.70053 0.259222,-0.90417 0.03257,-0.0333 0.06447,-0.0568 0.09396,-0.0599 0.08106,-0.008 0.315188,0.31644 0.607248,0.80348 0.534448,1.03271 1.277243,2.64915 1.61882,3.5965 0.275395,0.76379 0.767814,2.43004 1.094188,3.70236 0.326372,1.27235 0.671866,2.31333 0.767834,2.31333 0.09596,0 0.388155,-0.94256 0.649595,-2.09438 l 0.475576,-2.09388 -0.658893,-1.43964 c -0.462522,-1.01027 -0.980678,-1.93782 -1.50934,-2.7383 -5.29e-4,-0.007 -0.005,-0.0176 -0.005,-0.0243 0,-0.12769 -0.357668,-0.60093 -0.838062,-1.13136 -0.386426,-0.46754 -0.765905,-0.844 -1.122064,-1.10658 -0.2211,-0.17803 -0.432374,-0.31203 -0.627907,-0.39038 -0.922144,-0.47427 -1.283252,-0.1118 -1.519165,1.31778 -0.261922,1.58723 -1.484601,5.23576 -2.630895,7.85035 -1.653603,3.77175 -2.608493,5.81091 -2.68512,5.73428 -0.04018,-0.0401 0.208736,-0.95995 0.553031,-2.0443 1.415232,-4.45718 2.154748,-10.72197 1.746882,-14.79398 -0.04348,-0.43351 -0.07267,-0.82496 -0.09346,-1.16647 0.0102,-0.52752 0.04228,-0.81972 0.107922,-0.95787 0.184076,5.3e-4 0.561546,0.074 0.970251,0.19467 0.540708,0.15967 1.875456,0.55415 2.966025,0.8768 1.090578,0.32265 2.44047,0.8189 2.999588,1.10245 0.559118,0.28355 2.321684,0.97122 3.917173,1.52845 1.189525,0.41543 2.248948,0.80797 2.743474,1.01209 0.142777,0.0751 0.242622,0.14311 0.321695,0.20809 0.146875,0.57691 -0.520794,4.28436 -1.180418,6.45513 -1.332658,4.38566 -3.575588,8.41594 -5.331506,9.58173 -1.205347,0.80027 -2.549321,0.50591 -3.561396,-0.78073 -0.273805,-0.34809 -0.543585,-0.58679 -0.600019,-0.53033 -0.007,0.007 -0.002,0.0387 0.01238,0.0868 -0.04398,-0.0257 -0.06597,-0.024 -0.06767,0.005 -0.0276,-0.0183 -0.04648,-0.0278 -0.04648,-0.0176 0,0.0103 0.02279,0.0564 0.04698,0.10378 0.03367,0.15402 0.244741,0.54543 0.611385,1.15049 0.740296,1.56626 1.981727,3.98573 2.207474,4.21148 0.04758,0.0477 0.154002,0.0168 0.296918,-0.0656 0.137687,-0.0138 0.393822,-0.2166 0.718265,-0.53907 0.308572,-0.28128 0.66489,-0.65659 1.045129,-1.09626 0.761267,-0.83234 1.579758,-1.83497 2.188895,-2.74397 1.371042,-2.04603 3.230434,-6.75836 3.852103,-9.76248 l 0.383148,-1.85066 -0.139937,3.56914 c -0.115579,2.9465 -0.758558,8.48251 -1.204687,10.55973 -0.05767,0.1616 -0.09416,0.30986 -0.104824,0.4384 -0.003,0.0116 -0.007,0.0286 -0.01,0.0398 -0.09396,0.32716 -0.05688,0.59485 0.08206,0.59485 0.274487,0 0.866459,-1.14452 0.866459,-1.6751 0,-0.43245 3.055403,-7.75692 3.436952,-8.23917 0.115048,-0.14542 0.527642,-1.0377 0.916557,-1.98285 0.388924,-0.94517 1.097655,-2.61078 1.575439,-3.70134 0.477795,-1.09058 1.194911,-3.35103 1.593522,-5.02324 0.549532,-2.30541 2.396479,-8.69897 3.024887,-10.523596 0.07597,-0.148203 0.144815,-0.256644 0.206026,-0.325314 0.03269,0.274867 0.04788,0.97055 0.03409,1.85996 -0.005,0.33703 -0.004,0.62463 0.002,0.89642 -0.01649,0.22298 -0.01599,0.43896 0.007,0.66251 -0.002,0.0221 -0.01689,0.1472 -0.01759,0.15955 -0.002,0.0452 0.04948,0.22882 0.122894,0.46577 0.121795,0.71237 0.35525,1.43928 0.791084,2.62779 l 0.881443,2.40473 c -3e-5,0.10992 -0.008,0.21748 -0.02269,0.32376 l -1.060111,2.11247 c -0.830586,1.65496 -1.192773,2.74574 -1.327062,3.9998 -0.207908,1.94132 0.03768,2.65446 1.144274,3.32592 l 0.698124,0.42344 -1.574919,0.45594 c -1.84176,0.53312 -4.250014,1.59253 -4.485179,1.97304 -0.199339,0.32256 0.04148,0.44937 0.533409,0.40174 0.211855,0.0167 0.48959,-0.0463 0.878855,-0.19674 0.281223,-0.0882 0.584525,-0.19766 0.910359,-0.34131 2.0436,-0.90101 6.683998,-2.54463 7.726418,-2.75225 0.0548,-0.007 0.11111,-0.0144 0.16008,-0.0176 0.18917,0.0178 0.38493,0.12556 0.51172,0.27573 1.6e-4,1.9e-4 2.6e-4,2.7e-4 5.3e-4,5.4e-4 0.064,0.0932 0.1068,0.20229 0.12599,0.31757 -0.0136,0.20765 -0.19287,0.50367 -0.58659,0.95373 -0.26355,0.28478 -0.582897,0.61399 -0.948567,0.97852 -1.925982,1.7548 -5.256511,4.64326 -6.402456,5.51224 -3.920803,2.97315 -10.891989,7.49522 -13.918207,9.02871 -1.049617,0.53185 -1.36965,0.79545 -1.159246,0.79883 -0.156131,0.10964 -0.162738,0.14241 -0.01759,0.0945 0.002,1.8e-4 9.99e-4,0.002 0.003,0.002 0.06787,0.003 0.357439,-0.12231 0.730141,-0.29641 0.370763,-0.13801 0.856604,-0.34413 1.440151,-0.6248 6.445626,-3.10024 14.958749,-8.66 19.724247,-12.88133 0.943887,-0.83611 1.828137,-1.5202 1.964787,-1.5202 0.0894,0 0.28581,0.25388 0.50191,0.61397 l 0.24424,0.44304 c 0.0344,0.0673 0.0696,0.12842 0.10328,0.19881 0.33047,0.69069 1.24645,2.40397 2.03552,3.80718 0.78908,1.40321 1.43449,2.69606 1.43449,2.87308 0,0.17702 -0.80529,1.22983 -1.78975,2.33966 -0.98446,1.10984 -2.38237,2.72864 -3.10648,3.59753 -0.7241,0.86893 -2.090037,2.36558 -3.035201,3.32595 -0.945164,0.96038 -2.313329,2.44079 -3.040379,3.28978 -1.208156,1.4108 -2.839191,3.23583 -5.899002,6.60074 -0.627058,0.68959 -1.087649,1.30671 -1.023437,1.37097 0.06417,0.0642 1.172141,-1.03616 2.462049,-2.44501 6.232021,-6.8068 15.99282,-16.77393 16.26302,-16.60694 0.11974,0.074 0.89189,1.28889 1.7159,2.69958 0.65192,1.11604 1.52325,2.55389 2.17649,3.59908 0.1196,0.1907 0.23507,0.37456 0.36972,0.58505 0.0309,0.0483 0.0736,0.11777 0.10225,0.16215 0.63255,0.97975 1.14995,1.84598 1.14995,1.92553 0,0.21577 2.61735,3.83699 3.77001,5.26954 0.01,0.0124 0.0175,0.022 0.0269,0.0341 0.0518,0.0642 0.11035,0.13846 0.15543,0.1926 0.22462,0.27593 0.38511,0.44717 0.43995,0.44717 0.0436,0 0.0392,-0.059 -0.0894,-0.31653 -0.0258,-0.064 -0.0625,-0.14082 -0.11308,-0.23598 -0.37441,-0.87466 -1.42553,-2.81451 -2.44036,-4.42218 -0.33839,-0.53606 -1.36172,-2.40205 -2.2741,-4.14696 -0.852,-1.62949 -1.73098,-3.21332 -2.06805,-3.73593 -0.21038,-0.40874 -0.39994,-0.78407 -0.58401,-1.15098 -0.0205,-0.17954 -0.24669,-0.66739 -0.5236,-1.12157 -0.0606,-0.0994 -0.11657,-0.20429 -0.17092,-0.30878 -0.20792,-0.46246 -0.32046,-0.77819 -0.35061,-1.01053 0.075,-0.3094 1.55649,-2.10878 3.3626,-4.07879 1.58988,-1.73418 3.10996,-3.41887 3.77464,-4.17846 0.0494,-0.0539 0.16259,-0.17507 0.20552,-0.22204 0.23109,-0.25284 0.43912,-0.46207 0.63256,-0.63721 0.3223,-0.2518 0.67157,-0.44407 0.92533,-0.49209 0.2343,-0.0444 0.40322,-0.0549 0.55251,-0.005 0.13088,0.0696 0.25976,0.17808 0.38986,0.32325 0.13742,0.18081 0.28953,0.43594 0.49468,0.80967 0.68664,1.2509 3.90422,5.93155 4.96076,7.21625 0.277,0.33682 0.49778,0.47156 0.6501,0.44252 0.0904,0.0236 0.14602,-0.0198 0.16317,-0.13528 0.12434,-0.25123 0.09,-0.82258 -0.1487,-1.62604 -0.20246,-0.68175 -0.42063,-1.6453 -0.48487,-2.14138 -0.0643,-0.4961 -0.13663,-0.9021 -0.16112,-0.9021 -0.0245,0 -0.0948,-0.58796 -0.15644,-1.30642 -0.12998,-1.5163 -0.21433,-1.65816 -0.73273,-1.22793 -0.10282,0.0854 -0.19465,0.13834 -0.28813,0.16318 -0.29071,-0.006 -0.66091,-0.24379 -1.19954,-0.76939 -0.0304,-0.1369 -0.32067,-0.49281 -0.67594,-0.82205 l -0.24887,-0.23031 c -0.15422,-0.23146 -0.23396,-0.40838 -0.17505,-0.46007 0.007,-0.006 0.0378,-0.0174 0.0579,-0.0263 l 0.69657,-0.18589 c 0.55705,-0.1488 2.22065,-0.56227 3.69721,-0.91861 1.47653,-0.35635 2.92703,-0.7777 3.22317,-0.93618 0.29612,-0.15849 2.65722,-0.69792 5.24682,-1.19901 2.58961,-0.50109 5.30309,-1.02665 6.03015,-1.16802 0.72704,-0.14139 2.45215,-0.51252 3.83352,-0.82465 1.38139,-0.31212 3.63663,-0.68175 5.01137,-0.82153 1.37473,-0.13981 2.68342,-0.40774 2.90818,-0.59487 0.22476,-0.18713 3.02583,-0.83922 6.22484,-1.44945 5.61667,-1.07142 6.86321,-1.31817 12.2937,-2.43312 l 2.51163,-0.51586 -1.85068,0.13322 c -0.038,0.003 -0.0894,0.008 -0.12908,0.0109 -0.001,8e-5 -0.002,-9e-5 -0.004,0 -1.0248,0.0778 -2.58981,0.24478 -3.56863,0.38263 -3.31174,0.46644 -12.11494,1.54805 -14.01219,1.72158 -1.01786,0.0931 -2.32655,0.27113 -2.90819,0.39606 -0.58164,0.1249 -3.55591,0.53555 -6.60952,0.91242 -3.05357,0.37686 -5.96839,0.73981 -6.47733,0.80656 -0.82024,0.10753 -0.79024,0.0786 0.26439,-0.25663 0.65433,-0.20796 2.20103,-0.6768 3.43695,-1.04152 1.46622,-0.43268 2.41919,-0.87441 2.74192,-1.2713 l 0.49411,-0.60834 -0.0858,-0.006 0.12136,-0.12653 h -0.007 l -1.16959,-0.002 c -0.26843,-5.3e-4 -0.68088,0.0327 -1.21759,0.0961 -2.12274,0.16652 -6.25219,0.79195 -8.67655,1.35237 -0.35416,0.0819 -0.92168,0.18272 -1.54963,0.284 -0.68234,0.10349 -1.28557,0.19141 -1.8269,0.26697 -0.38103,0.0499 -0.76153,0.0975 -1.11794,0.13684 -1.59949,0.17654 -3.08228,0.45255 -3.29495,0.61345 -0.018,0.0136 -0.0258,0.0148 -0.0356,0.0181 -0.005,1.6e-4 -0.0127,8e-4 -0.0176,10e-4 -0.037,-0.0445 0.31245,-0.57135 0.87884,-1.31261 2.25225,-2.94763 14.43359,-14.239293 20.678,-19.167611 0.60694,-0.479024 1.50104,-1.197461 2.3061,-1.844469 0.34911,-0.26684 0.72424,-0.561117 1.09677,-0.86647 0.14936,-0.122415 0.34112,-0.270218 0.52205,-0.411544 0.0121,-0.009 0.0229,-0.01789 0.0351,-0.02738 0.92128,-0.696595 2.11381,-1.547103 3.01354,-2.141894 0.62991,-0.416432 1.11682,-0.772312 1.47526,-1.072508 0.2409,-0.140985 0.43126,-0.245268 0.47505,-0.245268 0.12705,0 0.23082,-0.237944 0.23082,-0.528763 0,-0.02349 -0.002,-0.04428 -0.004,-0.06607 7.9e-4,-0.008 0.004,-0.01699 0.004,-0.02479 0,-0.01189 -0.002,-0.02069 -0.002,-0.03199 0.014,-0.03608 0.0229,-0.06947 0.0279,-0.101205 0.0211,-0.05118 0.0277,-0.09496 0.0196,-0.131161 0.0164,-0.09396 -0.043,-0.142794 -0.1895,-0.135798 C 154.97895,0.0143 154.89463,0 154.78592,0 Z M 18.292226,9.420779 c 0.959247,0.04428 6.36735,1.980039 11.980789,4.304959 4.846816,2.007416 5.756756,2.544854 7.526079,4.445943 2.576138,2.76797 3.329779,3.61262 3.543833,3.97087 0.04938,0.0826 0.06997,0.14719 0.05118,0.19467 -0.08166,0.0351 -0.203809,0.0607 -0.3532,0.0775 -0.720526,-0.042 -2.704172,-0.51107 -7.524529,-1.6968 l -5.231841,-1.2873 c -0.119738,-0.0417 -0.219432,-0.0804 -0.320156,-0.11928 -0.01779,-0.009 -0.03548,-0.0193 -0.05318,-0.0289 -0.346603,-0.21645 -0.763355,-0.57357 -1.346184,-1.16131 l -0.35164,-0.36817 c -0.160509,-0.1679 -0.408025,-0.43937 -0.60261,-0.647006 l -1.149431,-1.292997 c -1.674885,-1.884591 -3.045397,-3.506789 -3.045548,-3.604765 -1.4e-4,-0.09796 -0.569652,-0.498027 -1.266129,-0.889189 -1.383846,-0.7772 -2.329201,-1.671427 -1.989053,-1.881642 0.02319,-0.01429 0.06777,-0.01949 0.131671,-0.01649 z m 19.87658,4.45884 c 0.881113,0.03448 6.310717,1.385636 8.815447,2.211603 0.84215,0.277715 2.438312,0.769224 3.547462,1.092638 1.714527,0.499931 1.99742,0.663041 1.88629,1.087991 -0.006,0.0245 -0.01649,0.0457 -0.02429,0.0692 -0.08035,0.12002 -0.185608,0.24614 -0.308781,0.36816 -0.02139,0.0209 -0.03998,0.0426 -0.06197,0.063 -0.006,0.005 -0.01,0.0107 -0.01549,0.016 -0.143557,0.0771 -0.398761,0.41903 -0.609306,0.82618 -0.353829,0.68424 -0.402518,1.268 -0.257155,3.10648 0.184108,2.32855 0.746495,5.20256 1.17887,6.02706 0.13459,0.25667 0.430216,1.09403 0.657334,1.86048 0.227118,0.76643 0.752719,1.83717 1.168034,2.37943 0.415311,0.54224 1.088929,1.44435 1.496944,2.00505 0.661852,0.90952 1.911598,1.6927 2.767743,1.75101 0.009,10e-4 0.01959,0.006 0.02839,0.006 0.004,0 0.009,-0.003 0.01339,-0.003 0.01949,7.9e-4 0.03988,0.003 0.05887,0.003 0.009,0 0.01639,-0.003 0.02478,-0.003 0.01249,5.3e-4 0.0263,0.003 0.03818,0.003 7.98e-4,0 9.98e-4,-5.2e-4 0.002,-5.2e-4 0.002,0 0.003,5.2e-4 0.005,5.2e-4 0.02269,0 0.04448,-0.004 0.06607,-0.009 h 5.29e-4 c 0.04228,-0.0109 0.08226,-0.0331 0.120304,-0.0641 0.005,-0.004 0.0104,-0.007 0.01549,-0.0119 0.007,-0.006 0.0127,-0.0132 0.01909,-0.0196 0.01469,-0.0144 0.0294,-0.0293 0.04338,-0.0465 0.248558,-0.24483 0.404169,-0.77367 0.470418,-1.43294 0.009,-0.0597 0.01629,-0.11783 0.01599,-0.16833 0.100626,-1.35036 -0.157579,-3.1696 -0.785396,-4.29515 -0.007,-0.013 -0.01349,-0.0262 -0.02069,-0.0393 -0.05947,-0.13152 -0.118156,-0.25341 -0.175051,-0.33719 -0.260373,-0.51979 -0.456953,-1.01968 -0.46267,-1.20985 -0.01459,-0.48732 -1.449398,-2.51677 -2.597849,-3.85056 -0.518067,-0.68855 -0.941546,-1.17815 -1.026028,-1.09367 -0.008,0.008 -0.01889,0.0146 -0.02998,0.0202 -0.05408,-0.0395 -0.105523,-0.0754 -0.148195,-0.0961 -0.661081,-0.32025 -0.9958,-0.2509 -1.101932,0.37177 -3e-5,1.6e-4 3e-5,2.6e-4 0,5.3e-4 -0.07397,0.21417 -0.07957,0.50774 -0.02739,0.94134 0.01,0.19204 0.02378,0.3995 0.04548,0.63307 0.09436,1.01838 0.05977,1.44431 -0.09656,1.18972 -0.133911,-0.21812 -0.302694,-0.96531 -0.374891,-1.66064 -0.06527,-0.62865 -0.224799,-1.27757 -0.371783,-1.53774 -0.02919,-0.29981 -0.05178,-0.59571 -0.06147,-0.87578 0.06507,-0.24772 0.130032,-0.61038 0.170393,-1.00434 0.126452,-1.23405 0.355821,-2.10751 0.655795,-2.54105 0.139807,-0.14674 0.291718,-0.2399 0.452856,-0.26488 0.01829,-0.002 0.03658,-0.004 0.05477,-0.006 0.03018,-0.003 0.06047,-0.007 0.09086,-0.008 0.01629,-7.9e-4 0.03229,-2.4e-4 0.04858,-5.3e-4 0.02149,0 0.04298,0.002 0.06457,0.003 0.701424,0.18066 1.636292,1.07061 2.163596,2.10422 0.313997,0.61549 0.726912,1.03748 0.916036,1.06009 0.07966,0.0361 0.123124,0.005 0.115148,-0.10689 0.005,-0.0704 -0.02989,-0.21448 -0.09706,-0.45131 l -0.03308,-0.11614 c -0.005,-0.0204 -0.006,-0.0342 -0.0129,-0.0563 0.04428,-0.0567 0.218942,0.0849 0.466279,0.35579 0.768465,0.92964 2.203079,3.1052 2.720746,4.31322 0.280402,0.65434 0.708929,1.48714 0.952181,1.85066 0.189714,0.2835 0.415431,0.76182 0.577818,1.16753 0.08686,0.2344 0.130412,0.39846 0.123416,0.4771 l -5.3e-4,5.3e-4 c -0.06077,0.002 -0.273598,-0.26737 -0.558708,-0.67592 -0.971942,-1.58493 -2.848337,-4.81813 -3.191672,-5.54168 -0.426079,-0.89789 -0.871928,-1.24286 -0.916048,-0.75337 -0.01009,0.0378 -0.01699,0.0825 -0.01699,0.13941 0,0.004 0.002,0.008 0.002,0.0119 -7e-5,0.001 -0.002,0.002 -0.002,0.003 0,0.001 0.003,0.007 0.003,0.008 2.69e-4,0.009 0.002,0.0179 0.003,0.0269 -0.004,0.0329 -0.006,0.0708 -0.006,0.11354 0,0.0883 0.04338,0.1631 0.105853,0.2112 0.01929,0.0342 0.03858,0.0682 0.06147,0.0961 0.10866,0.26648 0.276645,0.62304 0.467829,1.01209 0.07277,0.17598 0.179719,0.38875 0.311889,0.62222 0.869349,1.68905 2.076245,3.77595 2.434164,4.0943 0.103163,0.18202 0.217582,0.38002 0.317566,0.55767 0.003,0.006 0.007,0.0131 0.0108,0.0191 0.02049,0.26321 0.169242,0.66252 0.35526,0.92946 0.423898,0.60831 2.256503,3.99083 3.27997,6.04668 0.1554,0.34062 0.296397,0.66294 0.428588,0.9749 0.341716,0.88374 0.721595,2.07488 0.958898,3.04865 l 0.414653,1.70298 c 0.04658,0.44459 0.05457,0.81697 0.01289,1.18765 l -0.422899,1.27078 c -0.320385,0.96275 -0.66524,1.80133 -0.766814,1.86409 -0.05579,0.0345 -0.170535,-0.0173 -0.303624,-0.11877 -0.118426,-0.12072 -0.256343,-0.26563 -0.428586,-0.45596 -0.06447,-0.0721 -0.145175,-0.16646 -0.215843,-0.2468 -1.028616,-1.26051 -2.950411,-3.5692 -4.445416,-5.33616 -0.908271,-1.07351 -2.290488,-2.73514 -3.071356,-3.69256 -0.780877,-0.95742 -2.149051,-2.58766 -3.04038,-3.62232 -1.463579,-1.69893 -2.066997,-2.42005 -3.129199,-3.7189 -0.02249,-0.0391 -0.05008,-0.0728 -0.08207,-0.10016 -0.154591,-0.18921 -0.241052,-0.29135 -0.423939,-0.51586 -0.632814,-0.81926 -0.822709,-1.13716 -0.803468,-1.25633 l 0.82309,0.11051 c 0.39778,0.0535 0.732668,0.0698 0.917076,0.0537 l 0.02069,0.003 -0.008,-0.004 c 0.08146,-0.008 0.139938,-0.0209 0.139938,-0.0439 0,-0.0742 -0.71039,-0.40032 -1.57854,-0.72498 -1.1965,-0.44747 -1.81991,-0.88738 -2.577198,-1.8171 -0.549462,-0.67458 -1.296976,-1.52725 -1.660642,-1.89508 -0.894737,-0.905 -2.960835,-3.40835 -3.48497,-4.22234 -0.234073,-0.36353 -0.651155,-0.89889 -0.926881,-1.18971 -0.878754,-0.926871 -2.078473,-2.508538 -2.532269,-3.286177 -0.141497,-0.302015 -0.182917,-0.519716 -0.137358,-0.675927 2.39e-4,-7.98e-4 2.59e-4,-0.002 5.29e-4,-0.003 0.005,-0.01228 0.008,-0.0253 0.01389,-0.03718 0.007,-0.01529 0.01699,-0.0292 0.02579,-0.04338 0.007,-0.01299 0.01519,-0.02508 0.02319,-0.03718 0.03638,-0.04738 0.08285,-0.08786 0.138896,-0.121347 0.01389,-0.008 0.02929,-0.01459 0.04438,-0.02169 0.01909,-0.002 0.02758,-0.007 0.05728,-0.006 z m 81.639984,0.184347 c 0.0592,-0.004 0.0944,-0.002 0.10276,0.007 0.0583,0.05827 -0.49907,0.455415 -1.23878,0.882993 -0.31448,0.181788 -0.57738,0.360928 -0.81171,0.549422 -0.1935,0.106762 -0.39586,0.302684 -0.54685,0.525663 -0.2501,0.28995 -0.46836,0.620261 -0.68419,1.031186 -0.67889,1.292581 -2.53585,3.960701 -3.84643,5.526691 -0.56829,0.67904 -0.70245,0.72936 -1.0885,0.40897 -0.31152,-0.25857 -0.39681,-0.27256 -0.38418,0.0734 -0.01,0.0352 -0.002,0.10721 0.0155,0.20036 0.005,0.0545 0.005,0.0868 0.0114,0.15234 0.0923,0.87998 -0.3995,1.69717 -2.53072,4.20685 -0.7409,0.87245 -1.66108,2.00269 -2.04534,2.51162 -0.38427,0.50893 -1.22525,1.49045 -1.86874,2.18114 -0.18258,0.19596 -0.35095,0.36349 -0.51018,0.51121 -0.0228,0.0209 -0.0469,0.0439 -0.0692,0.0641 -0.0151,0.0132 -0.0305,0.0269 -0.0455,0.0398 -0.0326,0.0289 -0.0644,0.0554 -0.096,0.0821 -0.0642,0.0534 -0.12659,0.10358 -0.18795,0.15078 -0.0281,0.0212 -0.0563,0.0425 -0.0837,0.062 -0.0257,0.019 -0.0508,0.0369 -0.0759,0.0548 -0.28538,0.19073 -0.53303,0.28214 -0.7606,0.28865 -0.40839,-0.0124 -0.68922,-0.16318 -0.86752,-0.46886 -0.005,-0.0147 -0.009,-0.0301 -0.0134,-0.0455 -0.0185,-0.0661 -0.0315,-0.13598 -0.0336,-0.21273 -0.01,-0.3537 0.15588,-0.8163 0.50449,-1.34309 0.89564,-1.3534 1.70472,-2.97776 2.15481,-4.32562 0.68762,-2.05919 1.13094,-4.05564 1.19539,-5.12134 4e-5,-7.9e-4 -5e-5,-0.001 0,-0.002 1.9e-4,-0.003 -1.9e-4,-0.005 0,-0.008 0.0343,-0.5863 -0.0454,-0.89092 -0.268,-0.75337 -0.1555,0.0959 -0.22551,0.23044 -0.15646,0.29949 0.10462,0.10461 0.0557,0.49131 -0.0904,1.03481 -0.0183,0.0691 -0.0348,0.12548 -0.0542,0.20138 -0.56791,1.93812 -2.21328,5.56982 -3.312,7.01487 l -0.68007,0.89435 -0.39759,-0.75906 c -0.21878,-0.41754 -0.73692,-1.68856 -1.151507,-2.82454 -0.884627,-2.42396 -0.933235,-2.26066 1.586817,-5.34338 2.20064,-2.69201 3.1907,-3.63497 3.63677,-3.46381 0.19514,0.075 0.41591,0.0371 0.49056,-0.0837 0.23453,-0.37948 2.88916,-1.537311 4.79397,-2.090772 2.24588,-0.652556 8.51919,-2.049866 9.40668,-2.10988 z m -63.361552,5.344935 1.502113,0.28504 c 0.918506,0.17435 3.473904,0.89444 5.678511,1.60073 l 1.694206,0.54272 c 0.861072,0.31684 1.572292,0.60055 1.919856,0.78591 0.09696,0.10343 0.135979,0.21004 0.125992,0.32995 l -0.766284,1.07043 c -0.568984,0.79459 -0.992643,1.487 -0.941345,1.53827 0.05128,0.0513 0.436713,-0.085 0.856143,-0.3026 1.108521,-0.5751 1.364195,-0.16078 1.692657,2.74089 0.326293,2.88258 0.179061,5.31753 -0.573691,9.4764 -0.296087,1.63585 -0.616452,2.97428 -0.71155,2.97428 -0.09506,0 -0.400829,-0.80304 -0.679542,-1.78456 -0.278715,-0.9815 -0.787506,-2.29218 -1.130852,-2.91232 -0.343334,-0.62015 -0.600948,-1.27451 -0.572131,-1.4541 0.09086,-0.5663 -1.234814,-3.69637 -1.628117,-3.88619 -0.002,-0.001 -0.005,-0.008 -0.006,-0.009 -0.0112,-0.009 -0.03328,-0.0498 -0.05008,-0.0749 -0.07307,-0.16102 -0.141126,-0.31267 -0.209645,-0.46732 -0.02828,-0.21356 -0.120175,-0.5061 -0.232884,-0.71723 -0.004,-0.008 -0.01,-0.0215 -0.01389,-0.03 -0.08016,-0.20405 -0.169094,-0.41587 -0.269538,-0.62378 -0.008,-0.0162 -0.01439,-0.0323 -0.02219,-0.0486 -0.0271,-0.0727 -0.06227,-0.15572 -0.08056,-0.2148 -0.004,-0.0117 -0.009,-0.0209 -0.01239,-0.032 -0.009,-0.0272 -0.01849,-0.0508 -0.02839,-0.0749 l -5.3e-4,-5.3e-4 c -0.02648,-0.0644 -0.05777,-0.11777 -0.09396,-0.16059 -0.170225,-0.40541 -0.290709,-0.75851 -0.290709,-0.88142 0,-0.17524 -0.185767,-0.3904 -0.413094,-0.47764 -0.227339,-0.0873 -0.348213,-0.264 -0.26851,-0.39296 0.283042,-0.45797 -1.387405,-3.19112 -3.107,-5.17918 -0.228836,-0.2798 -0.451786,-0.53503 -0.659912,-0.75028 l -0.143035,-0.1482 -0.472996,-0.505 -0.152843,-0.18229 c 0.01789,-0.0126 0.03718,-0.0247 0.06247,-0.0341 z m -26.811934,2.21728 c 0.220489,-0.0149 2.057731,0.52546 4.272943,1.26098 0.05388,0.0179 0.106462,0.0351 0.161119,0.0532 0.07137,0.0366 0.12943,0.0701 0.155938,0.0945 0.138138,0.12735 0.435563,0.23159 0.660952,0.23185 0.06187,8e-5 0.286132,0.0553 0.592792,0.13889 2.026317,0.6709 4.313697,1.42798 5.501392,1.8166 1.505422,0.49257 2.506969,0.89222 2.256013,0.89951 -0.006,10e-6 -0.01399,0 -0.02019,0 -0.31034,-0.007 -2.845388,-0.32434 -5.661468,-0.70846 l -4.88176,-0.66611 c -0.146503,-0.0394 -0.436154,-0.26255 -0.783846,-0.57679 l -0.876786,-0.90881 c -0.671677,-0.69635 -1.236632,-1.34159 -1.369413,-1.5584 -7.99e-4,-10e-4 -9.99e-4,-0.002 -0.002,-0.004 -0.01759,-0.0293 -0.02779,-0.0513 -0.02789,-0.063 -4e-5,-0.006 0.008,-0.009 0.02219,-0.0103 z m 10.246301,4.89053 c 9.99e-4,-7e-5 0.003,7e-5 0.004,0 0.90973,0.0685 3.289049,0.37757 4.831663,0.62119 0.658624,0.13272 1.169183,0.26488 1.530002,0.40587 0.05118,0.0257 0.101924,0.0514 0.144584,0.079 0.128562,0.11555 0.252846,0.25667 0.341836,0.39915 0.152552,0.24429 0.197771,0.40098 0.13167,0.47508 -0.06347,0.0189 -0.136587,0.0296 -0.218422,0.0294 -0.02289,-6e-5 -0.04688,-5.3e-4 -0.07177,-0.002 -0.03029,-0.003 -0.07965,-0.0107 -0.134768,-0.0206 -0.151423,-0.0383 -0.338119,-0.10087 -0.569045,-0.19158 -0.290819,-0.11423 -1.868178,-0.54199 -3.50511,-0.95063 -1.184026,-0.29559 -2.168382,-0.5742 -2.609733,-0.73067 -0.09526,-0.065 -0.05308,-0.1034 0.124963,-0.11463 z m 14.897245,0.51844 c 0.09925,-0.0195 0.245331,0.11498 0.497776,0.42445 0.532561,0.65288 0.6667,2.15957 0.28762,2.76722 -0.0296,0.0449 -0.05967,0.0892 -0.09556,0.12496 -0.161796,0.16179 -0.472126,0.2911 -0.718785,0.30982 -0.137878,-0.008 -0.263293,-0.0583 -0.358368,-0.15336 -0.165127,-0.16513 0.01559,-2.56985 0.246308,-3.27636 0.03858,-0.11798 0.08146,-0.18503 0.140976,-0.19673 z m 58.1199,0.12909 c 0.0145,-0.004 0.0244,-0.003 0.03,0.003 0.0351,0.0359 0.0899,0.11513 0.15697,0.22101 l 0.57266,1.15357 c 0.45093,0.90886 0.81999,1.73335 0.81999,1.83207 0,0.20305 -1.41582,0.6337 -4.01528,1.22121 -0.97238,0.21977 -1.98362,0.47873 -2.24724,0.57575 -0.43238,0.15911 0.45912,-0.89356 3.11267,-3.691 0.77258,-0.71975 1.41669,-1.27704 1.57029,-1.31571 z m -15.301048,0.50139 c 0.129751,0.0231 0.380778,0.46378 0.601048,1.07405 0.251747,0.69745 0.564956,1.50613 0.696066,1.79696 0.09857,0.21861 0.181659,0.41169 0.256636,0.59279 0.169303,0.48709 0.289579,0.85735 0.359398,1.11071 0.03728,0.22867 0.02718,0.40415 -0.03149,0.54374 -0.07277,0.0981 -0.183588,0.19466 -0.344935,0.32531 -0.01619,0.0131 -0.03319,0.0226 -0.04958,0.0351 -0.662862,0.27534 -2.001697,0.18408 -2.433134,-0.24734 -0.01051,-0.0105 -0.02059,-0.0244 -0.03099,-0.0362 -0.183149,-0.26524 -0.305153,-0.59871 -0.337189,-0.98832 -0.01839,-0.22374 0.01799,-0.56818 0.08726,-0.96356 0.270909,-1.14102 0.887672,-2.90541 1.179389,-3.22678 0.01309,-0.0145 0.02899,-0.0198 0.04748,-0.0165 z m 36.037908,0.11722 c 0.7605,0.0208 0.73244,0.0552 -0.51844,0.64442 -1.04964,0.49447 -1.78479,0.62663 -3.56915,0.64082 -1.14606,0.009 -1.93757,0.075 -2.57874,0.27884 h -0.32945 -0.0821 l -0.30673,0.3217 c -0.47568,0.2833 -0.90151,0.69223 -1.40557,1.2811 -0.38121,0.44538 -0.89381,0.92132 -1.28626,1.2078 -0.0626,0.0432 -0.12272,0.0865 -0.18951,0.12857 -0.0447,0.0279 -0.0886,0.0553 -0.12703,0.0749 -0.38528,0.19587 -0.99815,0.43664 -1.36166,0.53547 l -0.23702,0.0646 c -9.9e-4,-0.0957 0.0873,-0.25175 0.26747,-0.46835 0.36534,-0.30864 0.93629,-0.80311 1.29145,-1.11897 0.53475,-0.47559 0.99477,-0.86112 1.42155,-1.19643 0.155,-0.12 0.31045,-0.24039 0.45441,-0.34907 1.33208,-0.97008 2.27135,-1.26783 3.62286,-1.30589 0.68361,-0.0193 1.8927,-0.19887 2.68665,-0.39864 0.79396,-0.19975 1.80522,-0.35289 2.24726,-0.3408 z m -47.54932,1.13291 c 0.320996,0.0107 0.80057,0.26409 1.527932,0.568 0.983016,0.41073 0.994371,0.43246 0.810185,1.52795 -0.197022,1.17181 -1.370623,5.14176 -2.163066,7.32984 -0.02729,0.0634 -0.05797,0.14376 -0.08366,0.19983 -0.173352,0.37935 -0.323913,0.80477 -0.422911,1.1603 -0.01198,0.0432 -0.02738,0.0907 -0.03458,0.12702 -0.01429,0.0567 -0.03089,0.11581 -0.04128,0.16627 -0.138169,0.40251 -0.276166,0.80976 -0.375922,1.11691 l -0.375911,1.15717 c -0.007,-0.0606 -0.007,-0.15974 -9.99e-4,-0.30205 l 0.08107,-0.72293 c 0.07357,-0.65434 0.209397,-3.72631 0.302074,-6.8264 0.01259,-0.42167 0.02109,-0.73833 0.03099,-1.10193 0.006,-0.15396 0.0113,-0.30933 0.01599,-0.45596 0.002,-0.0353 0.005,-0.0692 0.004,-0.10482 0.005,-0.14414 0.01,-0.29512 0.01339,-0.43065 0.05917,-1.35196 0.122364,-2.33746 0.200359,-2.86997 1e-4,-5.2e-4 5.2e-4,-5.2e-4 5.2e-4,-10e-4 0.100223,-0.39967 0.255205,-0.54611 0.51173,-0.53754 z m 36.82123,0.99969 c 0.0216,0.0283 0.031,0.0824 0.031,0.16111 0,0.11043 -0.26769,0.36495 -0.59485,0.56594 -0.59278,0.36414 -0.59326,0.36386 -0.0914,-0.20035 0.0617,-0.0694 0.10159,-0.10798 0.15337,-0.16369 0.1885,-0.14288 0.35496,-0.26295 0.50191,-0.36301 z m -3.16844,0.52256 c 0.0748,0.009 0.12816,0.0248 0.16989,0.0449 -0.002,0.1123 -0.25141,0.41113 -0.80398,1.04254 -0.58165,0.66462 -1.12451,1.21993 -1.20625,1.23362 -0.0817,0.0137 -0.42279,-0.34641 -0.75803,-0.79986 -0.086,-0.11626 -0.15702,-0.22291 -0.21429,-0.32118 -0.003,-0.005 -0.006,-0.01 -0.008,-0.0145 -0.0248,-0.0433 -0.0471,-0.0851 -0.0661,-0.12496 -0.004,-0.008 -0.006,-0.0145 -0.01,-0.0222 -0.0805,-0.17633 -0.10299,-0.31902 -0.063,-0.43272 0.13189,-0.11923 0.51561,-0.25005 0.97543,-0.36146 0.0945,-0.005 0.18406,-0.0119 0.29279,-0.0129 0.43622,-0.004 1.09056,-0.085 1.45409,-0.1797 0.0987,-0.0257 0.17365,-0.0417 0.23752,-0.0517 z m -5.37231,1.18559 c 0.79217,-0.0312 1.12523,0.3386 1.6276,1.24341 0.84723,1.52591 0.68186,1.96505 -0.97025,2.57927 -1.04461,0.38836 -1.58921,0.86517 -1.5992,1.39781 -0.002,0.1246 0.1866,0.15305 0.41981,0.0635 0.25604,-0.0983 0.12514,0.19205 -0.33047,0.73274 -0.33088,0.39265 -1.24569,1.47241 -2.07736,2.45378 -0.4717,0.53521 -0.88195,1.01874 -1.16493,1.37355 -0.76548,0.90166 -1.61415,1.90145 -1.89456,2.22969 l -0.29277,0.34286 c -0.20259,0.19381 -0.36748,0.3345 -0.43789,0.36506 l -0.8706,-1.60177 c -1.66318,-3.05879 -3.04791,-6.17207 -3.01249,-6.73396 0.0442,-0.0604 0.11502,-0.1405 0.17918,-0.21585 0.2139,-0.19115 0.71332,-0.63938 1.31675,-1.18299 1.01955,-0.91854 1.59479,-1.19294 3.43694,-1.63792 1.21686,-0.29394 2.84294,-0.72058 3.61303,-0.94858 0.94153,-0.27873 1.58192,-0.4419 2.05721,-0.4606 z"
       id="Tsuki_no_Tempest_name" />
  </g>
</svg>
