<?xml version="1.0" encoding="UTF-8" standalone="no"?>
<svg
   xmlns:dc="http://purl.org/dc/elements/1.1/"
   xmlns:cc="http://creativecommons.org/ns#"
   xmlns:rdf="http://www.w3.org/1999/02/22-rdf-syntax-ns#"
   xmlns:svg="http://www.w3.org/2000/svg"
   xmlns="http://www.w3.org/2000/svg"
   width="650"
   height="251"
   version="1.1"
   id="svg8">
  <title
     id="title1055">月のテンペスト Name</title>
  <defs
     id="defs2" />
  <metadata
     id="metadata5">
    <rdf:RDF>
      <cc:Work
         rdf:about="">
        <dc:format>image/svg+xml</dc:format>
        <dc:type
           rdf:resource="http://purl.org/dc/dcmitype/StillImage" />
        <dc:title>月のテンペスト Name</dc:title>
        <dc:creator>
          <cc:Agent>
            <dc:title>765プロダクション星見支社</dc:title>
          </cc:Agent>
        </dc:creator>
        <dc:rights>
          <cc:Agent>
            <dc:title>© 2019 Project IDOLY PRIDE</dc:title>
          </cc:Agent>
        </dc:rights>
        <dc:publisher>
          <cc:Agent>
            <dc:title>765プロダクション星見支社</dc:title>
          </cc:Agent>
        </dc:publisher>
        <cc:license
           rdf:resource="http://creativecommons.org/licenses/by-nc/4.0/" />
      </cc:Work>
      <cc:License
         rdf:about="http://creativecommons.org/licenses/by-nc/4.0/">
        <cc:permits
           rdf:resource="http://creativecommons.org/ns#Reproduction" />
        <cc:permits
           rdf:resource="http://creativecommons.org/ns#Distribution" />
        <cc:requires
           rdf:resource="http://creativecommons.org/ns#Notice" />
        <cc:requires
           rdf:resource="http://creativecommons.org/ns#Attribution" />
        <cc:prohibits
           rdf:resource="http://creativecommons.org/ns#CommercialUse" />
        <cc:permits
           rdf:resource="http://creativecommons.org/ns#DerivativeWorks" />
      </cc:License>
    </rdf:RDF>
  </metadata>
  <g
     id="Tsuki_no_Tempest">
    <path
       style="fill:#0f1932;fill-opacity:1;stroke-width:3.77953"
       d="m 585.02599,0.00247181 c -0.28082,0 -0.78063,0.08840315 -1.38172,0.22061103 -0.1149,0.0151181 -0.21203,0.0264567 -0.336,0.0449386 -1.78613,0.26596536 -4.82132,1.06946646 -6.74483,1.78573986 -1.09489,0.407743 -2.61328,1.0057702 -3.91888,1.5066747 -0.0302,0.011339 -0.0612,0.022677 -0.0918,0.034016 -0.62899,0.2160378 -1.32223,0.4856391 -2.03165,0.7787225 -10.03956,3.895461 -23.25264,9.2725115 -25.43362,10.4080595 -0.048,0.02646 -0.10318,0.04758 -0.15231,0.07215 -1.15982,0.421002 -2.26772,0.802186 -3.17919,1.061685 -0.8485,0.17983 -1.66314,0.288226 -2.26979,0.245933 -2.08543,-0.145058 -3.30327,0.819599 -6.13002,4.857604 -1.94048,2.771978 -7.79543,9.632429 -13.00959,15.244204 -5.21423,5.611771 -10.76613,11.77691 -12.33823,13.700433 -1.57213,1.923518 -3.09071,3.722143 -3.37432,3.996941 -1.49666,1.449966 -12.22243,14.328099 -16.53426,19.851992 -2.73113,3.498746 -6.08909,7.596888 -7.46302,9.108208 -1.37394,1.511433 -3.35622,3.820876 -4.40478,5.13086 -2.84473,3.553814 -8.29236,9.720492 -13.81368,15.638436 -4.63124,4.96396 -5.4644,5.41225 -14.57284,7.83576 -8.92547,2.37486 -9.73644,2.44335 -10.6676,0.89193 -0.55427,-0.92349 -2.69326,-3.96839 -4.75419,-6.76634 -1.88542,-2.55968 -3.43548,-5.07541 -3.68274,-5.938809 0.12057,-0.425121 0.36057,-0.939515 0.73576,-1.565178 1.28126,-1.842104 4.03265,-5.278073 7.24449,-8.993084 4.40897,-5.099755 10.90749,-13.643226 14.4421,-18.985475 0.88075,-1.331338 1.62849,-2.454765 2.34584,-3.528605 1.05426,-1.506568 2.01082,-2.8994 2.76348,-4.049597 3.75488,-5.304367 4.93969,-5.744901 8.85649,-6.731177 2.48372,-0.625383 4.51612,-1.241393 4.51612,-1.370029 0,-0.337361 -4.403,-5.05564 -8.28665,-9.059449 l -4.98837,-5.634369 -0.0378,0.04498 -0.034,-0.03779 -0.11339,0.214601 -0.12888,0.157909 c -0.15307,-0.125443 -0.26608,-0.205153 -0.30463,-0.205153 -0.34318,0 -1.06753,0.99021 -1.61012,2.199481 -0.85776,1.912184 -3.32935,2.688193 -18.97175,5.964204 -13.38826,2.803904 -32.77282,5.33452 -46.66349,6.294014 -0.49704,0.03024 -1.04988,0.07215 -1.53203,0.101631 -1.18927,0.07253 -2.16563,0.118262 -3.2397,0.175673 -2.81174,0.126879 -5.29799,0.171137 -7.26205,0.103483 -3.1561,-0.10885 -6.00468,0.06799 -6.32913,0.392293 -0.59073,0.590744 7.97703,4.754165 9.78353,4.754165 0.52778,0 3.88525,1.636177 7.46109,3.635895 l 4.43214,2.47861 c 0.68814,0.537033 1.11436,0.972095 1.09289,1.204158 -0.0431,0.465373 -2.30921,3.050608 -5.24009,6.190564 l -4.08672,4.100372 c -5.46894,5.487609 -10.23146,9.691389 -10.87252,9.615685 -0.0302,-0.0189 -0.0601,-0.03402 -0.0899,-0.0548 -0.38606,-0.53314 -2.10214,-5.498419 -3.86226,-11.182791 -1.78684,-5.770583 -4.32078,-13.841092 -5.63241,-17.933647 -1.31165,-4.092515 -2.67291,-9.60081 -3.02308,-12.240609 l -0.37886,-2.855146 v -1.943845 l -0.25765,0.0076 v -0.0076 h -0.0227 -7.8436 c -8.26414,0 -9.56575,0.751373 -5.2772,3.046511 4.11303,2.201231 6.72574,8.317682 5.90565,13.831189 -1.05077,7.064077 -10.48331,43.190065 -12.02207,46.044815 -0.5239,0.97206 -0.84044,1.53955 -1.00701,1.63551 -0.0438,-0.10015 -0.0952,-0.25776 -0.14241,-0.41181 0.004,-0.47093 0.0978,-1.33452 0.25765,-2.69326 0.42002,-3.568967 -0.20213,-3.174233 -1.33101,0.24416 -0.0706,0.15534 -0.14543,0.38362 -0.23044,0.7299 -0.28372,0.90622 -0.58469,1.92212 -0.91529,3.1558 l -0.96607,3.60272 c -0.16395,0.16252 -0.73444,0.15118 -1.5418,0.0113 l -4.09059,-1.50664 c -3.01992,-1.1125 -5.48994,-2.63353 -5.48994,-3.38022 0,-0.33827 -0.11331,-0.63995 -0.28297,-0.87825 0.3744,-0.32655 0.21759,-0.45604 -0.46645,-0.4645 -0.28823,-0.004 -0.51495,-0.31295 -0.7006,-0.90747 -0.17416,-0.7604 -0.31128,-2.07394 -0.4196,-3.622257 0.0227,-0.688668 0.0446,-1.375371 0.10349,-2.230715 0.40581,-5.895912 -0.41926,-15.71951 -1.48518,-19.812927 -0.12283,-0.540095 -0.24782,-0.931503 -0.37663,-1.163225 -0.11142,-0.264945 -0.22439,-0.484649 -0.33773,-0.601097 -0.45085,-0.464163 -0.7547,5.004549 -0.67529,12.152845 0.068,6.120529 -0.0691,11.452271 -0.31242,13.072026 -0.0869,0.22942 -0.18739,0.42565 -0.29654,0.59134 -0.59285,0.16895 -2.40598,-0.16781 -4.33067,-0.82945 -3.03564,-1.044019 -5.02606,-2.908498 -8.90528,-8.339339 -3.17674,-4.447295 -5.21291,-6.997758 -7.44742,-8.583232 -0.0416,-0.0378 -0.0854,-0.07521 -0.12695,-0.111118 -0.0189,-0.01512 -0.0382,-0.02646 -0.0567,-0.04309 -0.002,-0.002 -0.004,-0.0038 -0.008,-0.0076 -9.8e-4,-9.83e-4 -0.002,-0.003 -0.004,-0.0038 -0.0457,-0.04082 -0.096,-0.0703 -0.14241,-0.109228 -0.16925,-0.136441 -0.33778,-0.276283 -0.51523,-0.392315 -0.43747,-0.291024 -0.93369,-0.517153 -1.50082,-0.706469 -0.26898,-0.09222 -0.56497,-0.176504 -0.87434,-0.251717 -1.6407,-0.550904 -3.57476,-0.892346 -6.12226,-1.227515 -3.95251,-0.520101 -10.34788,-1.36131 -14.21369,-1.869694 -6.50315,-0.855232 -20.22746,-3.936114 -46.43125,-10.423673 -9.87444,-2.444674 -8.899,-2.576769 3.99694,-0.536731 3.02268,0.478224 10.21717,1.333455 15.98776,1.898986 5.77055,0.565493 14.53885,1.477531 19.48508,2.027717 4.94619,0.550223 15.37208,1.007433 23.16777,1.018809 12.47185,0.01512 18.48169,-0.731187 19.21772,-2.406425 l 0.5816,-0.257764 -0.64016,-0.324283 c -1.30603,-1.306923 -11.67948,-6.416985 -19.39138,-9.496706 -2.17217,-0.867425 -4.84941,-1.994162 -5.94857,-2.503945 -1.09916,-0.509775 -4.47158,-1.873119 -7.49425,-3.030871 -3.02272,-1.157749 -6.20447,-2.743 -7.07077,-3.522705 -0.24027,-0.216076 -0.64114,-0.453037 -1.11827,-0.690853 -0.49837,-0.271256 -0.99081,-0.492438 -1.42862,-0.612842 -1.05848,-0.39622 -2.28045,-0.758397 -3.44852,-0.989451 -2.43118,-0.48091 -6.66873,-1.869456 -9.41661,-3.085538 -2.74791,-1.216082 -9.70757,-3.986778 -15.46667,-6.157399 -5.75915,-2.170586 -11.45501,-4.589601 -12.65633,-5.376714 -2.7685,-1.813996 -27.60894,-11.548581 -28.13274,-11.024792 -0.43962,0.439597 6.61085,5.035771 10.31044,6.721437 0.26937,0.122759 0.50139,0.261052 0.72602,0.400066 0.67967,0.528518 1.15624,0.962593 1.12999,1.130026 -0.0113,0.06422 0.0265,0.151862 0.0857,0.249714 -0.004,0.05817 -0.0151,0.114066 -0.0468,0.163956 -0.28411,0.459688 0.99046,1.55125 2.83374,2.439534 0.19495,0.109946 0.36155,0.223634 0.56988,0.329801 0.16585,0.08462 0.31847,0.18172 0.47812,0.271257 1.96708,1.288354 3.88164,3.594675 5.96421,7.180018 2.40534,4.141138 3.75565,6.497065 5.08789,7.88852 l 0.99562,1.739158 h 2.03163 c 1.25885,0.302173 2.84905,0.392058 5.15231,0.536711 3.84851,0.241777 13.05723,2.053059 20.46286,4.02426 18.13707,4.827602 18.41093,4.897947 34.86781,8.915071 6.76204,1.65052 12.60014,3.196838 14.34837,3.788031 1.5e-4,7.6e-5 -1.5e-4,0.002 0,0.002 0.0978,0.167055 -0.0227,0.323905 -0.32413,0.468396 -0.008,0.003 -0.0113,0.0076 -0.0189,0.01134 l -0.90555,0.20485 c -6.83495,0.587679 -31.71721,-0.04687 -43.99756,-1.329033 -3.02268,-0.315968 -10.21717,-1.06594 -15.98776,-1.668661 -5.77055,-0.602684 -16.40898,-1.963676 -23.64205,-3.024975 -11.41522,-1.674611 -17.96314,-2.91831 -42.30672,-8.026644 -2.47308,-0.518963 -5.62069,-1.144044 -6.99465,-1.389558 -3.75304,-0.670719 -12.03868,-2.491401 -15.98775,-3.512962 -6.34049,-1.639997 -11.35764,-2.757592 -22.35149,-4.982158 C 117.18667,43.073206 89.550708,32.347621 59.867583,18.16472 54.049956,15.384957 47.979596,12.799412 46.377912,12.417177 44.776261,12.034897 40.725341,10.208916 37.375052,8.3597181 31.175718,4.9379832 28.538608,4.2786408 27.534953,5.9026207 c -0.308269,0.4985915 5.609126,5.5572133 13.148114,11.2414043 4.159276,3.135938 8.280503,6.36949 11.5595,9.028207 3.162686,2.756341 6.313542,5.682984 9.43225,8.74529 6.749201,7.187157 16.884008,18.692981 22.191965,25.291178 2.685695,3.338502 5.310074,6.285442 6.608248,7.466884 0.521941,0.710627 0.853523,1.220448 1.071428,1.606224 -1.905041,0.0076 -11.512695,-2.249084 -39.337056,-9.176546 -6.182752,-1.539349 -11.23208,-2.538848 -11.221879,-2.22291 0.01512,0.463162 36.960349,12.511318 53.28343,17.377308 0.0189,0.0038 0.04415,0.01512 0.06232,0.0189 l 0.02268,0.0076 c 3.105781,0.933468 6.044977,3.595654 14.467447,13.097348 5.82162,6.567686 11.61416,13.012002 12.87097,14.321122 4.86112,5.06332 13.0185,18.20107 15.09003,24.30168 6.46805,19.04852 2.13659,27.42886 -15.52716,29.27055 -1.97792,0.0571 -4.34314,0.0764 -7.31081,0.0684 -3.59694,-0.0113 -6.26231,-0.0495 -8.49936,-0.1542 -1.79801,-0.2846 -3.70449,-0.67813 -6.012971,-1.23152 -20.823084,-4.9917 -48.555377,-21.32244 -67.805512,-39.92833 -1.366212,-1.32053 -2.657435,-2.62878 -3.918888,-3.95207 -2.584298,-2.80637 -5.208526,-5.85498 -7.822138,-9.03605 C 17.81087,99.411787 15.680403,96.541198 13.3516,93.241141 11.626192,90.796014 9.306305,87.814533 8.1973625,86.615327 7.0884199,85.416234 5.1927071,82.521267 3.98573,80.182797 1.9770869,76.291282 0,73.934369 0,75.431667 c 0,0.463899 0.68242634,1.856352 1.8052715,3.819363 0.2599143,0.582728 0.5536781,1.181405 0.8899423,1.750602 0.6453279,1.092548 1.1362189,1.78681 1.4793207,2.162457 5.4457721,8.779881 14.7877285,22.315801 19.1493795,27.287661 1.576486,2.24757 2.656189,3.87141 2.656189,4.0594 0,0.0427 0.06045,0.14022 0.126935,0.24416 1.192018,2.45284 11.937699,13.33277 16.86013,16.95772 17.574252,12.9419 23.008309,16.41831 34.438466,22.03393 15.917111,7.82014 30.071746,12.53518 43.626736,14.53376 6.20164,0.91441 11.47628,1.14769 15.87068,0.68897 0.1719,-0.0189 0.34228,-0.0378 0.51133,-0.0567 1.67236,-0.15685 3.11637,-0.42871 4.29746,-0.81963 8.24469,-2.26046 12.17038,-8.01566 12.17038,-17.49645 0,-10.83523 -6.54776,-25.31565 -19.22746,-42.51821 -5.56123,-7.54485 -6.43557,-9.19514 -4.56683,-8.6301 1.27105,0.38434 10.54168,4.4691 20.60143,9.07899 6.93918,3.17987 12.89386,5.86798 16.12047,7.28739 2.43696,1.23514 4.68454,2.40786 6.67847,3.49149 1.33633,0.81993 2.71222,1.66348 4.38338,2.72447 4.08552,2.59381 6.86861,4.04742 8.16365,4.3248 0.29843,0.12434 0.51061,0.192 0.55231,0.15042 0.004,-0.004 -9e-4,-0.0151 0.002,-0.0227 0.002,-10e-4 0.0151,0.004 0.0189,0.002 0.001,-0.001 -9.8e-4,-0.008 0,-0.008 0.3366,0.0113 0.41197,-0.18784 0.21872,-0.59327 -0.10163,-0.37418 -0.45753,-0.93906 -1.11439,-1.72521 -1.77557,-2.12526 -3.19123,-5.40585 -3.63196,-7.68359 -0.0438,-0.23924 -0.0854,-0.47368 -0.11709,-0.69864 -0.1217,-1.11742 0.0695,-1.8658 0.69674,-1.8658 0.4391,0 5.27287,5.04412 10.74176,11.21015 15.65844,17.65463 24.36727,27.57215 28.45869,32.42835 1.98113,2.53421 3.04602,4.1359 2.43565,3.87983 -0.58236,-0.24453 -1.69414,-0.6915 -2.67376,-1.09096 -19.09732,-9.7923 -49.52245,-21.44636 -56.0548,-21.44636 -2.81766,0 -1.09803,1.66719 2.45124,2.3771 5.24978,1.04995 32.64052,15.01871 45.21539,23.05852 8.24937,5.27433 20.43883,14.1696 25.83178,18.66145 0.50604,0.45461 0.9366,0.8606 1.31344,1.23349 0.67272,1.04988 0.86557,2.0733 0.61866,3.33147 -3.08195,6.38675 -14.40602,27.58042 -17.08064,31.79784 -2.9682,4.68038 -4.16079,7.96558 -2.15072,5.9232 1.50603,-1.53025 15.56082,-23.78366 19.18455,-30.37519 0.47359,-0.86147 0.94166,-1.67456 1.38563,-2.41803 1.25378,-1.83039 2.33213,-3.20602 2.85135,-3.53643 3.06393,1.54673 25.112,24.11985 49.92075,51.15424 9.10089,9.91733 11.91741,12.57763 10.01381,9.45759 -0.41915,-0.687 -4.15494,-5.2399 -8.30223,-10.11719 -4.14734,-4.87737 -8.63513,-10.27325 -9.97282,-11.99085 -1.33772,-1.71765 -5.84354,-6.9447 -10.01188,-11.61615 -4.16837,-4.67142 -10.03514,-11.41618 -13.03689,-14.98848 -3.00175,-3.57229 -7.80642,-9.13557 -10.67738,-12.36162 l -3.38996,-3.80965 c -0.77785,-1.04875 -1.34305,-1.87249 -1.64327,-2.4082 l 4.3287,-8.27105 c 2.4837,-4.74285 4.92398,-9.2968 5.42164,-10.12119 0.49765,-0.82436 2.5359,-5.09613 4.52972,-9.4927 1.99386,-4.39662 4.44129,-9.79253 5.4392,-11.99086 6.10493,-13.44828 10.43197,-24.93188 12.14303,-32.22527 0.3366,-1.43535 0.69458,-2.64767 0.97974,-3.41734 0.12309,-0.12586 0.24366,-0.21467 0.35512,-0.22639 0.30637,-0.0302 1.19126,1.19599 2.29511,3.03677 2.01996,3.90316 4.82738,10.01254 6.11838,13.59307 1.04086,2.88677 2.90197,9.18441 4.13551,13.99318 1.23353,4.80888 2.53934,8.74329 2.90205,8.74329 0.36268,0 1.46704,-3.56243 2.45516,-7.91577 l 1.79745,-7.91387 -2.4903,-5.44116 c -1.74812,-3.81835 -3.7065,-7.32405 -5.70459,-10.34948 -0.002,-0.0265 -0.0189,-0.0665 -0.0189,-0.0918 0,-0.4826 -1.35182,-2.27123 -3.16748,-4.276 -1.46051,-1.76708 -2.89476,-3.18992 -4.24087,-4.18235 -0.83565,-0.67287 -1.63417,-1.17933 -2.37319,-1.47545 -3.48527,-1.79252 -4.85009,-0.42255 -5.74173,4.98058 -0.98994,5.99898 -5.61109,19.7887 -9.94354,29.67062 -6.24984,14.25543 -9.85887,21.96249 -10.14849,21.67287 -0.15186,-0.15156 0.78893,-3.62816 2.0902,-7.72649 5.34891,-16.84604 8.14393,-40.52398 6.60239,-55.914258 -0.16433,-1.638463 -0.27466,-3.117959 -0.35323,-4.408706 0.0385,-1.993776 0.15979,-3.098154 0.40789,-3.620296 0.69572,0.002 2.12238,0.279685 3.66709,0.735761 2.04362,0.603477 7.08834,2.094425 11.21017,3.31389 4.12187,1.219464 9.22383,3.095055 11.33703,4.16674 2.1132,1.071685 8.77487,3.670749 14.80506,5.776819 4.49585,1.57013 8.49996,3.05375 10.36904,3.82522 0.53963,0.28385 0.917,0.54089 1.21585,0.78648 0.55512,2.18045 -1.96835,16.19286 -4.46142,24.39735 -5.03682,16.57572 -13.51403,31.80828 -20.15057,36.21441 -4.55565,3.02464 -9.63523,1.9121 -13.4604,-2.95079 -1.03485,-1.31562 -2.05449,-2.21779 -2.26779,-2.0044 -0.0264,0.0265 -0.008,0.14627 0.0468,0.32807 -0.16622,-0.0971 -0.24933,-0.0907 -0.25576,0.0189 -0.10431,-0.0692 -0.17567,-0.10507 -0.17567,-0.0665 0,0.0389 0.0861,0.21317 0.17756,0.39224 0.12726,0.58213 0.92501,2.06147 2.31075,4.34831 2.79797,5.91973 7.48999,15.06418 8.34321,15.91741 0.17983,0.18028 0.58205,0.0635 1.12221,-0.24794 0.52039,-0.0522 1.48846,-0.81864 2.7147,-2.03743 1.16626,-1.0631 2.51297,-2.4816 3.9501,-4.14334 2.87723,-3.14586 5.97073,-6.93532 8.27299,-10.37091 5.18189,-7.73303 12.20951,-25.54341 14.55913,-36.89757 l 1.44811,-6.99462 -0.52889,13.48966 c -0.43684,11.13638 -2.86699,32.05989 -4.55315,39.9108 -0.21797,0.61077 -0.35588,1.17112 -0.39619,1.65694 -0.0113,0.0438 -0.0264,0.1081 -0.0378,0.15043 -0.35513,1.23651 -0.21498,2.24825 0.31015,2.24825 1.03743,0 3.2748,-4.32575 3.2748,-6.33109 0,-1.63445 11.54798,-29.31749 12.99006,-31.14017 0.43483,-0.54962 1.99424,-3.92202 3.46415,-7.49424 1.46995,-3.57229 4.14862,-9.86751 5.95442,-13.98931 1.80584,-4.12188 4.5162,-12.66531 6.02276,-18.98548 2.07697,-8.713359 9.05756,-32.877996 11.43264,-39.77422 0.28713,-0.560138 0.54733,-0.969993 0.77868,-1.229534 0.12355,1.038868 0.18097,3.668221 0.12885,7.029771 -0.0189,1.273814 -0.0151,2.360806 0.008,3.388044 -0.0623,0.842759 -0.0604,1.659061 0.0265,2.503975 -0.008,0.08353 -0.0638,0.556346 -0.0665,0.603023 -0.008,0.170835 0.18701,0.864832 0.46448,1.760391 0.46033,2.692422 1.34268,5.439799 2.98993,9.931805 l 3.33143,9.088744 c -1.1e-4,0.415446 -0.0302,0.821972 -0.0857,1.22366 l -4.00672,7.984141 c -3.13923,6.25496 -4.50812,10.3776 -5.01567,15.11735 -0.78579,7.33728 0.14241,10.03261 4.32481,12.57041 l 2.63858,1.6004 -5.95245,1.72324 c -6.96098,2.01494 -16.06304,6.01901 -16.95185,7.45716 -0.75341,1.21912 0.15677,1.69841 2.01603,1.51839 0.80071,0.0631 1.85042,-0.17499 3.32166,-0.74359 1.06289,-0.33335 2.20922,-0.74706 3.44072,-1.28999 7.72385,-3.40539 25.26236,-9.6175 29.20221,-10.4022 0.20712,-0.0265 0.41995,-0.0544 0.60503,-0.0665 0.71497,0.0673 1.45485,0.47456 1.93406,1.04213 6.1e-4,7.1e-4 9.8e-4,0.001 0.002,0.002 0.24189,0.35225 0.40366,0.76456 0.47619,1.20026 -0.0514,0.78482 -0.72896,1.90364 -2.21704,3.60465 -0.99609,1.07634 -2.20307,2.32059 -3.58513,3.69834 -7.2793,6.63232 -19.86713,17.54933 -24.19826,20.83367 -14.81878,11.2371 -41.16658,28.32839 -52.60425,34.12426 -3.96706,2.01014 -5.17663,3.00642 -4.3814,3.0192 -0.5901,0.41439 -0.61508,0.53824 -0.0665,0.35716 0.008,6.8e-4 0.004,0.008 0.0113,0.008 0.25652,0.0113 1.35095,-0.46227 2.75959,-1.12029 1.40131,-0.52161 3.23756,-1.30065 5.44309,-2.36145 24.36142,-11.71744 56.53701,-32.73071 74.54834,-48.68534 3.56745,-3.1601 6.9095,-5.74564 7.42597,-5.74564 0.33789,0 1.08022,0.95955 1.89698,2.32052 l 0.92311,1.67448 c 0.13002,0.25436 0.26306,0.48537 0.39035,0.75141 1.24902,2.61048 4.71099,9.08587 7.69331,14.38934 2.98235,5.30347 5.42169,10.18983 5.42169,10.85889 0,0.66905 -3.04361,4.64817 -6.76441,8.84281 -3.72079,4.19467 -9.00423,10.31297 -11.74103,13.59696 -2.73675,3.28415 -7.89935,8.94078 -11.47162,12.57052 -3.57228,3.62978 -8.74329,9.22503 -11.4912,12.43382 -4.56626,5.33215 -10.7308,12.2299 -22.29544,24.94768 -2.36998,2.60632 -4.1108,4.93874 -3.86811,5.18161 0.24253,0.24265 4.43014,-3.91619 9.30538,-9.24098 23.5541,-25.72649 60.44531,-63.39753 61.46654,-62.76639 0.45256,0.27969 3.37092,4.8714 6.48529,10.20314 2.46395,4.2181 5.75717,9.6525 8.2261,13.60282 0.45204,0.72076 0.88846,1.41566 1.39737,2.21121 0.11679,0.18256 0.27817,0.44512 0.38646,0.61285 2.39074,3.703 4.34627,6.97694 4.34627,7.2776 0,0.81551 9.89234,14.50201 14.24885,19.91637 0.0378,0.0469 0.0661,0.0832 0.10167,0.12888 0.19578,0.24265 0.41707,0.52332 0.58745,0.72794 0.84896,1.04288 1.45554,1.69009 1.66281,1.69009 0.16478,0 0.14815,-0.22299 -0.33789,-1.19633 -0.0975,-0.24189 -0.23622,-0.53224 -0.42739,-0.8919 -1.41509,-3.3058 -5.38783,-10.63751 -9.22341,-16.71375 -1.27895,-2.02605 -5.14666,-9.07861 -8.59502,-15.67355 -3.22016,-6.1587 -6.54229,-12.14483 -7.81626,-14.12005 -0.79513,-1.54484 -1.51158,-2.96341 -2.20728,-4.35016 -0.0775,-0.67858 -0.93237,-2.52242 -1.97896,-4.239 -0.22904,-0.37569 -0.44058,-0.77212 -0.646,-1.16705 -0.78583,-1.74788 -1.21118,-2.94119 -1.32514,-3.81932 0.28347,-1.16939 5.8828,-7.9702 12.70904,-15.4159 6.009,-6.55438 11.75418,-12.92172 14.26636,-15.79261 0.18671,-0.20371 0.61451,-0.66168 0.77677,-0.8392 0.87341,-0.95562 1.65967,-1.74641 2.39078,-2.40836 1.21814,-0.95168 2.53821,-1.67837 3.49731,-1.85987 0.88554,-0.16781 1.52398,-0.20749 2.08822,-0.0189 0.49467,0.26305 0.98177,0.67306 1.47349,1.22173 0.51938,0.68338 1.09429,1.64765 1.86966,3.06017 2.59517,4.72781 14.75611,22.41846 18.74933,27.27402 1.04693,1.27302 1.88137,1.78227 2.45707,1.67251 0.34167,0.0892 0.55189,-0.0748 0.6167,-0.51129 0.46995,-0.94953 0.34016,-3.10897 -0.56201,-6.14566 -0.7652,-2.5767 -1.58978,-6.21846 -1.83258,-8.09341 -0.24302,-1.87502 -0.5164,-3.40951 -0.60896,-3.40951 -0.0926,0 -0.3583,-2.22221 -0.59127,-4.93765 -0.49126,-5.7309 -0.81006,-6.26706 -2.76937,-4.641 -0.38861,0.32277 -0.73569,0.52286 -1.089,0.61675 -1.09874,-0.0227 -2.49792,-0.92142 -4.53369,-2.90794 -0.1149,-0.51741 -1.21198,-1.86258 -2.55474,-3.10696 l -0.94061,-0.87046 c -0.58288,-0.87481 -0.88425,-1.54348 -0.6616,-1.73885 0.0265,-0.0227 0.14286,-0.0658 0.21883,-0.0994 l 2.63271,-0.70257 c 2.10538,-0.5624 8.39301,-2.12512 13.97371,-3.47192 5.58058,-1.34683 11.06279,-2.93933 12.18206,-3.53831 1.11919,-0.59902 10.04303,-2.63781 19.8305,-4.5317 9.7875,-1.89388 20.04317,-3.88025 22.79112,-4.41456 2.74786,-0.53439 9.26797,-1.93708 14.48889,-3.11679 5.221,-1.17966 13.74475,-2.57669 18.94061,-3.10499 5.19583,-0.52842 10.14206,-1.54107 10.99155,-2.24833 0.84949,-0.70726 11.43621,-3.17186 23.52696,-5.47824 21.22835,-4.049458 25.93969,-4.982057 46.46437,-9.196041 L 650,91.945822 643.0053,92.44933 c -0.14362,0.01134 -0.33789,0.03024 -0.48786,0.0412 -0.004,3.02e-4 -0.008,-3.4e-4 -0.0151,0 -3.87326,0.294047 -9.78825,0.925153 -13.48773,1.446161 -12.51681,1.762923 -45.78875,5.850898 -52.95946,6.506759 -3.84703,0.35187 -8.79326,1.02474 -10.99159,1.49692 -2.19832,0.47206 -13.43966,2.02412 -24.98086,3.44851 -11.54105,1.42436 -22.5577,2.79614 -24.48125,3.04842 -3.10012,0.40641 -2.98673,0.29707 0.99927,-0.96994 2.47306,-0.78599 8.31885,-2.55799 12.99005,-3.93645 5.54162,-1.63533 9.14339,-3.30486 10.36316,-4.804915 l 1.8675,-2.299238 -0.32428,-0.02268 0.45868,-0.478224 h -0.0265 l -4.4205,-0.0076 c -1.01454,-0.002 -2.57341,0.123591 -4.60192,0.363213 -8.02295,0.629367 -23.63032,2.993197 -32.79326,5.111324 -1.33856,0.30954 -3.48351,0.69059 -5.85687,1.07338 -2.57892,0.39115 -4.85884,0.72344 -6.90482,1.00902 -1.44011,0.1886 -2.87822,0.36851 -4.22528,0.51719 -6.04532,0.66724 -11.64956,1.71043 -12.45336,2.31855 -0.068,0.0514 -0.0975,0.0559 -0.13455,0.0684 -0.0189,6.1e-4 -0.048,0.003 -0.0665,0.004 -0.13984,-0.16819 1.18092,-2.15943 3.3216,-4.96104 8.51244,-11.140652 54.55216,-53.817805 78.15308,-72.44452 2.29394,-1.810484 5.67322,-4.525837 8.71597,-6.971222 1.31947,-1.008529 2.73728,-2.120757 4.14527,-3.274847 0.56451,-0.462671 1.28927,-1.021296 1.9731,-1.555442 0.0457,-0.03402 0.0865,-0.06762 0.13266,-0.103483 3.48201,-2.6328 7.98921,-5.847319 11.38976,-8.0953481 2.38076,-1.5739163 4.22105,-2.9189746 5.57579,-4.0535737 0.91048,-0.5328567 1.62996,-0.9269972 1.79546,-0.9269972 0.48019,0 0.87239,-0.8993159 0.87239,-1.9984744 0,-0.088781 -0.008,-0.1673575 -0.0151,-0.2497134 0.003,-0.030236 0.0151,-0.064214 0.0151,-0.093695 0,-0.044939 -0.008,-0.078198 -0.008,-0.1209071 0.0529,-0.1363653 0.0865,-0.2625637 0.10545,-0.3825071 0.0797,-0.19343619 0.10469,-0.35890391 0.0741,-0.49572659 0.062,-0.35512443 -0.16252,-0.53969388 -0.71622,-0.51325231 C 585.74724,0.05404725 585.42855,0 585.01767,0 Z M 69.135975,35.606095 c 3.625501,0.167358 24.065576,7.483612 45.281725,16.270712 18.31867,7.587084 21.75782,9.618346 28.44502,16.803565 9.73659,10.461619 12.585,13.653997 13.39402,15.008013 0.18663,0.312189 0.26445,0.556309 0.19343,0.735761 -0.30863,0.132661 -0.7703,0.229417 -1.33492,0.292913 -2.72325,-0.15874 -10.2205,-1.931603 -28.43917,-6.413103 L 106.90219,73.43857 c -0.45255,-0.157606 -0.82935,-0.303874 -1.21004,-0.450822 -0.0672,-0.03401 -0.13409,-0.07294 -0.20099,-0.109228 -1.31,-0.818079 -2.88512,-2.167824 -5.08794,-4.389203 L 99.074185,67.097808 C 98.467536,66.463225 97.532043,65.437197 96.796603,64.652431 L 92.452297,59.765513 C 86.122023,52.642649 80.942135,46.511507 80.941564,46.141204 c -5.29e-4,-0.370243 -2.153015,-1.882307 -4.78537,-3.360715 -5.230284,-2.937449 -8.803279,-6.317204 -7.51768,-7.111718 0.08765,-0.05401 0.256138,-0.07366 0.497654,-0.06232 z m 75.124085,16.85231 c 3.33019,0.130318 23.85153,5.237049 33.31823,8.358814 3.18293,1.049632 9.21566,2.907304 13.40773,4.129656 6.4801,1.889503 7.5493,2.505982 7.12928,4.112092 -0.0227,0.0926 -0.0623,0.172725 -0.0918,0.261543 -0.30369,0.453619 -0.70151,0.930293 -1.16705,1.391471 -0.0808,0.07899 -0.1511,0.161008 -0.23422,0.238111 -0.0227,0.0189 -0.0378,0.04044 -0.0585,0.06047 -0.54258,0.291402 -1.50713,1.583736 -2.30289,3.12257 -1.33731,2.586104 -1.52133,4.792441 -0.97192,11.741027 0.69584,8.80082 2.82139,19.663221 4.45557,22.779441 0.50868,0.97009 1.62601,4.13492 2.48441,7.03174 0.8584,2.89674 2.84492,6.94363 4.41462,8.99312 1.56968,2.04941 4.11563,5.45896 5.65774,7.57814 2.50149,3.43756 7.22494,6.39761 10.46076,6.61799 0.034,0.004 0.074,0.0227 0.1073,0.0227 0.0151,0 0.034,-0.0113 0.0506,-0.0113 0.0737,0.003 0.15073,0.0113 0.2225,0.0113 0.034,0 0.0619,-0.0113 0.0937,-0.0113 0.0472,0.002 0.0994,0.0113 0.1443,0.0113 0.003,0 0.004,-0.002 0.008,-0.002 0.008,0 0.0113,0.002 0.0189,0.002 0.0858,0 0.16812,-0.0151 0.24972,-0.034 h 0.002 c 0.1598,-0.0412 0.3109,-0.1251 0.45469,-0.24226 0.0189,-0.0151 0.0393,-0.0265 0.0585,-0.045 0.0265,-0.0227 0.048,-0.0499 0.0722,-0.0741 0.0555,-0.0544 0.11111,-0.11074 0.16395,-0.17575 0.93943,-0.92534 1.52757,-2.9241 1.77796,-5.41583 0.034,-0.22564 0.0616,-0.44535 0.0604,-0.63621 0.38032,-5.10372 -0.59557,-11.97959 -2.96842,-16.23364 -0.0265,-0.0491 -0.051,-0.099 -0.0782,-0.14854 -0.22477,-0.49708 -0.44657,-0.95777 -0.66161,-1.27441 -0.98409,-1.96457 -1.72707,-3.85391 -1.74867,-4.57267 -0.0552,-1.84184 -5.47804,-9.5122 -9.81865,-14.553297 -1.95805,-2.602393 -3.5586,-4.45285 -3.8779,-4.133556 -0.0302,0.03024 -0.0714,0.05518 -0.11331,0.07635 -0.2044,-0.149292 -0.39883,-0.284977 -0.56011,-0.363213 -2.49857,-1.210394 -3.76365,-0.948283 -4.16478,1.405115 -1.1e-4,6.05e-4 1.2e-4,9.83e-4 0,0.002 -0.27957,0.809462 -0.30074,1.919018 -0.10352,3.557821 0.0378,0.72582 0.0899,1.509921 0.17189,2.392706 0.35664,3.848994 0.22591,5.458814 -0.36495,4.496584 -0.50612,-0.82439 -1.14404,-3.648421 -1.41691,-6.27644 -0.24669,-2.376 -0.84963,-4.828611 -1.40516,-5.811931 -0.11033,-1.13314 -0.19571,-2.251502 -0.23233,-3.310034 0.24593,-0.936265 0.49146,-2.306948 0.644,-3.795931 0.47793,-4.664126 1.34484,-7.965393 2.4786,-9.603969 0.5284,-0.554608 1.10256,-0.906709 1.71158,-1.001121 0.0691,-0.0076 0.13826,-0.01512 0.20701,-0.02268 0.11406,-0.01134 0.22854,-0.02646 0.3434,-0.03024 0.0616,-0.003 0.12205,-9.07e-4 0.18361,-0.002 0.0812,0 0.16245,0.0076 0.24405,0.01134 2.65105,0.682809 6.18441,4.0464 8.17737,7.952958 1.18676,2.326261 2.74738,3.921184 3.46218,4.006639 0.30108,0.136441 0.46535,0.0189 0.43521,-0.403994 0.0189,-0.266078 -0.11297,-0.810633 -0.36684,-1.705738 l -0.12503,-0.438955 c -0.0189,-0.0771 -0.0227,-0.12926 -0.0488,-0.212787 0.16736,-0.214299 0.8275,0.320882 1.76232,1.344718 2.90443,3.5136 8.3266,11.736189 10.28313,16.301935 1.05979,2.4731 2.67942,5.62069 3.5988,6.99462 0.71703,1.0715 1.57013,2.87932 2.18388,4.41272 0.32829,0.88592 0.49289,1.50599 0.46645,1.80321 l -0.002,0.002 c -0.22968,0.008 -1.03407,-1.01053 -2.11165,-2.55466 -3.67349,-5.99028 -10.76537,-18.210256 -12.06302,-20.944933 -1.61037,-3.3936 -3.29547,-4.697424 -3.46223,-2.847383 -0.0381,0.142866 -0.0642,0.311811 -0.0642,0.526904 0,0.01512 0.008,0.03024 0.008,0.04498 -2.7e-4,0.0038 -0.008,0.0076 -0.008,0.01134 0,0.0038 0.0113,0.02646 0.0113,0.03024 0.001,0.03402 0.008,0.06765 0.0113,0.101669 -0.0151,0.124347 -0.0227,0.267591 -0.0227,0.429128 0,0.333732 0.16396,0.616441 0.40007,0.798236 0.0729,0.12926 0.14582,0.257764 0.23233,0.363213 0.41069,1.007168 1.04559,2.354797 1.76817,3.825222 0.27504,0.665121 0.67926,1.469291 1.1788,2.351698 3.28573,6.383816 7.84722,14.271316 9.19999,15.474526 0.38991,0.68795 0.82235,1.4363 1.20025,2.10773 0.0113,0.0227 0.0265,0.0495 0.0408,0.0722 0.0774,0.99481 0.63965,2.50401 1.34271,3.51292 1.60214,2.29912 8.52852,15.08344 12.39674,22.85359 0.58734,1.28738 1.12024,2.50559 1.61986,3.68466 1.29152,3.34012 2.72729,7.84207 3.62418,11.52246 l 1.56719,6.43646 c 0.17605,1.68034 0.20625,3.08776 0.0487,4.48876 l -1.59836,4.80294 c -1.2109,3.63874 -2.51429,6.80818 -2.89819,7.04538 -0.21086,0.1304 -0.64454,-0.0654 -1.14756,-0.44889 -0.44759,-0.45626 -0.96885,-1.00396 -1.61985,-1.72331 -0.24367,-0.27251 -0.54869,-0.62914 -0.81578,-0.93279 -3.88769,-4.76413 -11.15116,-13.48989 -16.80158,-20.16817 -3.43283,-4.05736 -8.65696,-10.33753 -11.60827,-13.95613 -2.95135,-3.61859 -8.1224,-9.78013 -11.4912,-13.69066 -5.53164,-6.42115 -7.81228,-9.14664 -11.8269,-14.05568 -0.085,-0.14778 -0.18928,-0.27515 -0.31018,-0.37856 -0.58428,-0.71512 -0.91107,-1.10117 -1.60229,-1.94971 -2.39174,-3.09641 -3.10945,-4.29793 -3.03673,-4.74833 l 3.11089,0.41767 c 1.50342,0.20221 2.76914,0.26382 3.46611,0.20296 l 0.0782,0.0113 -0.0302,-0.0151 c 0.30788,-0.0302 0.5289,-0.079 0.5289,-0.16593 0,-0.28044 -2.68494,-1.51302 -5.96614,-2.74008 -4.52221,-1.69122 -6.8784,-3.35388 -9.74059,-6.867783 -2.07671,-2.549594 -4.90196,-5.772283 -6.27644,-7.162507 -3.38169,-3.420473 -11.19056,-12.881953 -13.17154,-15.958451 -0.88469,-1.373972 -2.46106,-3.39738 -3.50318,-4.496542 -3.32127,-3.503135 -7.85564,-9.481089 -9.57078,-12.420197 -0.53479,-1.141474 -0.69134,-1.964281 -0.51915,-2.554685 9.1e-4,-0.003 9.8e-4,-0.0076 0.002,-0.01134 0.0189,-0.04641 0.0302,-0.09562 0.0525,-0.140523 0.0265,-0.05779 0.0642,-0.110363 0.0975,-0.163956 0.0265,-0.0491 0.0574,-0.09479 0.0876,-0.140523 0.1375,-0.179074 0.31314,-0.332069 0.52496,-0.458634 0.0525,-0.03024 0.11071,-0.05514 0.16774,-0.08198 0.0721,-0.0076 0.10424,-0.02646 0.21649,-0.02268 z m 308.56058,0.696744 c 0.22375,-0.01512 0.35679,-0.0076 0.38839,0.02646 0.22034,0.220233 -1.88625,1.721253 -4.68201,3.337296 -1.18858,0.687073 -2.18222,1.364138 -3.06788,2.076556 -0.73134,0.40351 -1.49616,1.144003 -2.06683,1.986758 -0.94526,1.095874 -1.77018,2.344294 -2.58592,3.897396 -2.56588,4.885346 -9.58431,14.969579 -14.53769,20.888282 -2.14786,2.56645 -2.65493,2.756636 -4.11401,1.545713 -1.1774,-0.977272 -1.49976,-1.030148 -1.45202,0.277417 -0.0378,0.13304 -0.008,0.405204 0.0586,0.757267 0.0189,0.205984 0.0189,0.328063 0.0431,0.575773 0.34885,3.325909 -1.50992,6.414501 -9.56493,15.899903 -2.80025,3.29745 -6.2781,7.56922 -7.73042,9.49274 -1.45236,1.92351 -4.63086,5.63319 -7.06295,8.24368 -0.69007,0.74063 -1.32643,1.37382 -1.92824,1.93213 -0.0862,0.079 -0.17726,0.16592 -0.26155,0.24227 -0.0571,0.0499 -0.11527,0.10167 -0.17196,0.15042 -0.12322,0.10923 -0.24341,0.20939 -0.36284,0.3103 -0.24264,0.20183 -0.47845,0.39148 -0.71036,0.56988 -0.10621,0.0801 -0.21279,0.16063 -0.31635,0.23433 -0.0971,0.0718 -0.192,0.13946 -0.28686,0.20712 -1.0786,0.72087 -2.01461,1.06635 -2.87471,1.09096 -1.54352,-0.0469 -2.60493,-0.61675 -3.27882,-1.77207 -0.0189,-0.0556 -0.034,-0.11377 -0.0506,-0.17197 -0.0699,-0.24983 -0.11906,-0.51394 -0.127,-0.80402 -0.0378,-1.33682 0.58916,-3.08523 1.90674,-5.07624 3.38509,-5.11522 6.44303,-11.25453 8.14416,-16.34881 2.59888,-7.782758 4.27442,-15.328396 4.51801,-19.356239 1.5e-4,-0.003 -1.9e-4,-0.0038 0,-0.0076 7.2e-4,-0.01134 -7.2e-4,-0.0189 0,-0.03024 0.12964,-2.215937 -0.17159,-3.367257 -1.01291,-2.847383 -0.58772,0.362457 -0.85232,0.870954 -0.59135,1.131931 0.39542,0.395376 0.21052,1.856919 -0.34167,3.911093 -0.0692,0.261165 -0.13152,0.474255 -0.20485,0.761121 -2.14643,7.325178 -8.36515,21.051287 -12.51779,26.512897 l -2.57035,3.38022 -1.5027,-2.86889 c -0.82688,-1.5781 -2.78521,-6.38196 -4.35215,-10.67542 -3.34347,-9.16143 -3.52719,-8.544233 5.99742,-20.195459 8.31738,-10.174526 12.05934,-13.73847 13.74527,-13.091566 0.73754,0.283465 1.57194,0.14022 1.85409,-0.316346 0.88641,-1.434256 10.91966,-5.81031 18.11894,-7.902131 8.48836,-2.466354 32.19851,-7.747525 35.55281,-7.97435 z m -239.47674,20.20133 5.67728,1.077317 c 3.47152,0.65896 13.12971,3.38056 21.46209,6.050003 l 6.4033,2.051225 c 3.25444,1.197506 5.94252,2.269796 7.25614,2.970369 0.36647,0.390916 0.51394,0.793852 0.47619,1.247055 l -2.89619,4.04572 c -2.15049,3.003175 -3.75172,5.620158 -3.55784,5.813934 0.19382,0.19389 1.65057,-0.32126 3.23582,-1.143685 4.18969,-2.173606 5.15601,-0.607673 6.39744,10.359273 1.23324,10.89479 0.67677,20.09775 -2.16828,35.81631 -1.11907,6.18274 -2.32989,11.24138 -2.68932,11.24138 -0.35928,0 -1.51494,-3.03512 -2.56835,-6.7448 -1.05341,-3.7096 -2.9764,-8.66336 -4.27408,-11.00719 -1.29764,-2.34388 -2.2713,-4.81705 -2.16239,-5.49581 0.34341,-2.14035 -4.66701,-13.97054 -6.15351,-14.68797 -0.008,-0.004 -0.0189,-0.0302 -0.0227,-0.034 -0.0423,-0.034 -0.12578,-0.18822 -0.18928,-0.28309 -0.27617,-0.60858 -0.53339,-1.18174 -0.79236,-1.76625 -0.10688,-0.80715 -0.4542,-1.91282 -0.88019,-2.71079 -0.0151,-0.0302 -0.0378,-0.0813 -0.0525,-0.11338 -0.30296,-0.77122 -0.63909,-1.5718 -1.01872,-2.3576 -0.0302,-0.0612 -0.0544,-0.12208 -0.0839,-0.18368 -0.10243,-0.27477 -0.23535,-0.58855 -0.30448,-0.81184 -0.0151,-0.0442 -0.034,-0.079 -0.0468,-0.12095 -0.034,-0.1028 -0.0699,-0.192 -0.1073,-0.28309 l -0.002,-0.002 c -0.10008,-0.2434 -0.21835,-0.44511 -0.35513,-0.60695 -0.64337,-1.53226 -1.09874,-2.86681 -1.09874,-3.33135 0,-0.66233 -0.70211,-1.47553 -1.5613,-1.80526 -0.85923,-0.32995 -1.31608,-0.997794 -1.01484,-1.485202 1.06977,-1.73091 -5.24374,-12.060926 -11.74299,-19.574854 -0.86489,-1.057512 -1.70754,-2.022161 -2.49416,-2.835704 l -0.5406,-0.560126 -1.7877,-1.908662 -0.57768,-0.68897 c 0.0676,-0.04762 0.14052,-0.09335 0.23611,-0.128882 z M 112.00745,81.73675 c 0.83335,-0.05631 7.77725,1.985991 16.14971,4.765909 0.20364,0.06765 0.40238,0.132662 0.60895,0.201071 0.26975,0.138331 0.48919,0.264945 0.58937,0.357165 0.5221,0.481323 1.64623,0.875301 2.49809,0.876284 0.23384,3.02e-4 1.08144,0.209008 2.24047,0.524938 7.65853,2.535686 16.30374,5.39709 20.79267,6.86589 5.68978,1.861682 9.47516,3.372171 8.52666,3.399723 -0.0227,3.8e-5 -0.0529,0 -0.0763,0 -1.17294,-0.02646 -10.75422,-1.225852 -21.39767,-2.677644 l -18.45075,-2.517581 c -0.55371,-0.148913 -1.64846,-0.992315 -2.96257,-2.179994 l -3.31383,-3.434872 c -2.53863,-2.631874 -4.67389,-5.070577 -5.17574,-5.890016 -0.003,-0.0038 -0.004,-0.0076 -0.008,-0.01512 -0.0665,-0.110741 -0.10503,-0.19389 -0.10541,-0.238111 -1.5e-4,-0.02268 0.0302,-0.03401 0.0839,-0.03893 z m 38.72618,18.48389 c 0.004,-2.6e-4 0.0113,2.7e-4 0.0151,0 3.43835,0.2589 12.43105,1.42704 18.2614,2.34781 2.48929,0.50162 4.41896,1.00112 5.78269,1.534 0.19343,0.0971 0.38522,0.19426 0.54646,0.29858 0.4859,0.43672 0.95564,0.97009 1.29198,1.5086 0.57657,0.9233 0.74748,1.51551 0.49765,1.79557 -0.23989,0.0714 -0.51624,0.11188 -0.82554,0.11112 -0.0865,-2.2e-4 -0.17718,-0.002 -0.27125,-0.008 -0.11448,-0.0113 -0.30104,-0.0404 -0.50936,-0.0779 -0.57231,-0.14476 -1.27793,-0.38125 -2.15072,-0.72409 -1.09916,-0.43173 -7.06083,-2.04846 -13.24766,-3.59293 -4.47506,-1.11719 -8.19546,-2.1702 -9.86356,-2.76159 -0.36004,-0.24567 -0.20062,-0.3908 0.4723,-0.43324 z m 56.30455,1.95946 c 0.37512,-0.0737 0.92724,0.43457 1.88136,1.60422 2.01283,2.46758 2.51981,8.16216 1.08707,10.45879 -0.11188,0.1697 -0.22553,0.33713 -0.36117,0.47229 -0.61152,0.61149 -1.78442,1.10022 -2.71667,1.17097 -0.52112,-0.0302 -0.99513,-0.22035 -1.35446,-0.57963 -0.62411,-0.62411 0.0589,-9.71282 0.93092,-12.38309 0.14582,-0.44591 0.30788,-0.69933 0.53283,-0.74355 z m 219.66577,0.4879 c 0.0548,-0.0151 0.0922,-0.0113 0.11339,0.0113 0.13266,0.13569 0.33978,0.43514 0.59327,0.83531 l 2.16439,4.35995 c 1.7043,3.43506 3.09917,6.55125 3.09917,6.92436 0,0.76744 -5.35113,2.39509 -15.17586,4.6156 -3.67514,0.83063 -7.49715,1.80937 -8.49351,2.17606 -1.63419,0.60136 1.73526,-3.37723 11.76443,-13.95023 2.91998,-2.72032 5.35441,-4.82661 5.93495,-4.97277 z m -57.83073,1.89502 c 0.4904,0.0873 1.43916,1.75287 2.27168,4.0594 0.95148,2.63603 2.13526,5.69246 2.6308,6.79166 0.37255,0.82624 0.68658,1.55599 0.96996,2.24047 0.63989,1.84097 1.09447,3.24038 1.35835,4.19796 0.14091,0.86426 0.10273,1.52749 -0.11901,2.05508 -0.27504,0.37077 -0.69388,0.73572 -1.30369,1.22951 -0.0612,0.0495 -0.12545,0.0854 -0.18739,0.13267 -2.50531,1.04065 -7.56547,0.69573 -9.1961,-0.93483 -0.0397,-0.0397 -0.0778,-0.0922 -0.11713,-0.13682 -0.69221,-1.00248 -1.15333,-2.26284 -1.27441,-3.73538 -0.0695,-0.84564 0.068,-2.14746 0.3298,-3.64181 1.02391,-4.31251 3.35498,-10.98107 4.45753,-12.1957 0.0495,-0.0548 0.10957,-0.0748 0.17945,-0.0624 z m 136.20627,0.44304 c 2.87433,0.0786 2.76828,0.20863 -1.95946,2.4356 -3.96714,1.86886 -6.74566,2.36836 -13.4897,2.422 -4.33156,0.034 -7.3231,0.28346 -9.74642,1.05388 h -1.24516 -0.3103 l -1.1593,1.21587 c -1.79784,1.07074 -3.40728,2.61631 -5.31239,4.84196 -1.44079,1.68332 -3.37818,3.48215 -4.86145,4.56491 -0.2366,0.16327 -0.46383,0.32693 -0.71626,0.48593 -0.16895,0.10545 -0.33487,0.20901 -0.48012,0.28309 -1.45617,0.7403 -3.77253,1.65029 -5.14643,2.02382 l -0.89582,0.24416 c -0.004,-0.3617 0.32995,-0.9515 1.01091,-1.77014 1.38081,-1.16651 3.53873,-3.03538 4.88107,-4.22918 2.0211,-1.7975 3.75976,-3.25463 5.37279,-4.52194 0.58582,-0.45354 1.17335,-0.90856 1.71745,-1.31932 5.03464,-3.66644 8.58463,-4.7918 13.6927,-4.93565 2.58373,-0.0729 7.15352,-0.75163 10.15427,-1.50667 3.0008,-0.75496 6.82288,-1.33375 8.49358,-1.28806 z m -179.71397,4.28186 c 1.21321,0.0404 3.02577,0.99814 5.77486,2.14677 3.71534,1.55237 3.75825,1.6345 3.06212,5.77493 -0.74465,4.42889 -5.18031,19.43343 -8.17537,27.70333 -0.10315,0.23963 -0.2191,0.54335 -0.3162,0.75527 -0.65519,1.43376 -1.22424,3.04165 -1.5984,4.38538 -0.0453,0.16328 -0.10348,0.34281 -0.1307,0.48008 -0.054,0.2143 -0.11675,0.43771 -0.15602,0.62842 -0.52221,1.5213 -1.04377,3.06051 -1.4208,4.22139 l -1.42077,4.37356 c -0.0265,-0.22904 -0.0265,-0.60374 -0.004,-1.14161 l 0.30641,-2.73233 c 0.27806,-2.4731 0.79142,-14.08369 1.1417,-25.80057 0.0476,-1.59371 0.0797,-2.79054 0.11713,-4.16477 0.0227,-0.5819 0.0427,-1.16913 0.0604,-1.72332 0.008,-0.13341 0.0189,-0.26154 0.0151,-0.39617 0.0189,-0.54478 0.0378,-1.11541 0.0506,-1.62765 0.22363,-5.10977 0.46247,-8.8345 0.75726,-10.84713 3.8e-4,-0.002 0.002,-0.002 0.002,-0.004 0.3788,-1.51057 0.96456,-2.06404 1.9341,-2.03165 z m 139.16686,3.77836 c 0.0816,0.10696 0.11716,0.31143 0.11716,0.60892 0,0.41737 -1.01174,1.37933 -2.24825,2.13898 -2.24043,1.37628 -2.24224,1.37522 -0.34545,-0.75723 0.2332,-0.2623 0.38396,-0.40811 0.57967,-0.61867 0.71244,-0.54002 1.34158,-0.99382 1.89698,-1.372 z m -11.97521,1.97503 c 0.28271,0.034 0.48438,0.0937 0.6421,0.1697 -0.008,0.42444 -0.95021,1.55387 -3.03866,3.94031 -2.19836,2.51195 -4.25012,4.61075 -4.55906,4.6625 -0.30878,0.0518 -1.59794,-1.30927 -2.86499,-3.0231 -0.32504,-0.4394 -0.59346,-0.84249 -0.80992,-1.21391 -0.0113,-0.0189 -0.0227,-0.0378 -0.0302,-0.0548 -0.0937,-0.16365 -0.17802,-0.32164 -0.24983,-0.47229 -0.0151,-0.0302 -0.0227,-0.0548 -0.0378,-0.0839 -0.30426,-0.66645 -0.38926,-1.20575 -0.23811,-1.63548 0.49848,-0.45063 1.94876,-0.94507 3.68666,-1.36615 0.35717,-0.0189 0.69566,-0.045 1.10661,-0.0487 1.6487,-0.0151 4.1218,-0.32126 5.49577,-0.67919 0.37304,-0.0971 0.65632,-0.1576 0.89771,-0.1954 z m -20.30479,4.48097 c 2.99402,-0.11793 4.25283,1.27974 6.15156,4.6995 3.20212,5.76722 2.5771,7.42696 -3.66709,9.74842 -3.94813,1.46782 -6.00646,3.26994 -6.04422,5.28306 -0.008,0.47093 0.70526,0.57846 1.58668,0.24 0.96771,-0.37152 0.47297,0.72586 -1.24902,2.76941 -1.25057,1.48404 -4.70812,5.56502 -7.85144,9.27413 -1.7828,2.02284 -3.33335,3.85036 -4.40288,5.19137 -2.89316,3.40785 -6.10073,7.18659 -7.16055,8.42718 l -1.10653,1.29585 c -0.76569,0.73251 -1.3889,1.26425 -1.65502,1.37975 l -3.29045,-6.05393 c -6.28604,-11.56078 -11.51966,-23.32751 -11.38579,-25.45119 0.16705,-0.22828 0.43472,-0.53102 0.67721,-0.81581 0.80844,-0.72246 2.69602,-2.41656 4.9767,-4.47114 3.85341,-3.47165 6.02755,-4.50875 12.99001,-6.19057 4.59915,-1.11095 10.74497,-2.72345 13.65554,-3.58518 3.55854,-1.05347 5.97891,-1.67018 7.77529,-1.74085 z"
       id="Tsuki_no_Tempest_name" />
  </g>
</svg>
